<?xml version="1.0" encoding="UTF-8"?>
<!DOCTYPE svg PUBLIC "-//W3C//DTD SVG 1.1//EN" "http://www.w3.org/Graphics/SVG/1.1/DTD/svg11.dtd">
<svg version="1.2" width="127.02mm" height="63.54mm" viewBox="3222 4809 12702 6354" preserveAspectRatio="xMidYMid" fill-rule="evenodd" stroke-width="28.222" stroke-linejoin="round" xmlns="http://www.w3.org/2000/svg" xmlns:ooo="http://xml.openoffice.org/svg/export" xmlns:xlink="http://www.w3.org/1999/xlink" xmlns:presentation="http://sun.com/xmlns/staroffice/presentation" xmlns:smil="http://www.w3.org/2001/SMIL20/" xmlns:anim="urn:oasis:names:tc:opendocument:xmlns:animation:1.0" xmlns:svg="urn:oasis:names:tc:opendocument:xmlns:svg-compatible:1.0" xml:space="preserve">
 <defs class="EmbeddedBulletChars">
  <g id="bullet-char-template-57356" transform="scale(0.00048828125,-0.00048828125)">
   <path d="M 580,1141 L 1163,571 580,0 -4,571 580,1141 Z"/>
  </g>
  <g id="bullet-char-template-57354" transform="scale(0.00048828125,-0.00048828125)">
   <path d="M 8,1128 L 1137,1128 1137,0 8,0 8,1128 Z"/>
  </g>
  <g id="bullet-char-template-10146" transform="scale(0.00048828125,-0.00048828125)">
   <path d="M 174,0 L 602,739 174,1481 1456,739 174,0 Z M 1358,739 L 309,1346 659,739 1358,739 Z"/>
  </g>
  <g id="bullet-char-template-10132" transform="scale(0.00048828125,-0.00048828125)">
   <path d="M 2015,739 L 1276,0 717,0 1260,543 174,543 174,936 1260,936 717,1481 1274,1481 2015,739 Z"/>
  </g>
  <g id="bullet-char-template-10007" transform="scale(0.00048828125,-0.00048828125)">
   <path d="M 0,-2 C -7,14 -16,27 -25,37 L 356,567 C 262,823 215,952 215,954 215,979 228,992 255,992 264,992 276,990 289,987 310,991 331,999 354,1012 L 381,999 492,748 772,1049 836,1024 860,1049 C 881,1039 901,1025 922,1006 886,937 835,863 770,784 769,783 710,716 594,584 L 774,223 C 774,196 753,168 711,139 L 727,119 C 717,90 699,76 672,76 641,76 570,178 457,381 L 164,-76 C 142,-110 111,-127 72,-127 30,-127 9,-110 8,-76 1,-67 -2,-52 -2,-32 -2,-23 -1,-13 0,-2 Z"/>
  </g>
  <g id="bullet-char-template-10004" transform="scale(0.00048828125,-0.00048828125)">
   <path d="M 285,-33 C 182,-33 111,30 74,156 52,228 41,333 41,471 41,549 55,616 82,672 116,743 169,778 240,778 293,778 328,747 346,684 L 369,508 C 377,444 397,411 428,410 L 1163,1116 C 1174,1127 1196,1133 1229,1133 1271,1133 1292,1118 1292,1087 L 1292,965 C 1292,929 1282,901 1262,881 L 442,47 C 390,-6 338,-33 285,-33 Z"/>
  </g>
  <g id="bullet-char-template-9679" transform="scale(0.00048828125,-0.00048828125)">
   <path d="M 813,0 C 632,0 489,54 383,161 276,268 223,411 223,592 223,773 276,916 383,1023 489,1130 632,1184 813,1184 992,1184 1136,1130 1245,1023 1353,916 1407,772 1407,592 1407,412 1353,268 1245,161 1136,54 992,0 813,0 Z"/>
  </g>
  <g id="bullet-char-template-8226" transform="scale(0.00048828125,-0.00048828125)">
   <path d="M 346,457 C 273,457 209,483 155,535 101,586 74,649 74,723 74,796 101,859 155,911 209,963 273,989 346,989 419,989 480,963 531,910 582,859 608,796 608,723 608,648 583,586 532,535 482,483 420,457 346,457 Z"/>
  </g>
  <g id="bullet-char-template-8211" transform="scale(0.00048828125,-0.00048828125)">
   <path d="M -4,459 L 1135,459 1135,606 -4,606 -4,459 Z"/>
  </g>
  <g id="bullet-char-template-61548" transform="scale(0.00048828125,-0.00048828125)">
   <path d="M 173,740 C 173,903 231,1043 346,1159 462,1274 601,1332 765,1332 928,1332 1067,1274 1183,1159 1299,1043 1357,903 1357,740 1357,577 1299,437 1183,322 1067,206 928,148 765,148 601,148 462,206 346,322 231,437 173,577 173,740 Z"/>
  </g>
 </defs>
 <g class="Page">
  <g class="com.sun.star.drawing.CustomShape">
   <g id="id3">
    <rect class="BoundingBox" stroke="none" fill="none" x="3222" y="4809" width="6352" height="6353"/>
    <path fill="rgb(167,161,244)" stroke="none" d="M 9573,7985 C 9573,8543 9426,9091 9148,9573 8869,10056 8468,10457 7985,10736 7503,11014 6955,11161 6398,11161 5840,11161 5292,11014 4810,10736 4327,10457 3926,10056 3647,9573 3369,9091 3222,8543 3222,7986 3222,7428 3369,6880 3647,6398 3926,5915 4327,5514 4810,5235 5292,4957 5840,4810 6397,4810 6955,4810 7503,4957 7985,5235 8468,5514 8869,5915 9148,6398 9426,6880 9573,7428 9573,7985 L 9573,7985 Z"/>
   </g>
  </g>
  <g class="com.sun.star.drawing.CustomShape">
   <g id="id4">
    <rect class="BoundingBox" stroke="none" fill="none" x="9572" y="4809" width="6352" height="6353"/>
    <path fill="rgb(193,247,174)" stroke="none" d="M 15923,7985 C 15923,8543 15776,9091 15498,9573 15219,10056 14818,10457 14335,10736 13853,11014 13305,11161 12747,11161 12190,11161 11642,11014 11160,10736 10677,10457 10276,10056 9997,9573 9719,9091 9572,8543 9572,7986 9572,7428 9719,6880 9997,6398 10276,5915 10677,5514 11160,5235 11642,4957 12190,4810 12747,4810 13305,4810 13853,4957 14335,5235 14818,5514 15219,5915 15498,6398 15776,6880 15923,7428 15923,7985 L 15923,7985 Z"/>
   </g>
  </g>
  <g class="com.sun.star.drawing.CustomShape">
   <g id="id5">
    <rect class="BoundingBox" stroke="none" fill="none" x="6396" y="4809" width="6354" height="6354"/>
    <path fill="rgb(54,54,68)" stroke="none" d="M 12748,7985 C 12748,8543 12601,9091 12323,9573 12044,10056 11643,10457 11160,10736 10678,11014 10130,11161 9573,11161 9015,11161 8467,11014 7985,10736 7502,10457 7101,10056 6822,9573 6544,9091 6397,8543 6397,7986 6397,7428 6544,6880 6822,6398 7101,5915 7502,5514 7985,5235 8467,4957 9015,4810 9572,4810 10130,4810 10678,4957 11160,5235 11643,5514 12044,5915 12323,6398 12601,6880 12748,7428 12748,7985 L 12748,7985 Z"/>
    <path fill="none" stroke="rgb(255,255,255)" d="M 12748,7985 C 12748,8543 12601,9091 12323,9573 12044,10056 11643,10457 11160,10736 10678,11014 10130,11161 9573,11161 9015,11161 8467,11014 7985,10736 7502,10457 7101,10056 6822,9573 6544,9091 6397,8543 6397,7986 6397,7428 6544,6880 6822,6398 7101,5915 7502,5514 7985,5235 8467,4957 9015,4810 9572,4810 10130,4810 10678,4957 11160,5235 11643,5514 12044,5915 12323,6398 12601,6880 12748,7428 12748,7985 L 12748,7985 Z"/>
   </g>
  </g>
 </g>
</svg>