<svg id="Layer_1" data-name="Layer 1" xmlns="http://www.w3.org/2000/svg" viewBox="0 0 1724.26 489.19"><path d="M377.16,634c59.66,0,91.83-30.78,93.48-89H377.16Z" transform="translate(-377.16 -290.91)"/><path d="M377.16,524.61h93.48c-1.65-58.2-33.82-89-93.48-89Z" transform="translate(-377.16 -290.91)"/><path d="M634.54,455.42c-23.55-35.71-50-72.11-50-72.11s-26.48,36.4-50,72.11c-18.58,28.2-36.62,57.86-43.43,69.19H678c-6.82-11.33-24.85-41-43.44-69.19" transform="translate(-377.16 -290.91)"/><path d="M534.47,614.18c23.55,35.71,50,72.11,50,72.11s26.49-36.4,50-72.11C653.13,586,671.16,556.32,678,545H491c6.81,11.33,24.85,41,43.44,69.19" transform="translate(-377.16 -290.91)"/><rect x="321.21" y="254.08" width="93.48" height="233.69"/><rect x="321.21" width="93.48" height="233.69"/><path d="M999.19,291h20.71l19.75,38.43c3.33,6.55,8.45,16,11.3,23.56h.24c-.48-8-.71-19.15-.71-24V291h16.89v83.29h-20.7L1026,334.52c-2.85-5.35-7.73-14.28-10.35-21.66h-.23c.47,9.17.71,20.71.71,23.09v38.31h-16.9Z" transform="translate(-377.16 -290.91)"/><path d="M1080.7,344.52c0-18.09,11.66-31.18,30.94-31.18,19,0,30.82,13.21,30.82,31.18,0,18.68-12.14,31.17-30.82,31.17C1092.25,375.69,1080.7,363.91,1080.7,344.52Zm43.91,0c0-14.28-4-19.28-13-19.28s-13.09,5-13.09,19.28,4,19.27,13.09,19.27S1124.61,358.79,1124.61,344.52Z" transform="translate(-377.16 -290.91)"/><path d="M1192.44,313.34l-.36,15a24.9,24.9,0,0,0-3.09-.23c-11.19,0-17.38,5.23-17.38,19.63v26.53H1155V314.77h16.43V326c2.49-8.68,9.51-12.61,19.51-12.61Z" transform="translate(-377.16 -290.91)"/><path d="M1257.53,314.77v58.54c0,16.54-11.07,25.34-28.8,25.34-15.23,0-26.89-5.59-27.72-20l16.3-1.07c.59,6.55,4.64,9.17,11.54,9.17,8.81,0,12-4.88,12-13.69v-8.45c-3.33,5.83-8.69,9.17-16.66,9.17-15.83,0-26.42-12.26-26.42-30.82,0-17.61,11-29.63,26.06-29.63,7.86,0,13.57,3.57,17,8.92v-7.49ZM1241.34,343c0-11-3.68-17.73-12.49-17.73-9.28,0-13,5.47-13,17.73,0,13.56,3.69,18.92,12.73,18.92S1241.34,354.87,1241.34,343Z" transform="translate(-377.16 -290.91)"/><path d="M1330.11,348.8h-43.55c.12,10,4.88,15.11,13.81,15.11,7.61,0,11.42-3.45,12.61-9.64l16.18,1.43c-3.45,13.33-13.45,20-28.79,20-9.29,0-16.66-3-21.66-7.85-5.71-5.6-8.57-13.45-8.57-23.44,0-9.52,2.62-17.61,8.45-23.21,5.24-5.11,12.37-7.85,21.66-7.85s16.77,3,21.77,8.33C1327.73,327.86,1330.35,337.14,1330.11,348.8Zm-40.45-19.52a15.8,15.8,0,0,0-3,8.1h26.54c-.36-3.69-1.31-6.79-3.46-9.05s-5.23-3.45-9.51-3.45C1295.37,324.88,1291.92,326.31,1289.66,329.28Z" transform="translate(-377.16 -290.91)"/><path d="M1338.68,356.3l15.83-2c.23,7.14,5,10.35,11.66,10.35s10.23-2.49,10.23-6.9c0-3.92-4.52-5.35-13.92-7.61-11.43-2.74-21.9-6.31-21.9-18.56,0-13.09,11.55-18.21,24.4-18.21,13.09,0,24.27,4.4,25.82,18l-15.35,2.62c-.36-6.67-4.29-9.64-10.24-9.64-4.87,0-8.92,1.78-8.92,5.95s4.28,5.47,12.26,7.25c10.59,2.38,23.79,5.24,23.79,19.4s-12.61,18.8-26.53,18.8C1351.65,375.69,1339.75,370,1338.68,356.3Z" transform="translate(-377.16 -290.91)"/><path d="M1089.62,462.76v37.12H1073V465.73c0-5.23-.35-9-2.85-11.42a8.65,8.65,0,0,0-6.9-2.62,10.29,10.29,0,0,0-8.21,3.46c-2,2.49-3.21,6.42-3.21,12.13v32.6h-16.66V465.73c0-5.47-.24-9-3.1-11.66-2.5-2.38-4.76-2.38-7.14-2.38a9.47,9.47,0,0,0-7.37,3.22c-1.91,2.26-3.22,6.18-3.22,12.73v32.24H997.65V440.39h16.65v8.33a16.73,16.73,0,0,1,4.41-5.71c3.33-2.74,6.9-4.05,12.37-4.05,9,0,15,4.52,17.25,11.66a18.31,18.31,0,0,1,5.84-7.49c3.8-3,8.09-4.17,13.92-4.17C1081.89,439,1089.62,446.7,1089.62,462.76Z" transform="translate(-377.16 -290.91)"/><path d="M1159.59,440.39v59.49h-16.18v-8.32c-3.09,6.3-8.92,9.75-16.78,9.75-7.49,0-12.61-2-16.89-6.54-4.64-4.88-5.36-12-5.36-20V440.39h17v33.55c0,5.48.24,9.17,2.62,11.9,2.26,2.5,4.87,2.86,8.21,2.86,5.71,0,10.94-4.05,10.94-15.94V440.39Z" transform="translate(-377.16 -290.91)"/><path d="M1171.37,481.92l15.83-2c.24,7.14,5,10.36,11.66,10.36s10.23-2.5,10.23-6.9c0-3.93-4.52-5.36-13.92-7.62-11.42-2.74-21.89-6.31-21.89-18.56,0-13.09,11.54-18.21,24.39-18.21,13.09,0,24.27,4.4,25.82,18l-15.35,2.62c-.35-6.67-4.28-9.64-10.23-9.64-4.88,0-8.93,1.78-8.93,5.95s4.29,5.47,12.26,7.26c10.59,2.38,23.8,5.23,23.8,19.39s-12.62,18.8-26.54,18.8C1184.34,501.31,1172.45,495.6,1171.37,481.92Z" transform="translate(-377.16 -290.91)"/><path d="M1237.42,415.4h16.65v17.14h-16.65Zm0,25h16.65v59.49h-16.65Z" transform="translate(-377.16 -290.91)"/><path d="M1291.56,473.35l-5.12,5v21.53h-16.66V416.59h16.66v43.2l18.44-19.4h21.06l-23.2,22.25,23.68,37.24h-19Z" transform="translate(-377.16 -290.91)"/><path d="M1357.24,473.35l-5.12,5v21.53h-16.65V416.59h16.65v43.2l18.45-19.4h21.06l-23.2,22.25,23.67,37.24h-19Z" transform="translate(-377.16 -290.91)"/><path d="M1456.48,463.71v36.17h-16.66V464.54c0-5.59-.59-7.85-3-10.23s-4.41-2.62-8-2.62c-4.87,0-11.06,3.69-11.06,15.35v32.84h-16.66V416.59h16.54v32.49c3.09-6.79,9.52-10.12,17.25-10.12s12.5,1.55,16.54,6C1456,449.79,1456.48,455.5,1456.48,463.71Z" transform="translate(-377.16 -290.91)"/><path d="M1524.42,450.15c4,5.23,6.31,12.13,6.31,20,0,18.68-12.14,31.17-30.82,31.17-7.49,0-13.68-1.78-18.68-5L1475,503l-7-6.31,6.43-6.9c-3.57-5.12-5.47-11.78-5.47-19.63,0-18.09,11.66-31.18,30.93-31.18a31.47,31.47,0,0,1,17.49,4.76l6.55-7,6.9,6.55Zm-37.24,26.06,21.06-22.73c-2-1.79-4.76-2.62-8.33-2.62-8.92,0-13.09,5-13.09,19.28A46,46,0,0,0,1487.18,476.21ZM1512.41,463l-21.66,23.08c2.14,2.38,5.12,3.33,9.16,3.33,9,0,13-5,13-19.27A42.89,42.89,0,0,0,1512.41,463Z" transform="translate(-377.16 -290.91)"/><path d="M1600.1,440.39v58.54c0,16.54-11.06,25.35-28.79,25.35-15.23,0-26.89-5.6-27.73-20l16.31-1.07c.59,6.54,4.64,9.16,11.54,9.16,8.8,0,12-4.88,12-13.69v-8.44c-3.34,5.83-8.69,9.16-16.66,9.16-15.83,0-26.42-12.26-26.42-30.82,0-17.61,11-29.63,26.06-29.63,7.85,0,13.56,3.57,17,8.93v-7.5Zm-16.18,28.2c0-10.95-3.69-17.73-12.49-17.73-9.28,0-13,5.47-13,17.73,0,13.56,3.69,18.92,12.73,18.92S1583.92,480.49,1583.92,468.59Z" transform="translate(-377.16 -290.91)"/><path d="M1611.89,481.92l15.82-2c.24,7.14,5,10.36,11.66,10.36s10.24-2.5,10.24-6.9c0-3.93-4.53-5.36-13.93-7.62-11.42-2.74-21.89-6.31-21.89-18.56,0-13.09,11.54-18.21,24.39-18.21,13.09,0,24.28,4.4,25.82,18l-15.35,2.62c-.35-6.67-4.28-9.64-10.23-9.64-4.88,0-8.92,1.78-8.92,5.95s4.28,5.47,12.25,7.26c10.59,2.38,23.8,5.23,23.8,19.39s-12.61,18.8-26.53,18.8C1624.86,501.31,1613,495.6,1611.89,481.92Z" transform="translate(-377.16 -290.91)"/><path d="M1699.7,473.35l-5.12,5v21.53h-16.65V416.59h16.65v43.2l18.45-19.4h21.06l-23.2,22.25,23.68,37.24h-19Z" transform="translate(-377.16 -290.91)"/><path d="M1737.78,470.14c0-18.09,11.66-31.18,30.94-31.18,19,0,30.82,13.21,30.82,31.18,0,18.68-12.14,31.17-30.82,31.17C1749.32,501.31,1737.78,489.53,1737.78,470.14Zm43.91,0c0-14.28-4-19.28-13-19.28s-13.09,5-13.09,19.28,4,19.27,13.09,19.27S1781.69,484.42,1781.69,470.14Z" transform="translate(-377.16 -290.91)"/><path d="M1812,416.59h16.66v83.29H1812Z" transform="translate(-377.16 -290.91)"/><path d="M1901.28,474.42h-43.55c.12,10,4.87,15.11,13.8,15.11,7.61,0,11.42-3.45,12.61-9.64l16.18,1.43c-3.45,13.33-13.44,20-28.79,20-9.28,0-16.66-3-21.66-7.85-5.71-5.59-8.56-13.45-8.56-23.44,0-9.52,2.61-17.61,8.44-23.2,5.24-5.12,12.38-7.86,21.66-7.86s16.78,3,21.77,8.33C1898.9,453.48,1901.51,462.76,1901.28,474.42Zm-40.46-19.51a15.66,15.66,0,0,0-3,8.09h26.53c-.36-3.69-1.31-6.78-3.45-9.05s-5.24-3.45-9.52-3.45C1866.53,450.5,1863.08,451.93,1860.82,454.91Z" transform="translate(-377.16 -290.91)"/><path d="M999.19,569.77h11.55L1042,620.1c3.33,5.35,7,12.25,10.47,18.8h.12c-.36-6.9-.59-17.73-.59-21.18v-48h10.59v83.29h-12.14l-30.94-50.33c-1.9-3.1-7-12.5-10.23-18.8h-.12c.36,8,.59,18.92.59,21.18v47.95H999.19Z" transform="translate(-377.16 -290.91)"/><path d="M1077.13,623.31c0-18.09,11.31-31.17,29.75-31.17,18.21,0,29.63,13.2,29.63,31.17,0,18.68-11.78,31.18-29.63,31.18C1088.32,654.49,1077.13,642.71,1077.13,623.31Zm47.84,0c0-14-4.64-22.73-18.09-22.73-13.68,0-18.2,8.69-18.2,22.73s4.4,22.73,18.2,22.73C1120.33,646,1125,637.35,1125,623.31Z" transform="translate(-377.16 -290.91)"/><path d="M1183,592.14l-.24,10.11a18.34,18.34,0,0,0-2.74-.12c-11.3,0-19.51,3.57-19.51,22.73v28.2h-10.71v-59.5h10.71V604c1.66-5.72,8.8-11.07,18.56-11.78C1179.94,592.14,1182.21,592.14,1183,592.14Z" transform="translate(-377.16 -290.91)"/><path d="M1187.8,593.56h11.54l9.28,31.77c.36,1.19,2.86,10.24,4.76,17.49,1.31-5.83,3.33-14.63,4-17.49l8-31.77h10l7.86,31.77c1,3.93,2.62,11.43,3.92,17.49,1.79-6.9,3.34-12.73,4.76-17.49l9.52-31.77H1273l-19.87,59.5h-11.54l-8-30.7c-.6-2.26-2.14-9.64-3.33-15.59-1.07,5.59-2.26,11.66-3.22,15.59l-7.73,30.7h-11.66Z" transform="translate(-377.16 -290.91)"/><path d="M1335.47,626.52h-45.1c.24,13.09,5.71,19.4,16.9,19.4,10.11,0,15.58-4.29,17-13.33l10.35.84c-2.61,13.92-12.13,21.06-27.24,21.06-9.17,0-16.31-2.74-21.42-8.69-5-5.59-7.26-13.33-7.26-22.61,0-8.8,2.5-16.54,7.5-22.13,5.23-5.95,12.49-8.92,21.06-8.92,9.4,0,18.32,4,23.2,11.78C1334,609.63,1335.94,618.08,1335.47,626.52Zm-42.13-19.27a21.19,21.19,0,0,0-2.85,10.59h34a22.88,22.88,0,0,0-3.21-10.59c-3.1-4.52-7.5-6.43-13.92-6.43C1300.72,600.82,1295.72,603.32,1293.34,607.25Z" transform="translate(-377.16 -290.91)"/><path d="M1402.1,593.56v58.19c0,15.94-11.06,25.7-28.56,25.7-11.77,0-24.74-5.12-25.34-20.11l10.23-.71c.48,9.87,6.79,12.49,16.31,12.49s16.65-5.83,16.65-16.66V642.35c-4.4,6.9-10.59,10.23-18.8,10.23-16.42,0-27.25-12.25-27.25-30.82,0-17.61,11-29.62,26.9-29.62,8.92,0,15,3.45,19.15,9.75v-8.33Zm-10.23,28.2c0-14-6.19-21.06-17.37-21.06-13.33,0-17.49,8.21-17.49,21.06,0,13.93,3.57,22.26,17.25,22.26S1391.87,632.71,1391.87,621.76Z" transform="translate(-377.16 -290.91)"/><path d="M1419,569.77h10.71v12.61H1419Zm0,23.79h10.71v59.5H1419Z" transform="translate(-377.16 -290.91)"/><path d="M1500.86,653.06a40.49,40.49,0,0,1-6.66.47q-9.81,0-10.71-9.28c-3.33,6.79-9.88,10.24-20,10.24s-20-5.48-20-17.14c0-12.85,10.83-16.42,20.23-18.2l19.63-3.81c0-5.36-.24-8.33-2-10.83s-5.59-3.93-10.83-3.93c-10.35,0-14.52,3.81-14.52,12.86L1445.53,612c.24-7.14,2.74-12.38,7.38-15.47,4.28-2.86,10.59-4.4,18.21-4.4,15,0,22.6,6.66,22.6,19.63v28.44c0,3.09,0,4.52,3.45,4.52a14.41,14.41,0,0,0,3.45-.48Zm-17.49-29.75-18,3.93c-6.3,1.43-10.94,3.21-10.94,10,0,5.59,4.88,8.69,10.71,8.69,13,0,18.2-6.78,18.2-15.35Z" transform="translate(-377.16 -290.91)"/><path d="M1563.45,617.72v35.34h-11.06V618.31c0-5.47.12-10.35-3.57-13.8-3.33-3.33-7.26-3.45-10.59-3.45-5.24,0-15.47,2.14-15.47,19.16v32.84h-10.71v-59.5h10.71v9.05c3-6.67,8.8-10.47,18.32-10.47,7.86,0,13.45,2.14,17.73,6.66C1563.33,603.68,1563.45,611.41,1563.45,617.72Z" transform="translate(-377.16 -290.91)"/><path d="M1652.7,628.19h-35.34l-9.16,24.87h-11.43l32.61-83.29h11.42l32.48,83.29H1662Zm-3.57-9.52-9.4-25.11c-1.67-4.4-3.57-9.87-4.76-13.44h-.12c-1.43,4.4-2.74,8.21-4.64,13.44l-9.28,25.11Z" transform="translate(-377.16 -290.91)"/><path d="M1678.52,623.31c0-18.32,11.31-31.17,29.51-31.17,15.11,0,23.68,9,26.06,20.34l-10,1.91c-1.78-6.9-5.35-13.69-16.06-13.69-14.52,0-17.73,9.52-17.73,22.61,0,13.45,3.33,22.61,17.73,22.61,9.16,0,13.92-3.57,16.18-12.14l10.12,1.07c-2.14,12-12.5,19.64-26.3,19.64C1689.83,654.49,1678.52,642.82,1678.52,623.31Z" transform="translate(-377.16 -290.91)"/><path d="M1800.72,653.06a40.49,40.49,0,0,1-6.66.47q-9.81,0-10.71-9.28c-3.33,6.79-9.87,10.24-20,10.24s-20-5.48-20-17.14c0-12.85,10.83-16.42,20.23-18.2l19.63-3.81c0-5.36-.23-8.33-2-10.83s-5.59-3.93-10.83-3.93c-10.35,0-14.51,3.81-14.51,12.86L1745.39,612c.24-7.14,2.74-12.38,7.38-15.47,4.29-2.86,10.59-4.4,18.21-4.4,15,0,22.6,6.66,22.6,19.63v28.44c0,3.09,0,4.52,3.46,4.52a14.54,14.54,0,0,0,3.45-.48Zm-17.49-29.75-18,3.93c-6.31,1.43-11,3.21-11,10,0,5.59,4.88,8.69,10.71,8.69,13,0,18.2-6.78,18.2-15.35Z" transform="translate(-377.16 -290.91)"/><path d="M1865.34,569.77v83.29h-10.71v-8.69a21.27,21.27,0,0,1-18.8,10.12c-15.83,0-27.37-11.78-27.37-31.18,0-18.8,11-31.17,27-31.17,8.33,0,14.64,2.85,19.16,9.16V569.77ZM1855,623.43c0-11.07-2.5-22.73-17-22.73-13.33,0-17.73,8.33-17.73,22.61,0,13.92,3.57,22.73,17.49,22.73C1849.16,646,1855,638.42,1855,623.43Z" transform="translate(-377.16 -290.91)"/><path d="M1935.54,626.52h-45.09c.23,13.09,5.71,19.4,16.89,19.4,10.12,0,15.59-4.29,17-13.33l10.35.84c-2.62,13.92-12.14,21.06-27.25,21.06-9.16,0-16.3-2.74-21.42-8.69-5-5.59-7.25-13.33-7.25-22.61,0-8.8,2.49-16.54,7.49-22.13,5.24-5.95,12.5-8.92,21.06-8.92,9.4,0,18.33,4,23.2,11.78C1934.12,609.63,1936,618.08,1935.54,626.52Zm-42.12-19.27a21.19,21.19,0,0,0-2.85,10.59h34a22.77,22.77,0,0,0-3.22-10.59c-3.09-4.52-7.49-6.43-13.92-6.43C1900.8,600.82,1895.8,603.32,1893.42,607.25Z" transform="translate(-377.16 -290.91)"/><path d="M2037,614.51v38.55h-11v-35c0-5.6,0-10.47-3.57-13.81-3.33-3.21-7.73-3.33-10-3.33a12.93,12.93,0,0,0-8.81,3.21c-2.85,2.62-5.47,6.55-5.47,16.07v32.84h-11v-35c0-5.6,0-10.47-3.57-13.81-3.33-3.21-7.73-3.33-10-3.33a13.06,13.06,0,0,0-8.81,3.21c-2.85,2.62-5.47,6.55-5.47,16.07v32.84h-10.59v-59.5h10.59v8.93a13.8,13.8,0,0,1,4.4-5.83c2.74-2.26,7-4.52,13.93-4.52,9.39,0,16.18,4.64,19,12.61a19.14,19.14,0,0,1,5.71-8.09c2.86-2.38,6.67-4.52,13.93-4.52C2029.78,592.14,2037,599.75,2037,614.51Z" transform="translate(-377.16 -290.91)"/><path d="M2101.42,593.56l-24.28,65c-4.87,13.09-9.16,18.92-17.37,18.92a34.47,34.47,0,0,1-9-1.19l.24-10a23.39,23.39,0,0,0,7.37,1.3c4.41,0,6.43-4.87,10.36-15l-23.21-59h11.43l11.3,32.13c1.43,4,3.33,9.88,5.24,15.83,2.38-7.26,3.68-11.07,5.35-15.83l11.42-32.13Z" transform="translate(-377.16 -290.91)"/><path d="M993.6,748.93c0-18.08,11.31-31.17,29.75-31.17,18.2,0,29.63,13.21,29.63,31.17,0,18.69-11.78,31.18-29.63,31.18C1004.79,780.11,993.6,768.33,993.6,748.93Zm47.84,0c0-14-4.65-22.72-18.09-22.72-13.68,0-18.21,8.68-18.21,22.72s4.41,22.73,18.21,22.73C1036.79,771.66,1041.44,763,1041.44,748.93Z" transform="translate(-377.16 -290.91)"/><path d="M1068.81,728.11h-8.57v-8.92h8.57V708.71c0-9.63,4.88-13.92,15.94-13.92a40.83,40.83,0,0,1,6.55.6l-.24,9.52a37,37,0,0,0-5.71-.6c-4,0-5.95.72-5.95,4.64v10.24h12.13v8.92H1079.4v50.57h-10.59Z" transform="translate(-377.16 -290.91)"/><path d="M1129.85,695.39h15.59l17.61,47.12c3.92,10.47,6.78,18.68,8.56,24.15h.12c1.79-5.47,5.24-15.47,8.45-24.15l17.61-47.12h15.59v83.29h-10.59V728.35c0-2.5.24-12.26.59-19h-.11c-3.1,8.92-5.24,15-6.79,19l-19.39,50.33h-10.95l-19.39-50.33c-1.55-4.05-4.17-11.54-6.79-19h-.12c.36,6.78.6,16.54.6,19v50.33h-10.59Z" transform="translate(-377.16 -290.91)"/><path d="M1282.52,719.19v59.49h-10.71v-8.92c-3.21,6.78-9.88,10.35-18.33,10.35-7.73,0-13.32-2.14-17.61-6.66-4.64-4.88-4.76-12.38-4.76-18.69V719.19h11.07v35c0,5.47-.12,10.11,3.45,13.56s7.38,3.45,10.83,3.45c5.35,0,15.35-1.3,15.35-18.56V719.19Z" transform="translate(-377.16 -290.91)"/><path d="M1295.61,759.17l9.76-1c-.12,8.33,5.94,13.45,15.23,13.45,9.75,0,14.63-3.33,14.63-9.64,0-6.78-11-7.61-19.16-9.75-9.63-2.5-19.15-5.36-19.15-17.14,0-12.37,11.42-17.37,22-17.37,12.61,0,23.56,5,24.87,19.51l-10,1.55c-.23-8.21-5.59-12.61-15-12.61-5.83,0-11.9,2.73-11.9,8.21s7.14,7,14.28,8.56c11.9,2.5,24.15,4.53,24.15,18.45,0,14.51-12.49,18.68-24.51,18.68C1307.51,780.11,1295.49,773.92,1295.61,759.17Z" transform="translate(-377.16 -290.91)"/><path d="M1358.56,695.39h10.7V708h-10.7Zm0,23.8h10.7v59.49h-10.7Z" transform="translate(-377.16 -290.91)"/><path d="M1382.59,748.93c0-18.32,11.3-31.17,29.51-31.17,15.11,0,23.68,9,26.06,20.35l-10,1.9c-1.78-6.9-5.35-13.68-16.06-13.68-14.52,0-17.73,9.51-17.73,22.6,0,13.45,3.33,22.61,17.73,22.61,9.16,0,13.92-3.57,16.18-12.14l10.12,1.07c-2.15,12-12.5,19.64-26.3,19.64C1393.89,780.11,1382.59,768.45,1382.59,748.93Z" transform="translate(-377.16 -290.91)"/></svg>