<svg xmlns="http://www.w3.org/2000/svg" viewBox="0 0 149.22 52.457"><defs><style>.cls-1{fill:#fff;}.cls-2{fill:#bf872b;}</style></defs><g id="Layer_2" data-name="Layer 2"><g id="Layer_1-2" data-name="Layer 1"><path class="cls-1" d="M68.622,2.113l2.332,6.605H66.263Zm-1-1.735L62.662,14.083h1.781l1.374-3.753h5.6l1.346,3.753h1.792L69.6.378Z"/><path class="cls-1" d="M79.664,14.273a5,5,0,0,1-1.446-.223,3.654,3.654,0,0,1-1.2-.63,2.934,2.934,0,0,1-.819-1.038,3.3,3.3,0,0,1-.3-1.445V4.284h1.753v6.473a2.111,2.111,0,0,0,.593,1.554,2.415,2.415,0,0,0,1.787.6,2.585,2.585,0,0,0,1.739-.564,2.09,2.09,0,0,0,.658-1.682V4.284h1.744v9.8H82.782l-.18-1.877a2.49,2.49,0,0,1-1.645,1.863,3.726,3.726,0,0,1-1.293.2"/><path class="cls-1" d="M90.2,14.273a5.568,5.568,0,0,1-1.9-.317,3.4,3.4,0,0,1-1.453-1,3.324,3.324,0,0,1-.73-1.729h1.592a2.106,2.106,0,0,0,.478.962,2.16,2.16,0,0,0,.867.578,3.244,3.244,0,0,0,1.138.194,3.033,3.033,0,0,0,1.592-.369,1.239,1.239,0,0,0,.606-1.138,1.19,1.19,0,0,0-.317-.867,1.942,1.942,0,0,0-.98-.479l-2.029-.5a4.487,4.487,0,0,1-1.9-.891,2.112,2.112,0,0,1-.711-1.7,2.706,2.706,0,0,1,.409-1.516,2.8,2.8,0,0,1,1.25-1.033,5.011,5.011,0,0,1,2.076-.379,4.264,4.264,0,0,1,2.573.716,2.529,2.529,0,0,1,1.019,2.1H92.241A1.625,1.625,0,0,0,91.61,5.8a2.287,2.287,0,0,0-1.435-.412,2.8,2.8,0,0,0-1.525.374,1.278,1.278,0,0,0-.589,1.161.954.954,0,0,0,.417.82,3.639,3.639,0,0,0,1.233.5l1.961.493A3.772,3.772,0,0,1,92.8,9.2a2.736,2.736,0,0,1,.7.654,2.368,2.368,0,0,1,.369.754,2.843,2.843,0,0,1,.109.753,2.652,2.652,0,0,1-.45,1.55,2.881,2.881,0,0,1-1.289,1,5.2,5.2,0,0,1-2.033.355"/><path class="cls-1" d="M101,5.563H98.79v6.094a1.987,1.987,0,0,0,.109.763.533.533,0,0,0,.369.308,3,3,0,0,0,.716.067h1.071V13.97a2.722,2.722,0,0,1-.544.114,7.333,7.333,0,0,1-.905.047,3.646,3.646,0,0,1-1.574-.275,1.546,1.546,0,0,1-.782-.815,3.5,3.5,0,0,1-.223-1.327V5.563H95.435V4.284h1.64L97.5,1.431H98.79V4.274H101Z"/><path class="cls-1" d="M103.33,14.084v-9.8H105V6.17a3.127,3.127,0,0,1,.691-1.161,2.9,2.9,0,0,1,1.019-.687,3.2,3.2,0,0,1,1.19-.228,3.12,3.12,0,0,1,.426.029.9.9,0,0,1,.323.094v1.7a1.18,1.18,0,0,0-.365-.09,3.615,3.615,0,0,0-.374-.024,4.062,4.062,0,0,0-1.1.071,2.507,2.507,0,0,0-.9.375,1.845,1.845,0,0,0-.611.7,2.257,2.257,0,0,0-.224,1.048v6.094Z"/><path class="cls-1" d="M112.95,14.273a3.971,3.971,0,0,1-1.678-.336,2.654,2.654,0,0,1-1.143-.971,2.767,2.767,0,0,1-.412-1.536A2.763,2.763,0,0,1,110.855,9a6.765,6.765,0,0,1,3.649-.853l1.753-.047V7.336a1.9,1.9,0,0,0-.539-1.426,2.331,2.331,0,0,0-1.679-.527,2.861,2.861,0,0,0-1.483.4,1.855,1.855,0,0,0-.829,1.269h-1.545a2.967,2.967,0,0,1,.54-1.615,2.968,2.968,0,0,1,1.351-1,5.58,5.58,0,0,1,2.051-.342,5.464,5.464,0,0,1,2.128.361,2.633,2.633,0,0,1,1.271,1.061,3.306,3.306,0,0,1,.421,1.725v6.843h-1.5l-.123-1.839a3.352,3.352,0,0,1-1.446,1.588,4.23,4.23,0,0,1-1.928.44m.53-1.26a2.8,2.8,0,0,0,.98-.18,3.478,3.478,0,0,0,.9-.488,2.63,2.63,0,0,0,.65-.692,1.549,1.549,0,0,0,.25-.791V9.184l-1.46.028a7.64,7.64,0,0,0-1.871.228,2.194,2.194,0,0,0-1.129.654,1.755,1.755,0,0,0-.374,1.166A1.566,1.566,0,0,0,112,12.548a2.28,2.28,0,0,0,1.483.465"/><path class="cls-1" d="M123.072,14.207a3.193,3.193,0,0,1-1.284-.218,1.765,1.765,0,0,1-.749-.588,2.144,2.144,0,0,1-.35-.848,5.346,5.346,0,0,1-.09-.99V0h1.725V11.392a1.785,1.785,0,0,0,.288,1.109,1.077,1.077,0,0,0,.811.407l.53.01v1.137a3.879,3.879,0,0,1-.455.109,2.371,2.371,0,0,1-.426.043"/><path class="cls-1" d="M127.888,2.208H126.1V.388h1.792Zm-.039,11.876h-1.7v-9.8h1.7Z"/><path class="cls-1" d="M133.45,14.273a3.963,3.963,0,0,1-1.677-.336,2.654,2.654,0,0,1-1.143-.971,2.767,2.767,0,0,1-.412-1.536A2.76,2.76,0,0,1,131.355,9,6.768,6.768,0,0,1,135,8.151l1.754-.047V7.336a1.9,1.9,0,0,0-.541-1.426,2.323,2.323,0,0,0-1.677-.527,2.867,2.867,0,0,0-1.484.4,1.857,1.857,0,0,0-.828,1.269h-1.547a2.818,2.818,0,0,1,1.893-2.615,5.58,5.58,0,0,1,2.051-.342,5.471,5.471,0,0,1,2.128.361,2.631,2.631,0,0,1,1.27,1.061,3.3,3.3,0,0,1,.422,1.725v6.843h-1.5l-.122-1.839a3.352,3.352,0,0,1-1.446,1.588,4.234,4.234,0,0,1-1.929.44m.531-1.26a2.813,2.813,0,0,0,.98-.18,3.5,3.5,0,0,0,.9-.488,2.621,2.621,0,0,0,.648-.692,1.533,1.533,0,0,0,.252-.791V9.184l-1.46.028a7.621,7.621,0,0,0-1.871.228,2.189,2.189,0,0,0-1.129.654,1.755,1.755,0,0,0-.374,1.166,1.563,1.563,0,0,0,.573,1.288,2.281,2.281,0,0,0,1.484.465"/><path class="cls-1" d="M141.022,14.084v-9.8h1.7V5.706a2.948,2.948,0,0,1,.659-.768A3.258,3.258,0,0,1,144.4,4.36a4.073,4.073,0,0,1,1.388-.218,3.955,3.955,0,0,1,1.711.369,2.876,2.876,0,0,1,1.252,1.152,3.879,3.879,0,0,1,.468,2.014v6.407h-1.754V7.847a2.21,2.21,0,0,0-.6-1.7,2.216,2.216,0,0,0-1.559-.554,3.563,3.563,0,0,0-1.243.213,2.177,2.177,0,0,0-.938.644,1.639,1.639,0,0,0-.36,1.086v6.549Z"/><polygon class="cls-1" points="71.845 18.002 73.599 18.002 73.599 31.707 72.035 31.707 64.68 20.902 64.68 31.707 62.926 31.707 62.926 18.002 64.604 18.002 71.845 28.656 71.845 18.002"/><path class="cls-1" d="M79.313,31.9a3.958,3.958,0,0,1-1.676-.337,2.644,2.644,0,0,1-1.143-.972,3.125,3.125,0,0,1,.725-3.962,6.776,6.776,0,0,1,3.648-.853l1.755-.047v-.768a1.9,1.9,0,0,0-.541-1.426,2.324,2.324,0,0,0-1.677-.526,2.861,2.861,0,0,0-1.484.4,1.858,1.858,0,0,0-.829,1.27H76.546a2.817,2.817,0,0,1,1.89-2.616,5.616,5.616,0,0,1,2.053-.341,5.46,5.46,0,0,1,2.127.36,2.625,2.625,0,0,1,1.271,1.062,3.29,3.29,0,0,1,.422,1.724v6.844h-1.5l-.122-1.839a3.366,3.366,0,0,1-1.446,1.588,4.248,4.248,0,0,1-1.93.441m.532-1.261a2.813,2.813,0,0,0,.98-.18,3.519,3.519,0,0,0,.9-.488,2.65,2.65,0,0,0,.65-.693,1.548,1.548,0,0,0,.251-.791V26.807l-1.46.028a7.7,7.7,0,0,0-1.872.227,2.184,2.184,0,0,0-1.128.655,1.75,1.75,0,0,0-.374,1.166,1.563,1.563,0,0,0,.574,1.288,2.276,2.276,0,0,0,1.483.465"/><path class="cls-1" d="M91.445,23.186H89.236V29.28a2,2,0,0,0,.109.764.53.53,0,0,0,.37.307,3.043,3.043,0,0,0,.715.067H91.5v1.175a2.735,2.735,0,0,1-.545.114,7.158,7.158,0,0,1-.906.047,3.629,3.629,0,0,1-1.573-.275,1.549,1.549,0,0,1-.782-.815,3.5,3.5,0,0,1-.222-1.327V23.186H85.882v-1.28h1.64l.425-2.852h1.289V21.9h2.209Z"/><path class="cls-1" d="M95.71,19.831H93.918v-1.82H95.71Zm-.038,11.876h-1.7v-9.8h1.7Z"/><path class="cls-1" d="M102.458,31.9a4.678,4.678,0,0,1-2.37-.583A3.922,3.922,0,0,1,98.515,29.6a6.16,6.16,0,0,1-.559-2.758,6.488,6.488,0,0,1,.521-2.692,4.028,4.028,0,0,1,1.531-1.8,4.989,4.989,0,0,1,4.8-.047,3.928,3.928,0,0,1,1.55,1.739,6.423,6.423,0,0,1,.55,2.8,6.415,6.415,0,0,1-.507,2.635,4,4,0,0,1-1.5,1.778,4.427,4.427,0,0,1-2.449.639m0-1.384a2.436,2.436,0,0,0,1.487-.446,2.7,2.7,0,0,0,.919-1.279,5.628,5.628,0,0,0,.315-1.981,6.035,6.035,0,0,0-.276-1.891,2.8,2.8,0,0,0-.877-1.332,2.4,2.4,0,0,0-1.568-.492,2.519,2.519,0,0,0-1.507.44,2.694,2.694,0,0,0-.934,1.275,5.644,5.644,0,0,0-.317,2,5.842,5.842,0,0,0,.284,1.877,2.833,2.833,0,0,0,.892,1.336,2.425,2.425,0,0,0,1.582.493"/><path class="cls-1" d="M109.026,31.707v-9.8h1.7v1.421a3,3,0,0,1,.659-.767,3.279,3.279,0,0,1,1.023-.579,4.073,4.073,0,0,1,1.388-.218,3.956,3.956,0,0,1,1.711.37,2.876,2.876,0,0,1,1.252,1.152,3.876,3.876,0,0,1,.468,2.014v6.407h-1.753V25.47a2.01,2.01,0,0,0-2.16-2.255,3.571,3.571,0,0,0-1.243.213,2.177,2.177,0,0,0-.938.644,1.633,1.633,0,0,0-.359,1.086v6.549Z"/><path class="cls-1" d="M122.457,31.9a3.971,3.971,0,0,1-1.678-.337,2.641,2.641,0,0,1-1.142-.972,3.121,3.121,0,0,1,.725-3.962,6.773,6.773,0,0,1,3.648-.853l1.754-.047v-.768a1.9,1.9,0,0,0-.54-1.426,2.327,2.327,0,0,0-1.678-.526,2.86,2.86,0,0,0-1.483.4,1.855,1.855,0,0,0-.829,1.27h-1.545a2.813,2.813,0,0,1,1.891-2.616,5.605,5.605,0,0,1,2.051-.341,5.474,5.474,0,0,1,2.129.36,2.625,2.625,0,0,1,1.269,1.062,3.28,3.28,0,0,1,.422,1.724v6.844h-1.5l-.122-1.839a3.347,3.347,0,0,1-1.446,1.588,4.246,4.246,0,0,1-1.928.441m.53-1.261a2.814,2.814,0,0,0,.981-.18,3.519,3.519,0,0,0,.9-.488,2.612,2.612,0,0,0,.649-.693,1.529,1.529,0,0,0,.251-.791V26.807l-1.46.028a7.694,7.694,0,0,0-1.871.227,2.176,2.176,0,0,0-1.128.655,1.75,1.75,0,0,0-.375,1.166,1.566,1.566,0,0,0,.574,1.288,2.28,2.28,0,0,0,1.483.465"/><path class="cls-1" d="M132.579,31.83a3.2,3.2,0,0,1-1.285-.218,1.779,1.779,0,0,1-.749-.588,2.144,2.144,0,0,1-.35-.848,5.346,5.346,0,0,1-.09-.99V17.622h1.725V29.015a1.779,1.779,0,0,0,.289,1.109,1.076,1.076,0,0,0,.81.407l.531.01v1.137a3.778,3.778,0,0,1-.455.109,2.379,2.379,0,0,1-.426.043"/><path class="cls-1" d="M72.945,44.59a6.222,6.222,0,0,1-.522,2.683A3.563,3.563,0,0,1,70.8,48.945a6.211,6.211,0,0,1-2.867.574,6.134,6.134,0,0,1-2.886-.588,3.536,3.536,0,0,1-1.611-1.725,6.857,6.857,0,0,1-.507-2.8V35.624h1.818v9.052a3.373,3.373,0,0,0,.826,2.483,3.192,3.192,0,0,0,2.36.824,3.918,3.918,0,0,0,1.757-.36,2.453,2.453,0,0,0,1.11-1.094,3.993,3.993,0,0,0,.384-1.853V35.624h1.763Z"/><path class="cls-1" d="M75.5,49.33v-9.8h1.7v1.421a3,3,0,0,1,.659-.767,3.28,3.28,0,0,1,1.023-.578,4.055,4.055,0,0,1,1.389-.218,3.951,3.951,0,0,1,1.71.369,2.881,2.881,0,0,1,1.253,1.151,3.885,3.885,0,0,1,.468,2.015V49.33H81.947V43.094a2.011,2.011,0,0,0-2.161-2.256,3.537,3.537,0,0,0-1.241.213,2.17,2.17,0,0,0-.938.645,1.634,1.634,0,0,0-.36,1.085V49.33Z"/><path class="cls-1" d="M88.128,37.454H86.336v-1.82h1.792ZM88.09,49.33h-1.7v-9.8h1.7Z"/><polygon class="cls-1" points="98.638 39.53 95.104 49.33 93.511 49.33 89.966 39.53 91.616 39.53 94.222 47.131 94.383 47.131 96.999 39.53 98.638 39.53"/><path class="cls-1" d="M101.226,44.837a4.413,4.413,0,0,0,.307,1.682,2.549,2.549,0,0,0,2.517,1.645,2.924,2.924,0,0,0,1.616-.437,1.961,1.961,0,0,0,.867-1.26h1.659a3.326,3.326,0,0,1-.8,1.677,3.923,3.923,0,0,1-1.488,1.028,4.891,4.891,0,0,1-1.82.347,4.776,4.776,0,0,1-2.417-.6,4.156,4.156,0,0,1-1.63-1.716,5.682,5.682,0,0,1-.589-2.682,6.482,6.482,0,0,1,.532-2.711,4.163,4.163,0,0,1,1.54-1.819,4.866,4.866,0,0,1,4.772-.057,3.79,3.79,0,0,1,1.455,1.682,6.129,6.129,0,0,1,.5,2.573v.645Zm.009-1.185h5.326a3.892,3.892,0,0,0-.284-1.522,2.37,2.37,0,0,0-.867-1.071,2.564,2.564,0,0,0-1.464-.392,2.5,2.5,0,0,0-1.521.44,2.711,2.711,0,0,0-.9,1.128,3.381,3.381,0,0,0-.289,1.417"/><path class="cls-1" d="M110.457,49.33v-9.8h1.668v1.886a3.147,3.147,0,0,1,.692-1.161,2.879,2.879,0,0,1,1.019-.687,3.194,3.194,0,0,1,1.189-.228,3.317,3.317,0,0,1,.427.028.9.9,0,0,1,.322.1v1.7a1.138,1.138,0,0,0-.365-.09c-.149-.015-.274-.023-.374-.023a4.026,4.026,0,0,0-1.1.07,2.531,2.531,0,0,0-.9.374,1.873,1.873,0,0,0-.611.7,2.257,2.257,0,0,0-.223,1.048V49.33Z"/><path class="cls-1" d="M121.024,49.519a5.54,5.54,0,0,1-1.9-.318,3.382,3.382,0,0,1-1.454-.995,3.327,3.327,0,0,1-.73-1.73h1.592a2.121,2.121,0,0,0,.479.963,2.161,2.161,0,0,0,.867.577,3.226,3.226,0,0,0,1.138.194,3.026,3.026,0,0,0,1.592-.369,1.239,1.239,0,0,0,.606-1.137,1.193,1.193,0,0,0-.318-.868,1.937,1.937,0,0,0-.98-.478l-2.029-.5a4.5,4.5,0,0,1-1.895-.891,2.111,2.111,0,0,1-.711-1.7,2.7,2.7,0,0,1,.408-1.516,2.806,2.806,0,0,1,1.251-1.033,5.01,5.01,0,0,1,2.076-.38,4.266,4.266,0,0,1,2.573.716,2.532,2.532,0,0,1,1.019,2.1h-1.545a1.626,1.626,0,0,0-.631-1.113A2.291,2.291,0,0,0,121,40.628,2.793,2.793,0,0,0,119.47,41a1.277,1.277,0,0,0-.588,1.161.955.955,0,0,0,.416.82,3.637,3.637,0,0,0,1.233.5l1.961.493a3.779,3.779,0,0,1,1.125.474,2.719,2.719,0,0,1,.7.654,2.379,2.379,0,0,1,.369.754,2.8,2.8,0,0,1,.109.753,2.654,2.654,0,0,1-.45,1.55,2.892,2.892,0,0,1-1.289,1,5.2,5.2,0,0,1-2.033.356"/><path class="cls-1" d="M128.986,37.454H127.2v-1.82h1.791Zm-.037,11.876h-1.7v-9.8h1.7Z"/><path class="cls-1" d="M136.758,40.809h-2.209v6.1a1.971,1.971,0,0,0,.11.763.53.53,0,0,0,.369.308,3.11,3.11,0,0,0,.716.066h1.07v1.175a2.722,2.722,0,0,1-.544.114,7.158,7.158,0,0,1-.906.047,3.649,3.649,0,0,1-1.573-.274,1.551,1.551,0,0,1-.782-.816,3.494,3.494,0,0,1-.222-1.326V40.809H131.2V39.53h1.64l.425-2.853h1.289V39.52h2.209Z"/><path class="cls-1" d="M140.122,52.457a4.221,4.221,0,0,1-1.507-.246V51.074l1,.018a3.166,3.166,0,0,0,.91-.076,1.664,1.664,0,0,0,.579-.255,1.261,1.261,0,0,0,.336-.36,3.187,3.187,0,0,0,.194-.38l.341-.928-3.828-9.563h1.771l2.891,7.563,2.872-7.563h1.716l-4.133,10.539a4.968,4.968,0,0,1-.848,1.45,2.592,2.592,0,0,1-1.043.73,3.616,3.616,0,0,1-1.246.208"/><path class="cls-2" d="M40.706,1.41c.087,1.848.358,8.231.358,16.041,0,9.515-.623,14.589-2.3,18.719a13.137,13.137,0,0,1-3.331,4.9,33.685,33.685,0,0,1-6.129,4.233,34.183,34.183,0,0,1-5.621,2.762,7.728,7.728,0,0,1-2.678.527,7.725,7.725,0,0,1-2.678-.527,34.186,34.186,0,0,1-5.622-2.762,33.669,33.669,0,0,1-6.128-4.233,13.123,13.123,0,0,1-3.33-4.9c-1.677-4.13-2.3-9.2-2.3-18.719,0-7.806.271-14.181.358-16.036l39.4-.005M.848.461a.475.475,0,0,0-.314.1.44.44,0,0,0-.15.308C.38.946,0,8.176,0,17.451,0,27.1.643,32.272,2.371,36.527c1.752,4.318,4.458,6.45,9.858,9.6,5.171,3.011,7.334,3.418,8.777,3.418s3.606-.407,8.775-3.418c5.4-3.147,8.107-5.279,9.861-9.6,1.727-4.255,2.369-9.425,2.369-19.076,0-9.275-.38-16.5-.383-16.577a.433.433,0,0,0-.151-.308.474.474,0,0,0-.32-.1Z"/><polygon class="cls-2" points="33.147 12.141 32.693 10.872 32.244 12.12 30.903 12.173 31.968 12.997 31.588 14.277 32.689 13.518 33.8 14.277 33.419 12.983 34.483 12.173 33.147 12.141"/><polygon class="cls-2" points="31.579 19.338 32.597 20.278 32.496 18.896 33.866 18.687 32.723 17.904 33.413 16.702 32.088 17.108 31.579 15.819 31.07 17.108 29.745 16.702 30.436 17.904 29.292 18.687 30.662 18.896 30.561 20.278 31.579 19.338"/><polygon class="cls-2" points="37.106 11.735 38.124 12.675 38.023 11.293 39.393 11.084 38.25 10.301 38.94 9.099 37.615 9.505 37.106 8.216 36.597 9.505 35.272 9.099 35.963 10.301 34.819 11.084 36.189 11.293 36.088 12.675 37.106 11.735"/><polygon class="cls-2" points="32.161 6.551 33.179 7.491 33.078 6.109 34.448 5.9 33.305 5.117 33.995 3.915 32.67 4.321 32.161 3.032 31.652 4.321 30.327 3.915 31.018 5.117 29.874 5.9 31.244 6.109 31.143 7.491 32.161 6.551"/><polygon class="cls-2" points="26.32 11.043 27.338 11.984 27.237 10.601 28.607 10.392 27.464 9.609 28.154 8.408 26.829 8.813 26.32 7.524 25.811 8.813 24.486 8.408 25.177 9.609 24.033 10.392 25.403 10.601 25.302 11.984 26.32 11.043"/><path class="cls-2" d="M31.63,22.626c-5.6-2.68-9.371-4.581-10.729-4.581s-4.907,1.9-10.511,4.581-7.518,3.255-7.518,4.427,1.376.615,1.794.489S19.385,22.79,20.9,22.79s16.034,4.627,16.453,4.752,1.794.684,1.794-.489-1.914-1.746-7.518-4.427"/><path class="cls-2" d="M34.851,31.386c-2.43.816-4.36,2.594-7.052,2.087-2.36-.444-4.319-2.482-6.8-2.451-2.713.035-4.761,2.371-7.423,2.593-2.617.219-4.653-1.9-7.092-2.4a5.507,5.507,0,0,0-2.991.242,24.96,24.96,0,0,0,.653,2.531,5.26,5.26,0,0,1,2.338-.051c2.439.5,4.475,2.614,7.092,2.4,2.662-.222,4.71-2.558,7.423-2.593,2.478-.031,4.437,2.007,6.8,2.451,2.692.507,4.622-1.271,7.052-2.087a5.14,5.14,0,0,1,2.98-.1,25,25,0,0,0,.652-2.526,5.354,5.354,0,0,0-3.632-.093"/><path class="cls-2" d="M34.851,36.831c-2.43.816-4.36,2.593-7.052,2.087-2.36-.444-4.319-2.483-6.8-2.451-2.713.034-4.761,2.371-7.423,2.593-2.617.219-4.653-1.9-7.092-2.4a5.181,5.181,0,0,0-1.322-.1A11.468,11.468,0,0,0,7.247,39.5a.3.3,0,0,0,.087.065c.275.132,1.691.819,2.4,1.174a7.271,7.271,0,0,0,3.847,1.045c2.662-.222,4.71-2.559,7.423-2.593,2.478-.031,4.437,2.007,6.8,2.451a6.891,6.891,0,0,0,4.4-.905c.71-.341,2.227-1.094,2.511-1.235a.3.3,0,0,0,.086-.065,11.735,11.735,0,0,0,2.021-2.869,5.066,5.066,0,0,0-1.967.265"/><path class="cls-2" d="M14.318,44.388c1.083.61,2.044,1.107,2.9,1.5A8.489,8.489,0,0,1,21,44.633a8.1,8.1,0,0,1,3.805,1.235c.863-.4,1.834-.9,2.927-1.52C25.4,43.879,23.458,41.88,21,41.911s-4.368,1.95-6.684,2.477"/><path class="cls-2" d="M29.77,28.022c-2.872-.877-4.835-1.45-6.177-1.824-1.277-.356-1.874-.491-2.269-.591-.117-.03-.314-.067-.381-.079-.088.016-.209.041-.374.079-.331.076-.841.2-1.625.42-1.33.366-3.449.986-6.822,2.031-1.082.336-2.294.715-3.65,1.144,1.656.789,3.244,1.849,5.136,1.691,2.662-.222,4.71-2.558,7.423-2.593,2.478-.031,4.437,2.007,6.8,2.451,2.193.413,3.88-.69,5.744-1.555-1.418-.442-2.679-.831-3.8-1.174"/></g></g></svg>