<svg width="290" height="47" viewBox="0 0 290 47" fill="none" xmlns="http://www.w3.org/2000/svg">
<g clip-path="url(#clip0_310_3179)">
<path d="M273.374 22.9555C273.365 23.5455 273.379 24.199 273.425 24.9297H273.411C273.194 24.2262 272.917 23.5591 272.691 23.0689L271.144 19.6832H268.752L268.544 23.1915C268.512 23.7951 268.544 24.3851 268.585 25.0023H268.572C268.392 24.3624 268.17 23.6952 267.934 23.1506L266.447 19.6787H263.926L267.699 28.1701H270.4L270.502 24.8979C270.52 24.2308 270.502 23.5636 270.405 22.8238H270.419C270.668 23.6271 270.922 24.3714 271.185 24.9887L272.539 28.1701H275.43L275.831 19.6787H273.439L273.374 22.9509V22.9555Z" fill="#ede3da"/>
<path d="M285.483 25.17C281.706 22.4515 280.297 17.4502 282.038 15.9752C272.89 10.5336 269.024 14.9313 262.25 14.0146C259.165 13.597 258.426 11.2325 250.949 11.7771L250.921 11.7544C251.222 11.4957 251.448 10.7877 251.397 10.2114C251.277 8.81353 250.026 7.71069 248.608 7.68346C247.264 7.66077 246.169 8.73637 246.252 10.2114C246.299 11.0464 246.751 11.9814 247.924 12.4987C248.067 12.5623 254.339 38.032 255.032 40.0561H256.883L248.848 11.3777L248.806 11.346C248.215 11.2915 247.716 10.8059 247.666 10.2159C247.61 9.5896 248.086 9.08129 248.723 9.08129C249.361 9.08129 249.924 9.5896 249.979 10.2159C250.016 10.6561 249.795 11.0419 249.434 11.228L249.425 11.287L258.527 40.0606H260.555C259.419 36.7067 254.81 23.4817 252.408 16.3746L252.432 16.3428C254.408 19.1748 255.789 21.6482 257.484 25.8553C258.334 27.9884 259.493 32.3135 260.486 35.141L260.91 34.7007C261.834 33.8294 263.584 33.2031 265.108 33.4754C266.586 33.5571 266.443 34.61 269.172 35.1364C272.562 35.7945 274.589 33.7658 278.302 33.3574C284.417 32.6857 289.871 35.1364 289.995 35.1092C290.014 35.0684 289.626 28.1654 285.479 25.1746L285.483 25.17ZM277.688 31.8098C273.573 32.368 272.576 33.7931 269.833 33.5934C267.805 33.4481 267.45 32.0685 265.773 31.7054C264.619 31.4558 262.942 31.4694 261.285 32.2545C258.213 19.1793 252.201 13.4064 252.201 13.4064C257.304 12.4624 258.292 15.2309 263.178 15.5349C269.56 15.9298 272.899 12.7801 279.845 16.429C278.644 18.9206 281.369 23.8584 283.548 25.3425C287.603 28.0973 288.167 32.9126 288.153 32.9444C288.06 32.9625 283.29 31.0564 277.683 31.8143L277.688 31.8098Z" fill="#ede3da"/>
<path d="M233.063 0H231.678V47H233.063V0Z" fill="#ede3da"/>
<path d="M3.79148 24.8975H0V22.6646H10.2245V24.8975H6.43305V35.0318H3.78686V24.8975H3.79148Z" fill="#ede3da"/>
<path d="M13.628 35.3087C12.1456 35.3087 11.0003 34.8912 10.1921 34.0607C9.38393 33.2301 8.97754 32.0411 8.97754 30.4935C8.97754 29.7537 9.08376 29.0866 9.30543 28.492C9.52248 27.8975 9.83651 27.3937 10.2383 26.9853C10.6401 26.5768 11.1342 26.2591 11.7115 26.0413C12.2887 25.8234 12.926 25.71 13.6326 25.71C14.3392 25.71 14.995 25.8189 15.5722 26.0413C16.1495 26.2591 16.639 26.5768 17.0454 26.9853C17.4518 27.3937 17.7612 27.8975 17.969 28.492C18.1815 29.0866 18.2877 29.7537 18.2877 30.4935C18.2877 31.2332 18.1769 31.9185 17.9598 32.5131C17.7427 33.1076 17.4287 33.6114 17.0269 34.0289C16.6205 34.4464 16.131 34.7641 15.5538 34.982C14.9765 35.1998 14.3392 35.3087 13.6326 35.3087H13.628ZM13.628 33.3708C14.3346 33.3708 14.861 33.1212 15.2074 32.6265C15.5538 32.1318 15.7292 31.4193 15.7292 30.4935C15.7292 29.5676 15.5538 28.8642 15.2074 28.3786C14.861 27.8929 14.3346 27.6524 13.628 27.6524C12.9214 27.6524 12.395 27.8929 12.0486 28.3786C11.7022 28.8642 11.5267 29.5676 11.5267 30.4935C11.5267 31.4193 11.6976 32.1409 12.0394 32.6311C12.3811 33.1212 12.9076 33.3663 13.628 33.3663V33.3708Z" fill="#ede3da"/>
<path d="M19.9736 25.9912H22.3704V27.203C22.7122 26.6947 23.1093 26.318 23.5712 26.0774C24.0283 25.8369 24.5133 25.7144 25.0166 25.7144C25.6863 25.7144 26.2312 25.846 26.6561 26.1137C27.0809 26.3815 27.3811 26.7673 27.5566 27.2756C27.9815 26.7219 28.4248 26.3225 28.8959 26.082C29.3669 25.8414 29.8841 25.7189 30.4475 25.7189C31.3989 25.7189 32.1147 25.9776 32.5904 26.4904C33.066 27.0033 33.3062 27.8383 33.3062 28.9956V35.0408H30.8401V29.3224C30.8401 29.0002 30.8124 28.737 30.7523 28.5327C30.6923 28.3285 30.6138 28.1742 30.5122 28.0562C30.4106 27.9427 30.2905 27.861 30.152 27.8156C30.0134 27.7703 29.8657 27.7476 29.7133 27.7476C29.4685 27.7476 29.2422 27.7884 29.0344 27.8701C28.8266 27.9518 28.628 28.088 28.4248 28.2876C28.2586 28.451 28.1292 28.6326 28.0276 28.8413C27.926 29.0501 27.8799 29.2679 27.8799 29.4994V35.0454H25.4138V29.3269C25.4138 29.0047 25.3861 28.7415 25.326 28.5373C25.266 28.333 25.1875 28.1787 25.0859 28.0607C24.9843 27.9473 24.8642 27.8656 24.7257 27.8202C24.5825 27.7748 24.4394 27.7521 24.287 27.7521C24.0422 27.7521 23.8159 27.793 23.6081 27.8746C23.4003 27.9563 23.2017 28.0925 22.9985 28.2922C22.8323 28.4556 22.7029 28.6462 22.6013 28.8731C22.4997 29.1 22.4536 29.3451 22.4536 29.6083V35.0499H19.9875V26.0048L19.9736 25.9912Z" fill="#ede3da"/>
<path d="M38.0576 22.6646H41.0178L43.0452 31.2558L45.1095 22.7326H47.8942L50.0463 31.2558L51.9489 22.6646H54.7706L51.3486 35.0318H48.7948L46.4488 25.8868L44.1766 35.0318H41.6921L38.0622 22.6646H38.0576Z" fill="#ede3da"/>
<path d="M55.8467 22.6646H58.3867V24.8475H55.8467V22.6646ZM55.879 25.9912H58.3451V35.0363H55.879V25.9912Z" fill="#ede3da"/>
<path d="M60.3955 22.6646H62.8616V35.0318H60.3955V22.6646Z" fill="#ede3da"/>
<path d="M64.8896 22.6646H67.3557V27.1349C67.7206 26.6493 68.1408 26.2908 68.6257 26.0593C69.106 25.8278 69.614 25.7144 70.1405 25.7144C71.1842 25.7144 71.96 25.9821 72.468 26.5222C72.9714 27.0578 73.2254 27.9064 73.2254 29.0592V35.0363H70.7593V29.3905C70.7593 28.7551 70.6346 28.324 70.3898 28.0925C70.1451 27.8611 69.8126 27.7476 69.4016 27.7476C69.0829 27.7476 68.8104 27.793 68.5842 27.8883C68.3532 27.9791 68.1408 28.1152 67.9422 28.2877C67.776 28.4511 67.6374 28.6417 67.5266 28.8686C67.4158 29.0955 67.3603 29.3406 67.3603 29.6038V35.0454H64.8943V22.6782L64.8896 22.6646Z" fill="#ede3da"/>
<path d="M83.5742 32.209C83.4079 33.2256 82.9969 33.9971 82.3319 34.5236C81.6669 35.0501 80.7017 35.3133 79.4317 35.3133C77.9031 35.3133 76.7532 34.8957 75.9866 34.0652C75.2153 33.2347 74.832 32.0547 74.832 30.5298C74.832 29.7673 74.9429 29.0911 75.1692 28.492C75.3908 27.8975 75.7049 27.3937 76.1113 26.9762C76.5177 26.5586 77.0026 26.2455 77.566 26.0322C78.1294 25.8189 78.7528 25.71 79.4363 25.71C80.8448 25.71 81.907 26.1093 82.6182 26.9036C83.3294 27.7023 83.685 28.7734 83.685 30.1259V31.0971H77.3027C77.3258 31.8232 77.5152 32.3951 77.8661 32.8035C78.2171 33.212 78.7482 33.4162 79.4548 33.4162C80.4292 33.4162 81.0065 33.0123 81.182 32.2045H83.5788L83.5742 32.209ZM81.302 29.5086C81.302 28.8869 81.145 28.4013 80.8356 28.0518C80.5262 27.7069 80.0413 27.5344 79.3809 27.5344C79.053 27.5344 78.7621 27.5843 78.5173 27.6887C78.2725 27.7931 78.0601 27.9338 77.8939 28.1153C77.7276 28.2969 77.5891 28.5011 77.4967 28.7371C77.4043 28.9731 77.3489 29.2318 77.3397 29.5086H81.3066H81.302Z" fill="#ede3da"/>
<path d="M85.3711 22.6646H87.8372V35.0318H85.3711V22.6646Z" fill="#ede3da"/>
<path d="M89.8691 25.9912H92.2659V27.203C92.6077 26.6947 93.0048 26.318 93.4667 26.0774C93.9239 25.8369 94.4088 25.7144 94.9121 25.7144C95.5818 25.7144 96.1267 25.846 96.5516 26.1137C96.9764 26.3815 97.2766 26.7673 97.4521 27.2756C97.877 26.7219 98.3203 26.3225 98.7914 26.082C99.2624 25.8414 99.7796 25.7189 100.343 25.7189C101.294 25.7189 102.01 25.9776 102.486 26.4904C102.962 27.0033 103.202 27.8383 103.202 28.9956V35.0408H100.736V29.3224C100.736 29.0002 100.708 28.737 100.648 28.5327C100.588 28.3285 100.509 28.1742 100.408 28.0562C100.306 27.9427 100.186 27.861 100.047 27.8156C99.9089 27.7703 99.7612 27.7476 99.6088 27.7476C99.3594 27.7476 99.1331 27.7884 98.9299 27.8701C98.7267 27.9518 98.5235 28.088 98.3203 28.2876C98.1541 28.451 98.0247 28.6326 97.9232 28.8413C97.8216 29.0501 97.7754 29.2679 97.7754 29.4994V35.0454H95.3093V29.3269C95.3093 29.0047 95.2816 28.7415 95.2215 28.5373C95.1615 28.333 95.083 28.1787 94.9814 28.0607C94.8798 27.9473 94.7597 27.8656 94.6212 27.8202C94.478 27.7748 94.3349 27.7521 94.1825 27.7521C93.9377 27.7521 93.7068 27.793 93.5036 27.8746C93.2958 27.9563 93.0926 28.0925 92.894 28.2922C92.7278 28.4556 92.5984 28.6462 92.4968 28.8731C92.3953 29.1 92.3491 29.3451 92.3491 29.6083V35.0499H89.883V26.0048L89.8691 25.9912Z" fill="#ede3da"/>
<path d="M106.896 32.1589C106.979 32.6899 107.196 33.0348 107.547 33.1982C107.898 33.3616 108.323 33.4387 108.817 33.4387C109.404 33.4387 109.824 33.3661 110.078 33.2209C110.332 33.0756 110.457 32.8442 110.457 32.5174C110.457 32.2859 110.378 32.0863 110.217 31.9093C110.055 31.7323 109.755 31.6143 109.307 31.5462L108.037 31.3374C106.919 31.165 106.088 30.8654 105.543 30.4433C104.998 30.0213 104.726 29.3814 104.726 28.5281C104.726 28.0879 104.823 27.6976 105.017 27.3481C105.211 27.0032 105.483 26.7082 105.839 26.4631C106.19 26.2226 106.61 26.032 107.099 25.9004C107.589 25.7688 108.125 25.7007 108.711 25.7007C109.441 25.7007 110.05 25.7733 110.544 25.9185C111.039 26.0638 111.44 26.2544 111.75 26.4994C112.059 26.74 112.295 27.0304 112.456 27.3663C112.613 27.7021 112.729 28.0607 112.798 28.4419L110.595 28.7187C110.489 28.3012 110.304 27.9971 110.041 27.802C109.778 27.6068 109.348 27.507 108.762 27.507C108.434 27.507 108.162 27.5342 107.94 27.5841C107.723 27.6341 107.552 27.7021 107.427 27.7838C107.303 27.8655 107.215 27.9563 107.164 28.0607C107.113 28.1651 107.086 28.2649 107.086 28.3557C107.086 28.6461 107.178 28.8549 107.358 28.9865C107.538 29.1181 107.898 29.2316 108.425 29.3224L109.589 29.513C110.235 29.6173 110.771 29.749 111.191 29.9123C111.616 30.0757 111.953 30.2754 112.202 30.5114C112.456 30.7474 112.632 31.0288 112.733 31.351C112.835 31.6733 112.881 32.0499 112.881 32.4766C112.881 33.3298 112.553 34.0151 111.893 34.5279C111.233 35.0408 110.217 35.2995 108.845 35.2995C108.291 35.2995 107.764 35.2495 107.266 35.1542C106.767 35.0544 106.319 34.8865 105.926 34.6414C105.534 34.3963 105.211 34.0741 104.957 33.6702C104.703 33.2663 104.559 32.7579 104.522 32.1453H106.887L106.896 32.1589Z" fill="#ede3da"/>
<path d="M122.657 32.209C122.491 33.2256 122.08 33.9971 121.415 34.5236C120.75 35.0501 119.785 35.3133 118.515 35.3133C116.986 35.3133 115.836 34.8957 115.07 34.0652C114.298 33.2347 113.915 32.0547 113.915 30.5298C113.915 29.7673 114.026 29.0911 114.248 28.492C114.469 27.8975 114.788 27.3937 115.19 26.9762C115.596 26.5586 116.081 26.2455 116.644 26.0322C117.208 25.8189 117.831 25.71 118.515 25.71C119.923 25.71 120.985 26.1093 121.697 26.9036C122.408 27.7023 122.763 28.7734 122.763 30.1259V31.0971H116.381C116.404 31.8232 116.594 32.3951 116.945 32.8035C117.296 33.212 117.827 33.4162 118.533 33.4162C119.508 33.4162 120.085 33.0123 120.26 32.2045H122.657V32.209ZM120.38 29.5086C120.38 28.8869 120.223 28.4013 119.914 28.0518C119.605 27.7069 119.12 27.5344 118.459 27.5344C118.131 27.5344 117.84 27.5843 117.596 27.6887C117.346 27.7931 117.138 27.9338 116.968 28.1153C116.797 28.2923 116.663 28.5011 116.57 28.7371C116.478 28.9731 116.423 29.2318 116.413 29.5086H120.38Z" fill="#ede3da"/>
<path d="M124.436 25.9912H126.832V27.2393C127.197 26.7083 127.627 26.3225 128.13 26.0774C128.629 25.8369 129.151 25.7144 129.691 25.7144C130.735 25.7144 131.511 25.9821 132.019 26.5222C132.522 27.0577 132.776 27.9064 132.776 29.0592V35.0363H130.31V29.3905C130.31 28.7551 130.185 28.324 129.94 28.0925C129.696 27.861 129.363 27.7476 128.952 27.7476C128.633 27.7476 128.361 27.793 128.13 27.8883C127.899 27.979 127.687 28.1152 127.488 28.2876C127.322 28.451 127.183 28.6416 127.072 28.8686C126.962 29.0955 126.906 29.3406 126.906 29.6038V35.0454H124.44V26.0003L124.436 25.9912Z" fill="#ede3da"/>
<path d="M136.475 32.1589C136.558 32.6899 136.775 33.0348 137.126 33.1982C137.477 33.3616 137.902 33.4387 138.396 33.4387C138.983 33.4387 139.403 33.3661 139.657 33.2209C139.911 33.0756 140.036 32.8442 140.036 32.5174C140.036 32.2859 139.957 32.0863 139.795 31.9093C139.634 31.7323 139.334 31.6143 138.886 31.5462L137.616 31.3374C136.498 31.165 135.667 30.8654 135.122 30.4433C134.577 30.0213 134.305 29.3814 134.305 28.5281C134.305 28.0879 134.401 27.6976 134.595 27.3481C134.789 27.0032 135.062 26.7082 135.413 26.4631C135.764 26.2226 136.184 26.032 136.674 25.9004C137.163 25.7688 137.699 25.7007 138.285 25.7007C139.015 25.7007 139.625 25.7733 140.119 25.9185C140.613 26.0638 141.015 26.2544 141.324 26.4994C141.633 26.74 141.869 27.0304 142.031 27.3663C142.188 27.7021 142.303 28.0607 142.372 28.4419L140.17 28.7187C140.063 28.3012 139.879 27.9971 139.615 27.802C139.352 27.6068 138.923 27.507 138.336 27.507C138.008 27.507 137.736 27.5342 137.514 27.5841C137.292 27.6341 137.126 27.7021 137.001 27.7838C136.877 27.8655 136.789 27.9563 136.738 28.0607C136.687 28.1651 136.66 28.2649 136.66 28.3557C136.66 28.6461 136.752 28.8549 136.932 28.9865C137.112 29.1181 137.468 29.2316 137.999 29.3224L139.163 29.513C139.809 29.6173 140.345 29.749 140.765 29.9123C141.19 30.0757 141.527 30.2754 141.781 30.5114C142.035 30.7474 142.211 31.0288 142.308 31.351C142.409 31.6733 142.455 32.0499 142.455 32.4766C142.455 33.3298 142.128 34.0151 141.467 34.5279C140.807 35.0408 139.791 35.2995 138.419 35.2995C137.865 35.2995 137.339 35.2495 136.84 35.1542C136.341 35.0544 135.893 34.8865 135.501 34.6414C135.108 34.3963 134.785 34.0741 134.531 33.6702C134.277 33.2663 134.134 32.7579 134.097 32.1453H136.461L136.475 32.1589Z" fill="#ede3da"/>
<path d="M149.803 30.9973C149.863 31.7597 150.112 32.3134 150.551 32.6583C150.99 33.0033 151.641 33.1803 152.5 33.1803C152.911 33.1803 153.257 33.1349 153.539 33.0486C153.821 32.9624 154.052 32.8444 154.227 32.7037C154.403 32.5585 154.532 32.3906 154.606 32.1909C154.684 31.9957 154.721 31.7824 154.721 31.551C154.721 31.2287 154.597 30.9247 154.352 30.6433C154.103 30.3619 153.65 30.1531 152.994 30.0306L151.355 29.7356C150.708 29.6221 150.14 29.4724 149.646 29.2863C149.152 29.1002 148.736 28.8597 148.404 28.5692C148.067 28.2742 147.813 27.9157 147.637 27.4845C147.462 27.0579 147.374 26.5496 147.374 25.9596C147.374 25.3696 147.494 24.8522 147.734 24.3984C147.974 23.9491 148.311 23.5724 148.741 23.2729C149.17 22.9733 149.683 22.7464 150.283 22.5876C150.884 22.4333 151.539 22.3516 152.255 22.3516C153.17 22.3516 153.936 22.4559 154.546 22.6647C155.155 22.8735 155.65 23.1458 156.028 23.4862C156.402 23.8266 156.684 24.2214 156.864 24.6707C157.044 25.12 157.169 25.5875 157.224 26.0731L154.74 26.3862C154.611 25.7055 154.361 25.2153 153.992 24.9158C153.622 24.6162 153.059 24.4665 152.306 24.4665C151.858 24.4665 151.493 24.5028 151.202 24.5799C150.916 24.6571 150.681 24.7524 150.505 24.8749C150.33 24.9975 150.205 25.1382 150.136 25.3015C150.066 25.4649 150.029 25.6328 150.029 25.8053C150.029 26.2682 150.163 26.6132 150.427 26.8446C150.69 27.0761 151.142 27.2531 151.775 27.3801L153.502 27.7115C154.865 27.9747 155.862 28.4058 156.499 29.0004C157.137 29.5949 157.451 30.4527 157.451 31.5737C157.451 32.1183 157.349 32.6175 157.141 33.0713C156.933 33.5297 156.629 33.9246 156.222 34.2649C155.816 34.6053 155.308 34.8731 154.698 35.0637C154.089 35.2543 153.368 35.3496 152.546 35.3496C150.828 35.3496 149.517 34.9911 148.607 34.2695C147.697 33.5479 147.208 32.4586 147.134 31.0018H149.794L149.803 30.9973Z" fill="#ede3da"/>
<path d="M159.676 27.8794H158.23V25.9915H159.676V23.5815H162.142V25.9915H164.257V27.8794H162.142V32.0548C162.142 32.5268 162.244 32.849 162.442 33.0169C162.641 33.1849 162.899 33.2666 163.218 33.2666C163.384 33.2666 163.551 33.2575 163.721 33.2393C163.892 33.2212 164.059 33.1894 164.225 33.144L164.576 34.9276C164.234 35.032 163.902 35.1046 163.578 35.1455C163.255 35.1863 162.946 35.2045 162.655 35.2045C161.643 35.2045 160.895 34.9685 160.406 34.4919C159.916 34.0199 159.676 33.2212 159.676 32.1002V27.8749V27.8794Z" fill="#ede3da"/>
<path d="M165.597 22.6646H168.137V24.8475H165.597V22.6646ZM165.634 25.9912H168.1V35.0363H165.634V25.9912Z" fill="#ede3da"/>
<path d="M170.728 27.8793H169.282V25.9913H170.728V25.6963C170.728 25.1426 170.811 24.6615 170.972 24.2576C171.139 23.8537 171.365 23.5224 171.651 23.2682C171.938 23.0141 172.275 22.828 172.667 22.7055C173.055 22.5829 173.48 22.5239 173.937 22.5239C174.233 22.5239 174.538 22.5421 174.861 22.5738C175.184 22.6102 175.517 22.6782 175.858 22.7826L175.526 24.5481C175.152 24.4573 174.792 24.4074 174.45 24.4074C174.131 24.4074 173.845 24.4981 173.586 24.6751C173.328 24.8521 173.198 25.1744 173.198 25.6373V25.9822H175.332V27.8702H173.198V35.0273H170.732V27.8702L170.728 27.8793Z" fill="#ede3da"/>
<path d="M177.461 27.8794H176.016V25.9915H177.461V23.5815H179.927V25.9915H182.042V27.8794H179.927V32.0548C179.927 32.5268 180.029 32.849 180.227 33.0169C180.426 33.1849 180.685 33.2666 181.003 33.2666C181.169 33.2666 181.336 33.2575 181.507 33.2393C181.677 33.2212 181.844 33.1894 182.01 33.144L182.361 34.9276C182.019 35.032 181.687 35.1046 181.363 35.1455C181.04 35.1863 180.731 35.2045 180.44 35.2045C179.428 35.2045 178.68 34.9685 178.191 34.4919C177.701 34.0199 177.461 33.2212 177.461 32.1002V27.8749V27.8794Z" fill="#ede3da"/>
<path d="M191.652 32.209C191.486 33.2256 191.075 33.9971 190.41 34.5236C189.745 35.0501 188.78 35.3133 187.51 35.3133C185.981 35.3133 184.831 34.8957 184.065 34.0652C183.293 33.2347 182.91 32.0547 182.91 30.5298C182.91 29.7673 183.021 29.0911 183.243 28.492C183.464 27.8975 183.783 27.3937 184.185 26.9762C184.591 26.5586 185.076 26.2455 185.639 26.0322C186.203 25.8189 186.826 25.71 187.51 25.71C188.918 25.71 189.981 26.1093 190.692 26.9036C191.403 27.7023 191.758 28.7734 191.758 30.1259V31.0971H185.376C185.399 31.8232 185.589 32.3951 185.94 32.8035C186.291 33.212 186.822 33.4162 187.528 33.4162C188.503 33.4162 189.08 33.0123 189.255 32.2045H191.652V32.209ZM189.38 29.5086C189.38 28.8869 189.223 28.4013 188.914 28.0518C188.604 27.7069 188.119 27.5344 187.459 27.5344C187.131 27.5344 186.84 27.5843 186.595 27.6887C186.346 27.7931 186.138 27.9338 185.967 28.1153C185.796 28.2969 185.663 28.5011 185.57 28.7371C185.478 28.9731 185.422 29.2318 185.413 29.5086H189.38Z" fill="#ede3da"/>
<path d="M193.449 22.6646H195.915V35.0318H193.449V22.6646Z" fill="#ede3da"/>
<path d="M199.725 32.1589C199.808 32.6899 200.025 33.0348 200.376 33.1982C200.727 33.3616 201.152 33.4387 201.646 33.4387C202.233 33.4387 202.653 33.3661 202.907 33.2209C203.161 33.0756 203.286 32.8442 203.286 32.5174C203.286 32.2859 203.207 32.0863 203.045 31.9093C202.884 31.7323 202.584 31.6143 202.136 31.5462L200.866 31.3374C199.748 31.165 198.917 30.8654 198.372 30.4433C197.827 30.0213 197.555 29.3814 197.555 28.5281C197.555 28.0879 197.651 27.6976 197.845 27.3481C198.039 27.0032 198.312 26.7082 198.663 26.4631C199.014 26.2226 199.434 26.032 199.924 25.9004C200.413 25.7688 200.949 25.7007 201.535 25.7007C202.265 25.7007 202.875 25.7733 203.369 25.9185C203.863 26.0638 204.265 26.2544 204.574 26.4994C204.883 26.74 205.119 27.0304 205.281 27.3663C205.438 27.7021 205.553 28.0607 205.622 28.4419L203.42 28.7187C203.313 28.3012 203.129 27.9971 202.865 27.802C202.602 27.6068 202.173 27.507 201.586 27.507C201.258 27.507 200.986 27.5342 200.764 27.5841C200.542 27.6341 200.376 27.7021 200.251 27.7838C200.127 27.8655 200.039 27.9563 199.988 28.0607C199.937 28.1651 199.91 28.2649 199.91 28.3557C199.91 28.6461 200.002 28.8549 200.182 28.9865C200.362 29.1181 200.718 29.2316 201.249 29.3224L202.413 29.513C203.059 29.6173 203.595 29.749 204.015 29.9123C204.44 30.0757 204.777 30.2754 205.031 30.5114C205.285 30.7474 205.461 31.0288 205.558 31.351C205.659 31.6733 205.705 32.0499 205.705 32.4766C205.705 33.3298 205.378 34.0151 204.717 34.5279C204.057 35.0408 203.041 35.2995 201.669 35.2995C201.115 35.2995 200.589 35.2495 200.09 35.1542C199.591 35.0544 199.143 34.8865 198.751 34.6414C198.358 34.3963 198.035 34.0741 197.781 33.6702C197.527 33.2663 197.384 32.7579 197.347 32.1453H199.711L199.725 32.1589Z" fill="#ede3da"/>
<path d="M215.486 32.209C215.32 33.2256 214.909 33.9971 214.244 34.5236C213.579 35.0501 212.614 35.3133 211.344 35.3133C209.815 35.3133 208.665 34.8957 207.899 34.0652C207.127 33.2347 206.744 32.0547 206.744 30.5298C206.744 29.7673 206.855 29.0911 207.077 28.492C207.298 27.8975 207.617 27.3937 208.019 26.9762C208.425 26.5586 208.91 26.2455 209.473 26.0322C210.037 25.8189 210.66 25.71 211.344 25.71C212.752 25.71 213.814 26.1093 214.526 26.9036C215.237 27.7023 215.592 28.7734 215.592 30.1259V31.0971H209.21C209.233 31.8232 209.423 32.3951 209.774 32.8035C210.125 33.212 210.656 33.4162 211.362 33.4162C212.337 33.4162 212.914 33.0123 213.089 32.2045H215.486V32.209ZM213.21 29.5086C213.21 28.8869 213.053 28.4013 212.743 28.0518C212.434 27.7069 211.949 27.5344 211.288 27.5344C210.96 27.5344 210.67 27.5843 210.425 27.6887C210.175 27.7931 209.968 27.9338 209.797 28.1153C209.626 28.2969 209.492 28.5011 209.4 28.7371C209.307 28.9731 209.252 29.2318 209.243 29.5086H213.21Z" fill="#ede3da"/>
<path d="M0.235352 18.2492L0.480112 16.7243H0.798763C0.891126 17.9179 1.45454 18.6032 2.41511 18.6032C3.14477 18.6032 3.76822 18.2356 3.76822 17.4096C3.76822 16.7652 3.38492 16.4384 2.47053 15.9437C1.60232 15.4762 1.18207 14.9634 1.18207 14.1919C1.18207 13.089 2.0318 12.4219 3.17248 12.4219C4.01298 12.4219 4.66414 12.7078 5.12595 13.0845L4.86272 14.4233H4.5533C4.44247 13.4521 4.04069 12.8621 3.16324 12.8621C2.34122 12.8621 1.96715 13.3114 1.96715 13.9922C1.96715 14.5322 2.26733 14.8636 3.01085 15.2493C3.98065 15.7531 4.60872 16.2659 4.60872 17.1464C4.60872 18.4126 3.46804 19.0434 2.39664 19.0434C1.32523 19.0434 0.586329 18.576 0.23997 18.2447L0.235352 18.2492Z" fill="#ede3da"/>
<path d="M7.22767 17.7909C7.19996 17.927 7.18149 18.0677 7.18149 18.1313C7.18149 18.508 7.42625 18.5806 8.02199 18.5987L7.9481 18.9573H5.11719L5.20031 18.5987C5.81453 18.5806 6.17012 18.4898 6.29019 17.927L7.21382 13.6791C7.24153 13.5429 7.26 13.4022 7.26 13.3387C7.26 12.962 7.01524 12.8894 6.4195 12.8712L6.49339 12.5127H9.31968L9.23656 12.8712C8.62235 12.8894 8.26675 12.9802 8.14206 13.5429L7.21844 17.7909H7.22767ZM10.3172 17.8726C10.682 18.4127 10.9222 18.5987 11.5041 18.5987L11.4394 18.9573H10.0771C9.79535 18.7077 9.56444 18.39 9.21808 17.8635L7.79108 15.6805L10.5158 13.4703C10.7005 13.316 10.7975 13.1935 10.8067 13.1118C10.8067 12.9393 10.4604 12.903 10.0863 12.8712L10.1694 12.5127H12.5524L12.4692 12.8712C12.0213 12.8894 11.7211 13.0255 11.3378 13.3387L8.70547 15.4491L10.3218 17.8726H10.3172Z" fill="#ede3da"/>
<path d="M13.9005 17.7909C13.8728 17.927 13.8543 18.0677 13.8543 18.1313C13.8543 18.508 14.0991 18.5806 14.6948 18.5987L14.621 18.9573H11.79L11.8732 18.5987C12.4874 18.5806 12.843 18.4898 12.963 17.927L13.8867 13.6791C13.9144 13.5429 13.9329 13.4022 13.9329 13.3387C13.9329 12.962 13.6881 12.8894 13.0924 12.8712L13.1662 12.5127H15.9925L15.9094 12.8712C15.2952 12.8894 14.9396 12.9802 14.8149 13.5429L13.8913 17.7909H13.9005Z" fill="#ede3da"/>
<path d="M17.4745 17.7455C17.4468 17.8726 17.4191 18.0405 17.4191 18.1131C17.4191 18.5261 17.8301 18.5715 18.5043 18.5987L18.4397 18.9573H15.3594L15.4425 18.5987C16.0567 18.5806 16.4123 18.4898 16.5324 17.927L17.456 13.6791C17.4837 13.5429 17.5022 13.4022 17.5022 13.3387C17.5022 12.962 17.2574 12.8894 16.6617 12.8712L16.7356 12.5127H19.451C20.9427 12.5127 21.5708 13.2661 21.5708 14.2101C21.5708 15.558 20.3192 16.3204 18.5736 16.3204H17.7793L17.4699 17.741L17.4745 17.7455ZM17.867 15.8984H18.5967C19.839 15.8984 20.6333 15.3674 20.6333 14.2101C20.6333 13.4385 20.1668 12.9348 19.1878 12.9348H18.5136L17.8716 15.8984H17.867Z" fill="#ede3da"/>
<path d="M21.5986 18.2492L21.8434 16.7243H22.162C22.2544 17.9179 22.8178 18.6032 23.7784 18.6032C24.5081 18.6032 25.1315 18.2356 25.1315 17.4096C25.1315 16.7652 24.7482 16.4384 23.8338 15.9437C22.9656 15.4762 22.5453 14.9634 22.5453 14.1919C22.5453 13.089 23.3951 12.4219 24.5358 12.4219C25.3763 12.4219 26.0274 12.7078 26.4892 13.0845L26.226 14.4233H25.9166C25.8057 13.4521 25.404 12.8621 24.5265 12.8621C23.7045 12.8621 23.3304 13.3114 23.3304 13.9922C23.3304 14.5322 23.6306 14.8636 24.3741 15.2493C25.3439 15.7531 25.972 16.2659 25.972 17.1464C25.972 18.4126 24.8313 19.0434 23.7599 19.0434C22.6885 19.0434 21.9496 18.576 21.6033 18.2447L21.5986 18.2492Z" fill="#ede3da"/>
<path d="M28.591 17.7909C28.5632 17.927 28.5448 18.0677 28.5448 18.1313C28.5448 18.508 28.7895 18.5806 29.3853 18.5987L29.3114 18.9573H26.4805L26.5636 18.5987C27.1778 18.5806 27.5334 18.4898 27.6535 17.927L28.5771 13.6791C28.6048 13.5429 28.6233 13.4022 28.6233 13.3387C28.6233 12.962 28.3785 12.8894 27.7828 12.8712L27.8567 12.5127H30.489C31.8421 12.5127 32.5256 13.0891 32.5256 14.1011C32.5256 15.2403 31.5558 15.8711 30.295 15.9982L31.3664 17.741C31.7405 18.3355 31.9068 18.5851 32.5533 18.5942L32.4794 18.9527H31.2187C30.9 18.6668 30.7153 18.3491 30.4336 17.868L29.3991 16.0799H28.9512L28.5863 17.7864L28.591 17.7909ZM29.6393 12.9348L29.0528 15.676H29.4915C30.6968 15.676 31.5743 15.2176 31.5743 14.0966C31.5743 13.3886 31.1633 12.9302 30.1196 12.9302H29.6439L29.6393 12.9348Z" fill="#ede3da"/>
<path d="M32.932 18.5987C33.5462 18.5806 33.9018 18.4898 34.0219 17.927L34.9455 13.6791C34.9732 13.5429 34.9917 13.4022 34.9917 13.3387C34.9917 12.962 34.7469 12.8894 34.1512 12.8712L34.2251 12.5127H39.4251L39.088 14.0467H38.834C38.6585 13.2479 38.5708 12.9348 37.8088 12.9348H35.9985L35.4581 15.4491H36.9498C37.37 15.4491 37.601 15.1722 37.818 14.6231H38.1367L37.6887 16.6971H37.37C37.37 16.1389 37.2777 15.8711 36.8574 15.8711H35.3658L34.964 17.75C34.9271 17.9134 34.9178 18.0541 34.9178 18.1086C34.9178 18.449 35.1626 18.5307 35.7491 18.5307H36.4603C37.3008 18.5307 37.6471 18.2629 38.4599 17.3007H38.7324L38.0997 18.9527H32.8535L32.9366 18.5942L32.932 18.5987Z" fill="#ede3da"/>
<path d="M39.1749 18.5987C39.7891 18.5806 40.1447 18.4898 40.2648 17.927L41.1884 13.6791C41.2161 13.5429 41.2346 13.4022 41.2346 13.3387C41.2346 12.962 40.9898 12.8894 40.3941 12.8712L40.468 12.5127H43.0357C45.1646 12.5127 45.9774 13.6791 45.9774 15.1541C45.9774 17.3461 44.1856 18.9527 41.8811 18.9527H39.0918L39.1749 18.5942V18.5987ZM42.246 12.9348L41.2115 17.7319C41.1746 17.8953 41.1653 18.0269 41.1653 18.0904C41.1653 18.458 41.3501 18.5307 41.9319 18.5307H41.9874C43.6129 18.5307 45.003 17.3098 45.003 15.1541C45.003 13.9695 44.5181 12.9348 42.8925 12.9348H42.2506H42.246Z" fill="#ede3da"/>
<path d="M46.1488 18.5987C46.763 18.5806 47.1186 18.4898 47.2387 17.927L48.1623 13.6791C48.19 13.5429 48.2085 13.4022 48.2085 13.3387C48.2085 12.962 47.9637 12.8894 47.368 12.8712L47.4419 12.5127H52.6419L52.3048 14.0467H52.0508C51.8753 13.2479 51.7876 12.9348 51.0256 12.9348H49.2153L48.6749 15.4491H50.1666C50.5868 15.4491 50.8177 15.1722 51.0348 14.6231H51.3534L50.9055 16.6971H50.5868C50.5868 16.1389 50.4945 15.8711 50.0742 15.8711H48.5826L48.1808 17.75C48.1439 17.9134 48.1346 18.0541 48.1346 18.1086C48.1346 18.449 48.3794 18.5307 48.9659 18.5307H49.6771C50.5176 18.5307 50.8639 18.2629 51.6767 17.3007H51.9492L51.3165 18.9527H46.0703L46.1534 18.5942L46.1488 18.5987Z" fill="#ede3da"/>
<path d="M54.4152 17.7909C54.3875 17.927 54.369 18.0677 54.369 18.1313C54.369 18.508 54.6138 18.5806 55.2095 18.5987L55.1356 18.9573H52.3047L52.3878 18.5987C53.002 18.5806 53.3576 18.4898 53.4777 17.927L54.4013 13.6791C54.429 13.5429 54.4475 13.4022 54.4475 13.3387C54.4475 12.962 54.2027 12.8894 53.607 12.8712L53.6809 12.5127H56.3132C57.6663 12.5127 58.3498 13.0891 58.3498 14.1011C58.3498 15.2403 57.38 15.8711 56.1193 15.9982L57.1907 17.741C57.5647 18.3355 57.731 18.5851 58.3775 18.5942L58.3036 18.9527H57.0429C56.7242 18.6668 56.5395 18.3491 56.2578 17.868L55.2233 16.0799H54.7754L54.4106 17.7864L54.4152 17.7909ZM55.4635 12.9348L54.877 15.676H55.3157C56.521 15.676 57.3985 15.2176 57.3985 14.0966C57.3985 13.3886 56.9875 12.9302 55.9438 12.9302H55.4681L55.4635 12.9348Z" fill="#ede3da"/>
</g>
<defs>
<clipPath id="clip0_310_3179">
<rect width="290" height="47" fill="#ede3da"/>
</clipPath>
</defs>
</svg>
