<?xml version="1.0" encoding="UTF-8" standalone="no"?>
<!-- Created with Inkscape (http://www.inkscape.org/) -->

<svg
   version="1.1"
   id="svg1"
   width="377.95334"
   height="377.95334"
   viewBox="0 0 377.95334 377.95334"
   xmlns="http://www.w3.org/2000/svg"
   xmlns:svg="http://www.w3.org/2000/svg">
  <defs
     id="defs1" />
  <g
     id="layer-MC0">
    <path
       id="path1"
       d="m 60.927,155.286 h 45.357 v 9.071 H 60.927 Z"
       style="fill:#ffffff;fill-opacity:1;fill-rule:nonzero;stroke:none"
       transform="matrix(1.3333333,0,0,-1.3333333,0,377.95333)" />
    <path
       id="path2"
       d="m 60.927,137.143 h 27.217 v 9.071 H 60.927 Z"
       style="fill:#ffffff;fill-opacity:1;fill-rule:nonzero;stroke:none"
       transform="matrix(1.3333333,0,0,-1.3333333,0,377.95333)" />
    <path
       id="path3"
       d="M 60.927,118.999 H 70 v 9.071 h -9.073 z"
       style="fill:#ffffff;fill-opacity:1;fill-rule:nonzero;stroke:none"
       transform="matrix(1.3333333,0,0,-1.3333333,0,377.95333)" />
    <path
       id="path4"
       d="m 0,0 h 1.452 c 0.72,0 1.104,0.359 1.104,0.924 0,0.576 -0.384,0.923 -1.104,0.923 H 0 Z m 1.249,3.047 c 0.73,0 1.115,0.287 1.115,0.875 0,0.588 -0.385,0.852 -1.115,0.852 H 0 V 3.047 Z M 4.055,0.791 c 0,-1.355 -0.935,-2.086 -2.471,-2.086 H -1.474 V 6.069 H 1.344 C 2.879,6.069 3.827,5.385 3.827,4.065 3.827,3.273 3.394,2.698 2.854,2.506 3.552,2.279 4.055,1.596 4.055,0.791"
       style="fill:#ffffff;fill-opacity:1;fill-rule:nonzero;stroke:none"
       transform="matrix(1.3333333,0,0,-1.3333333,168.68587,166.92027)" />
    <path
       id="path5"
       d="m 0,0 v -1.344 h -3.491 v -1.607 h 3.167 v -1.307 h -3.167 v -1.75 H 0 V -7.364 H -5.003 V 0 Z"
       style="fill:#ffffff;fill-opacity:1;fill-rule:nonzero;stroke:none"
       transform="matrix(1.3333333,0,0,-1.3333333,183.58173,158.8284)" />
    <path
       id="path6"
       d="m 0,0 h 1.416 c 0.768,0 1.162,0.407 1.162,1.02 0,0.622 -0.394,1.031 -1.162,1.031 H 0 Z m 0,-1.26 v -2.746 h -1.523 v 7.363 h 3.035 c 1.547,0 2.579,-0.827 2.579,-2.337 0,-1.176 -0.649,-1.921 -1.68,-2.173 L 4.354,-4.006 H 2.628 L 0.803,-1.26 Z"
       style="fill:#ffffff;fill-opacity:1;fill-rule:nonzero;stroke:none"
       transform="matrix(1.3333333,0,0,-1.3333333,188.9164,163.30493)" />
    <path
       id="path7"
       d="M 0,0 V 1.222 H 2.902 V 0.575 c 0,-2.039 -1.342,-3.335 -3.202,-3.335 -2.05,0 -3.551,1.548 -3.551,3.802 0,2.255 1.512,3.803 3.515,3.803 1.774,0 2.843,-1.02 3.118,-2.495 H 1.235 c -0.263,0.695 -0.719,1.127 -1.571,1.127 -1.211,0 -1.955,-1.019 -1.955,-2.435 0,-1.427 0.756,-2.446 1.991,-2.446 0.948,0 1.535,0.564 1.703,1.404 z"
       style="fill:#ffffff;fill-opacity:1;fill-rule:nonzero;stroke:none"
       transform="matrix(1.3333333,0,0,-1.3333333,202.044,165.12787)" />
    <path
       id="path8"
       d="m 0,0 v -1.344 h -3.49 v -1.607 h 3.166 V -4.258 H -3.49 v -1.75 H 0 V -7.364 H -5.002 V 0 Z"
       style="fill:#ffffff;fill-opacity:1;fill-rule:nonzero;stroke:none"
       transform="matrix(1.3333333,0,0,-1.3333333,215.67413,158.8284)" />
    <path
       id="path9"
       d="m 0,0 h -1.211 l -3.48,4.905 V 0 h -1.473 v 7.364 h 1.438 L -1.475,2.71 V 7.364 H 0 Z"
       style="fill:#ffffff;fill-opacity:1;fill-rule:nonzero;stroke:none"
       transform="matrix(1.3333333,0,0,-1.3333333,227.19893,168.6468)" />
    <path
       id="path10"
       d="m 126.576,141.979 h -1.536 v 7.364 h 1.536 z"
       style="fill:#ffffff;fill-opacity:1;fill-rule:nonzero;stroke:none"
       transform="matrix(1.3333333,0,0,-1.3333333,0,377.95333)" />
    <path
       id="path11"
       d="M 0,0 H -1.211 L -4.689,4.905 V 0 h -1.476 v 7.364 h 1.44 l 3.25,-4.653 V 7.364 H 0 Z"
       style="fill:#ffffff;fill-opacity:1;fill-rule:nonzero;stroke:none"
       transform="matrix(1.3333333,0,0,-1.3333333,180.50747,188.64867)" />
    <path
       id="path12"
       d="M 0,0 H 6.284 V -1.344 H 3.909 v -6.02 H 2.362 v 6.02 l -2.362,0 z"
       style="fill:#ffffff;fill-opacity:1;fill-rule:nonzero;stroke:none"
       transform="matrix(1.3333333,0,0,-1.3333333,183.26533,178.82973)" />
    <path
       id="path13"
       d="m 0,0 v -1.344 h -3.49 v -1.607 h 3.167 V -4.258 H -3.49 V -6.009 H 0 V -7.364 H -5.001 V 0 Z"
       style="fill:#ffffff;fill-opacity:1;fill-rule:nonzero;stroke:none"
       transform="matrix(1.3333333,0,0,-1.3333333,201.05307,178.82973)" />
    <path
       id="path14"
       d="m 0,0 h 1.415 c 0.768,0 1.163,0.408 1.163,1.02 0,0.623 -0.395,1.032 -1.163,1.032 H 0 Z M 0,-1.259 V -4.006 H -1.524 V 3.358 H 1.51 c 1.549,0 2.58,-0.827 2.58,-2.338 0,-1.176 -0.649,-1.92 -1.68,-2.172 L 4.354,-4.006 H 2.626 l -1.823,2.747 z"
       style="fill:#ffffff;fill-opacity:1;fill-rule:nonzero;stroke:none"
       transform="matrix(1.3333333,0,0,-1.3333333,206.39027,183.3076)" />
    <path
       id="path15"
       d="M 0,0 H -1.213 L -4.69,4.905 V 0 h -1.476 v 7.364 h 1.44 L -1.477,2.711 V 7.364 H 0 Z"
       style="fill:#ffffff;fill-opacity:1;fill-rule:nonzero;stroke:none"
       transform="matrix(1.3333333,0,0,-1.3333333,223.18853,188.64867)" />
    <path
       id="path16"
       d="m 0,0 h 1.799 l -0.9,2.447 z m 1.679,4.293 2.819,-7.364 h -1.56 l -0.66,1.775 H -0.48 l -0.648,-1.775 h -1.535 l 2.819,7.364 z"
       style="fill:#ffffff;fill-opacity:1;fill-rule:nonzero;stroke:none"
       transform="matrix(1.3333333,0,0,-1.3333333,229.4072,184.55427)" />
    <path
       id="path17"
       d="M 0,0 H 6.285 V -1.344 H 3.911 v -6.02 H 2.363 v 6.02 l -2.363,0 z"
       style="fill:#ffffff;fill-opacity:1;fill-rule:nonzero;stroke:none"
       transform="matrix(1.3333333,0,0,-1.3333333,235.66507,178.82973)" />
    <path
       id="path18"
       d="m 186.625,141.979 h -1.535 v 7.364 h 1.535 z"
       style="fill:#ffffff;fill-opacity:1;fill-rule:nonzero;stroke:none"
       transform="matrix(1.3333333,0,0,-1.3333333,0,377.95333)" />
    <path
       id="path19"
       d="m 0,0 c -1.165,0 -1.92,-0.996 -1.92,-2.435 0,-1.44 0.755,-2.434 1.92,-2.434 1.175,0 1.942,0.994 1.942,2.434 C 1.942,-0.996 1.175,0 0,0 m 0,-6.238 c -2.052,0 -3.479,1.608 -3.479,3.803 0,2.207 1.427,3.803 3.479,3.803 2.051,0 3.49,-1.596 3.49,-3.803 C 3.49,-4.63 2.051,-6.238 0,-6.238"
       style="fill:#ffffff;fill-opacity:1;fill-rule:nonzero;stroke:none"
       transform="matrix(1.3333333,0,0,-1.3333333,256.5192,180.49307)" />
    <path
       id="path20"
       d="M 0,0 H -1.213 L -4.69,4.905 V 0 h -1.476 v 7.364 h 1.441 L -1.477,2.711 V 7.364 H 0 Z"
       style="fill:#ffffff;fill-opacity:1;fill-rule:nonzero;stroke:none"
       transform="matrix(1.3333333,0,0,-1.3333333,272.15067,188.64867)" />
    <path
       id="path21"
       d="m 0,0 h 1.799 l -0.9,2.447 z M 1.679,4.293 4.497,-3.071 H 2.938 l -0.66,1.775 H -0.48 l -0.648,-1.775 h -1.535 l 2.819,7.364 z"
       style="fill:#ffffff;fill-opacity:1;fill-rule:nonzero;stroke:none"
       transform="matrix(1.3333333,0,0,-1.3333333,278.04133,184.55427)" />
    <path
       id="path22"
       d="M 0,0 H 1.535 V -6.009 H 4.966 V -7.364 L 0,-7.364 Z"
       style="fill:#ffffff;fill-opacity:1;fill-rule:nonzero;stroke:none"
       transform="matrix(1.3333333,0,0,-1.3333333,286.37853,178.82973)" />
    <path
       id="path23"
       d="M 0,0 V 7.364 H 4.904 V 6.02 H 1.523 V 4.149 H 4.652 V 2.818 H 1.523 L 1.523,0 Z"
       style="fill:#ffffff;fill-opacity:1;fill-rule:nonzero;stroke:none"
       transform="matrix(1.3333333,0,0,-1.3333333,166.7204,208.65)" />
    <path
       id="path24"
       d="m 0,0 v -1.344 h -3.49 v -1.607 h 3.167 V -4.259 H -3.49 v -1.75 H 0 V -7.364 H -5.002 V 0 Z"
       style="fill:#ffffff;fill-opacity:1;fill-rule:nonzero;stroke:none"
       transform="matrix(1.3333333,0,0,-1.3333333,182.9216,198.83107)" />
    <path
       id="path25"
       d="m 0,0 c 0.202,-0.646 0.742,-0.947 1.463,-0.947 0.742,0 1.233,0.336 1.233,0.924 0,0.444 -0.263,0.683 -0.897,0.829 L 0.477,1.104 c -1.054,0.241 -1.869,0.804 -1.869,2.016 0,1.331 1.102,2.267 2.651,2.267 1.679,0 2.65,-0.888 2.889,-2.136 H 2.625 C 2.458,3.742 2.038,4.127 1.27,4.127 0.575,4.127 0.107,3.791 0.107,3.264 0.107,2.845 0.383,2.592 0.934,2.46 L 2.277,2.148 c 1.2,-0.277 1.932,-0.959 1.932,-2.075 0,-1.427 -1.176,-2.292 -2.735,-2.292 -1.642,0 -2.807,0.817 -3.058,2.219 z"
       style="fill:#ffffff;fill-opacity:1;fill-rule:nonzero;stroke:none"
       transform="matrix(1.3333333,0,0,-1.3333333,187.6,205.8532)" />
    <path
       id="path26"
       d="M 0,0 H 6.284 V -1.344 H 3.91 v -6.02 H 2.362 v 6.02 l -2.362,0 z"
       style="fill:#ffffff;fill-opacity:1;fill-rule:nonzero;stroke:none"
       transform="matrix(1.3333333,0,0,-1.3333333,195.59213,198.83107)" />
    <path
       id="path27"
       d="m 156.57,126.977 h -1.535 v 7.364 h 1.535 z"
       style="fill:#ffffff;fill-opacity:1;fill-rule:nonzero;stroke:none"
       transform="matrix(1.3333333,0,0,-1.3333333,0,377.95333)" />
    <path
       id="path28"
       d="M 0,0 -2.759,7.364 H -1.14 L 0.768,2.039 2.675,7.364 H 4.259 L 1.487,0 Z"
       style="fill:#ffffff;fill-opacity:1;fill-rule:nonzero;stroke:none"
       transform="matrix(1.3333333,0,0,-1.3333333,215.07133,208.65)" />
    <path
       id="path29"
       d="m 0,0 h 1.799 l -0.9,2.447 z M 1.679,4.294 4.497,-3.07 H 2.938 l -0.66,1.774 h -2.76 L -1.129,-3.07 h -1.534 l 2.819,7.364 z"
       style="fill:#ffffff;fill-opacity:1;fill-rule:nonzero;stroke:none"
       transform="matrix(1.3333333,0,0,-1.3333333,224.9776,204.55627)" />
    <path
       id="path30"
       d="M 0,0 H 1.535 V -6.009 H 4.967 V -7.364 L 0,-7.364 Z"
       style="fill:#ffffff;fill-opacity:1;fill-rule:nonzero;stroke:none"
       transform="matrix(1.3333333,0,0,-1.3333333,233.31347,198.83107)" />
  </g>
</svg>
