<?xml version="1.0" encoding="utf-8"?>
<!-- Generator: Adobe Illustrator 26.4.1, SVG Export Plug-In . SVG Version: 6.00 Build 0)  -->
<svg version="1.1" id="MPIEA-EN" xmlns="http://www.w3.org/2000/svg" xmlns:xlink="http://www.w3.org/1999/xlink" x="0px" y="0px"
	 width="440px" height="110px" viewBox="0 0 440 110" style="enable-background:new 0 0 440 110;" xml:space="preserve">
<style type="text/css">
	.st0{fill:#006C66;}
	.st1{opacity:0.3;}
	.st2{display:none;opacity:0.4;}
	.st3{display:inline;fill:#006C66;}
	.st4{opacity:0.5;}
	.st5{opacity:0.45;}
</style>
<g id="Textpfade">
	<g>
		<path class="st0" d="M183.18,41.75l3.5,9.87l3.48-9.87h3.68v13.61h-2.81v-3.72l0.28-6.42l-3.67,10.14h-1.93l-3.67-10.13l0.28,6.41
			v3.72h-2.8V41.75H183.18z"/>
		<path class="st0" d="M206,52.56h-4.92l-0.93,2.8h-2.98l5.07-13.61h2.6l5.1,13.61h-2.98L206,52.56z M201.84,50.29h3.4l-1.71-5.1
			L201.84,50.29z"/>
		<path class="st0" d="M217.92,46.45l2.55-4.69h3.23l-3.96,6.75l4.07,6.86h-3.26l-2.62-4.77l-2.62,4.77h-3.26l4.07-6.86l-3.96-6.75
			h3.23L217.92,46.45z"/>
		<path class="st0" d="M236.5,50.57v4.8h-2.8V41.75h5.31c1.02,0,1.92,0.19,2.7,0.56c0.78,0.37,1.37,0.91,1.79,1.59
			c0.42,0.69,0.63,1.47,0.63,2.35c0,1.33-0.46,2.39-1.37,3.16c-0.91,0.77-2.18,1.15-3.79,1.15H236.5z M236.5,48.3h2.5
			c0.74,0,1.31-0.17,1.7-0.52s0.58-0.85,0.58-1.5c0-0.67-0.2-1.21-0.59-1.62c-0.39-0.41-0.93-0.62-1.63-0.64h-2.57V48.3z"/>
		<path class="st0" d="M250.71,53.11h5.96v2.25h-8.76V41.75h2.8V53.11z"/>
		<path class="st0" d="M267.99,52.56h-4.92l-0.93,2.8h-2.98l5.07-13.61h2.6l5.1,13.61h-2.98L267.99,52.56z M263.83,50.29h3.4
			l-1.71-5.1L263.83,50.29z"/>
		<path class="st0" d="M286.12,55.37h-2.8l-5.46-8.96v8.96h-2.8V41.75h2.8l5.47,8.98v-8.98h2.8V55.37z"/>
		<path class="st0" d="M301.11,50.83c-0.11,1.46-0.65,2.62-1.62,3.46s-2.26,1.26-3.86,1.26c-1.75,0-3.12-0.59-4.12-1.76
			s-1.5-2.79-1.5-4.84v-0.83c0-1.31,0.23-2.46,0.69-3.46c0.46-1,1.12-1.76,1.98-2.3c0.86-0.53,1.85-0.8,2.99-0.8
			c1.57,0,2.84,0.42,3.8,1.26s1.51,2.02,1.66,3.54h-2.8c-0.07-0.88-0.31-1.52-0.73-1.91c-0.42-0.4-1.06-0.59-1.92-0.59
			c-0.93,0-1.63,0.33-2.1,1c-0.46,0.67-0.7,1.71-0.71,3.12v1.03c0,1.47,0.22,2.55,0.67,3.23s1.15,1.02,2.11,1.02
			c0.87,0,1.51-0.2,1.94-0.59c0.43-0.4,0.67-1.01,0.73-1.84H301.11z"/>
		<path class="st0" d="M309.07,49.91l-1.46,1.57v3.89h-2.8V41.75h2.8v6.17l1.23-1.69l3.47-4.48h3.45l-4.83,6.05l4.97,7.56h-3.34
			L309.07,49.91z"/>
		<path class="st0" d="M328.43,55.37h-2.81V41.75h2.81V55.37z"/>
		<path class="st0" d="M343.96,55.37h-2.8l-5.46-8.96v8.96h-2.8V41.75h2.8l5.47,8.98v-8.98h2.8V55.37z"/>
		<path class="st0" d="M355.32,51.8c0-0.53-0.19-0.94-0.56-1.22s-1.05-0.58-2.02-0.9c-0.97-0.31-1.74-0.62-2.31-0.93
			c-1.55-0.83-2.32-1.96-2.32-3.38c0-0.74,0.21-1.39,0.62-1.97c0.41-0.58,1.01-1.03,1.79-1.35c0.78-0.32,1.65-0.49,2.61-0.49
			c0.97,0,1.84,0.18,2.6,0.53c0.76,0.35,1.35,0.85,1.77,1.49s0.63,1.37,0.63,2.19h-2.8c0-0.62-0.2-1.11-0.59-1.45
			c-0.39-0.35-0.94-0.52-1.66-0.52c-0.69,0-1.22,0.15-1.6,0.43c-0.38,0.29-0.57,0.67-0.57,1.15c0,0.44,0.22,0.81,0.67,1.11
			c0.45,0.3,1.1,0.58,1.97,0.84c1.6,0.48,2.76,1.08,3.49,1.79s1.09,1.6,1.09,2.66c0,1.18-0.45,2.1-1.34,2.77s-2.09,1-3.6,1
			c-1.05,0-2-0.19-2.86-0.58s-1.52-0.91-1.97-1.58c-0.45-0.67-0.68-1.44-0.68-2.32h2.81c0,1.5,0.9,2.25,2.69,2.25
			c0.67,0,1.19-0.14,1.56-0.41S355.32,52.28,355.32,51.8z"/>
		<path class="st0" d="M372.14,44.03h-4.17v11.34h-2.8V44.03h-4.11v-2.27h11.09V44.03z"/>
		<path class="st0" d="M378.58,55.37h-2.81V41.75h2.81V55.37z"/>
		<path class="st0" d="M393.01,44.03h-4.17v11.34h-2.8V44.03h-4.11v-2.27h11.09V44.03z"/>
		<path class="st0" d="M406.77,41.75v8.97c0,1.49-0.47,2.67-1.4,3.53c-0.93,0.87-2.21,1.3-3.82,1.3c-1.59,0-2.85-0.42-3.79-1.26
			c-0.93-0.84-1.41-2-1.43-3.47v-9.07h2.8v8.98c0,0.89,0.21,1.54,0.64,1.95c0.43,0.41,1.02,0.61,1.77,0.61
			c1.58,0,2.38-0.83,2.4-2.49v-9.06H406.77z"/>
		<path class="st0" d="M421.17,44.03H417v11.34h-2.8V44.03h-4.11v-2.27h11.09V44.03z"/>
		<path class="st0" d="M432.81,49.47h-5.38v3.65h6.32v2.25h-9.12V41.75h9.11v2.27h-6.3v3.24h5.38V49.47z"/>
	</g>
	<g>
		<path class="st0" d="M185.72,68.23h-4.66v4.91h-1.46V62.02h6.88v1.2h-5.42v3.81h4.66V68.23z"/>
		<path class="st0" d="M197.26,67.94c0,1.09-0.18,2.04-0.55,2.85c-0.37,0.81-0.88,1.43-1.56,1.86c-0.67,0.43-1.45,0.64-2.35,0.64
			c-0.88,0-1.65-0.21-2.33-0.65c-0.68-0.43-1.2-1.04-1.58-1.84c-0.37-0.8-0.57-1.72-0.58-2.77v-0.8c0-1.07,0.19-2.01,0.56-2.83
			c0.37-0.82,0.9-1.45,1.58-1.88c0.68-0.43,1.46-0.65,2.33-0.65c0.89,0,1.67,0.22,2.35,0.65c0.68,0.43,1.2,1.05,1.57,1.87
			c0.37,0.82,0.55,1.77,0.55,2.85V67.94z M195.8,67.22c0-1.32-0.26-2.33-0.79-3.03c-0.53-0.7-1.27-1.06-2.22-1.06
			c-0.93,0-1.65,0.35-2.19,1.06c-0.53,0.7-0.8,1.68-0.82,2.93v0.82c0,1.28,0.27,2.28,0.8,3.01c0.54,0.73,1.28,1.1,2.22,1.1
			c0.95,0,1.68-0.34,2.2-1.03c0.52-0.69,0.79-1.68,0.8-2.96V67.22z"/>
		<path class="st0" d="M204.01,68.64h-2.61v4.49h-1.47V62.02h3.68c1.25,0,2.21,0.28,2.89,0.85c0.67,0.57,1.01,1.4,1.01,2.49
			c0,0.69-0.19,1.29-0.56,1.81c-0.37,0.51-0.89,0.9-1.56,1.15l2.61,4.71v0.09h-1.57L204.01,68.64z M201.4,67.44h2.25
			c0.73,0,1.31-0.19,1.74-0.57c0.43-0.38,0.64-0.88,0.64-1.51c0-0.69-0.21-1.21-0.61-1.58c-0.41-0.37-1-0.55-1.77-0.56h-2.24V67.44z
			"/>
		<path class="st0" d="M220.67,68h-4.81v3.94h5.59v1.2h-7.06V62.02h6.98v1.2h-5.52v3.58h4.81V68z"/>
		<path class="st0" d="M225.65,62.02l3.63,9.06l3.63-9.06h1.9v11.11h-1.46v-4.33l0.14-4.67l-3.65,9h-1.12l-3.64-8.97l0.14,4.65v4.33
			h-1.46V62.02H225.65z"/>
		<path class="st0" d="M239.35,68.78v4.35h-1.46V62.02h4.1c1.22,0,2.17,0.31,2.86,0.93s1.03,1.44,1.03,2.46
			c0,1.08-0.34,1.91-1.01,2.49s-1.64,0.87-2.9,0.87H239.35z M239.35,67.59h2.63c0.78,0,1.38-0.18,1.8-0.55
			c0.42-0.37,0.62-0.9,0.62-1.6c0-0.66-0.21-1.19-0.62-1.59c-0.42-0.4-0.99-0.6-1.72-0.62h-2.72V67.59z"/>
		<path class="st0" d="M249.8,73.13h-1.46V62.02h1.46V73.13z"/>
		<path class="st0" d="M257.04,68.64h-2.61v4.49h-1.47V62.02h3.68c1.25,0,2.21,0.28,2.89,0.85c0.67,0.57,1.01,1.4,1.01,2.49
			c0,0.69-0.19,1.29-0.56,1.81c-0.37,0.51-0.89,0.9-1.56,1.15l2.61,4.71v0.09h-1.57L257.04,68.64z M254.43,67.44h2.25
			c0.73,0,1.31-0.19,1.74-0.57c0.43-0.38,0.64-0.88,0.64-1.51c0-0.69-0.21-1.21-0.61-1.58c-0.41-0.37-1-0.55-1.77-0.56h-2.24V67.44z
			"/>
		<path class="st0" d="M264.64,73.13h-1.46V62.02h1.46V73.13z"/>
		<path class="st0" d="M275.97,69.61c-0.14,1.17-0.57,2.08-1.3,2.72c-0.73,0.64-1.7,0.96-2.91,0.96c-1.31,0-2.36-0.47-3.15-1.41
			c-0.79-0.94-1.19-2.2-1.19-3.78v-1.07c0-1.03,0.18-1.94,0.55-2.72c0.37-0.78,0.89-1.38,1.57-1.8c0.68-0.42,1.46-0.63,2.35-0.63
			c1.18,0,2.13,0.33,2.84,0.99c0.71,0.66,1.13,1.57,1.24,2.74h-1.47c-0.13-0.89-0.4-1.53-0.83-1.93c-0.42-0.4-1.02-0.6-1.78-0.6
			c-0.94,0-1.67,0.35-2.2,1.04c-0.53,0.69-0.8,1.68-0.8,2.96v1.08c0,1.21,0.25,2.17,0.75,2.88s1.21,1.07,2.11,1.07
			c0.81,0,1.44-0.18,1.87-0.55c0.44-0.37,0.72-1.01,0.87-1.93H275.97z"/>
		<path class="st0" d="M284.59,70.23h-4.65l-1.04,2.91h-1.51l4.24-11.11h1.28l4.25,11.11h-1.5L284.59,70.23z M280.38,69.03h3.78
			l-1.89-5.2L280.38,69.03z"/>
		<path class="st0" d="M290.61,71.94h5.26v1.2h-6.74V62.02h1.47V71.94z"/>
		<path class="st0" d="M308.52,70.23h-4.65l-1.04,2.91h-1.51l4.24-11.11h1.28l4.25,11.11h-1.5L308.52,70.23z M304.3,69.03h3.78
			l-1.89-5.2L304.3,69.03z"/>
		<path class="st0" d="M319.34,68h-4.81v3.94h5.59v1.2h-7.06V62.02h6.98v1.2h-5.52v3.58h4.81V68z"/>
		<path class="st0" d="M325.7,68.18c-1.26-0.36-2.17-0.81-2.74-1.33s-0.86-1.18-0.86-1.95c0-0.88,0.35-1.6,1.05-2.17
			c0.7-0.57,1.61-0.86,2.73-0.86c0.76,0,1.44,0.15,2.04,0.44s1.06,0.7,1.39,1.22c0.33,0.52,0.49,1.09,0.49,1.7h-1.47
			c0-0.67-0.21-1.2-0.64-1.59c-0.43-0.39-1.03-0.58-1.81-0.58c-0.72,0-1.29,0.16-1.69,0.48c-0.4,0.32-0.61,0.76-0.61,1.33
			c0,0.45,0.19,0.84,0.58,1.15s1.04,0.6,1.96,0.86s1.65,0.55,2.17,0.86c0.52,0.31,0.91,0.68,1.16,1.1s0.38,0.91,0.38,1.47
			c0,0.9-0.35,1.62-1.05,2.16c-0.7,0.54-1.64,0.81-2.82,0.81c-0.76,0-1.48-0.15-2.14-0.44s-1.17-0.69-1.53-1.2s-0.54-1.09-0.54-1.73
			h1.47c0,0.67,0.25,1.2,0.74,1.59s1.16,0.58,1.99,0.58c0.77,0,1.37-0.16,1.78-0.47c0.41-0.31,0.62-0.74,0.62-1.29
			s-0.19-0.97-0.57-1.26C327.39,68.77,326.7,68.47,325.7,68.18z"/>
		<path class="st0" d="M339.85,63.22h-3.57v9.91h-1.46v-9.91h-3.56v-1.2h8.59V63.22z"/>
		<path class="st0" d="M350.52,73.13h-1.47V68h-5.6v5.13h-1.46V62.02h1.46v4.78h5.6v-4.78h1.47V73.13z"/>
		<path class="st0" d="M359.89,68h-4.81v3.94h5.59v1.2h-7.06V62.02h6.98v1.2h-5.52v3.58h4.81V68z"/>
		<path class="st0" d="M370.8,63.22h-3.57v9.91h-1.46v-9.91h-3.56v-1.2h8.59V63.22z"/>
		<path class="st0" d="M374.51,73.13h-1.46V62.02h1.46V73.13z"/>
		<path class="st0" d="M385.84,69.61c-0.14,1.17-0.57,2.08-1.3,2.72c-0.73,0.64-1.7,0.96-2.91,0.96c-1.31,0-2.36-0.47-3.15-1.41
			c-0.79-0.94-1.19-2.2-1.19-3.78v-1.07c0-1.03,0.18-1.94,0.55-2.72c0.37-0.78,0.89-1.38,1.57-1.8c0.68-0.42,1.46-0.63,2.35-0.63
			c1.18,0,2.13,0.33,2.84,0.99c0.71,0.66,1.13,1.57,1.24,2.74h-1.47c-0.13-0.89-0.4-1.53-0.83-1.93c-0.42-0.4-1.02-0.6-1.78-0.6
			c-0.94,0-1.67,0.35-2.2,1.04c-0.53,0.69-0.8,1.68-0.8,2.96v1.08c0,1.21,0.25,2.17,0.75,2.88s1.21,1.07,2.11,1.07
			c0.81,0,1.44-0.18,1.87-0.55c0.44-0.37,0.72-1.01,0.87-1.93H385.84z"/>
		<path class="st0" d="M391.6,68.18c-1.26-0.36-2.17-0.81-2.74-1.33S388,65.67,388,64.9c0-0.88,0.35-1.6,1.05-2.17
			c0.7-0.57,1.61-0.86,2.73-0.86c0.76,0,1.44,0.15,2.04,0.44s1.06,0.7,1.39,1.22c0.33,0.52,0.49,1.09,0.49,1.7h-1.47
			c0-0.67-0.21-1.2-0.64-1.59c-0.43-0.39-1.03-0.58-1.81-0.58c-0.72,0-1.29,0.16-1.69,0.48c-0.4,0.32-0.61,0.76-0.61,1.33
			c0,0.45,0.19,0.84,0.58,1.15s1.04,0.6,1.96,0.86s1.65,0.55,2.17,0.86c0.52,0.31,0.91,0.68,1.16,1.1s0.38,0.91,0.38,1.47
			c0,0.9-0.35,1.62-1.05,2.16c-0.7,0.54-1.64,0.81-2.82,0.81c-0.76,0-1.48-0.15-2.14-0.44s-1.17-0.69-1.53-1.2s-0.54-1.09-0.54-1.73
			h1.47c0,0.67,0.25,1.2,0.74,1.59s1.16,0.58,1.99,0.58c0.77,0,1.37-0.16,1.78-0.47c0.41-0.31,0.62-0.74,0.62-1.29
			s-0.19-0.97-0.57-1.26C393.29,68.77,392.6,68.47,391.6,68.18z"/>
	</g>
</g>
<g id="ae-Logo">
	<g>
		<g id="PfefferMdiaeval_00000156586739441112952290000002357711778083898770_" class="st1">
			<path class="st0" d="M151.41,51.36c0.18,0,0.29,0.12,0.29,0.18c0,0.29-0.88,0.76-2.06,1.23l-15.4,6
				c0.29,1.06,0.59,2.12,0.94,3.12c1.35,4.17,5,7.11,8.53,7.11c1.94,0,3-0.65,4.41-1.94c0.65-0.59,3.18-1.59,4.41-1.59
				c0.29,0,0.41,0.06,0.41,0.12c0,0.12-0.06,0.18-0.18,0.29c-2.23,2.12-7.7,5.23-13.17,5.23c-3.18,0-6.11-1.71-7.94-4.35
				c-3.7,2.23-8.29,4.35-12.52,4.35c-2.12,0-4-0.65-4-3.29c0-1.47,0.76-2.88,1.47-4.06c2.59-4.23,6.35-8.35,10.29-11.58
				c-1.12-3.29-3.82-5.17-7-5.17l-1.12,0.06c-0.24,0-0.35,0-0.35-0.12c0-1.06,4.53-1.94,5.64-1.94c3.12,0,5.59,1.18,7.06,3.7
				c2.35-2.23,6.41-3.7,9.58-3.7c2.06,0,4.12,0.65,5.94,2.29c1.53,1.41,2.35,3.47,4.59,4.06H151.41z M127.65,54.54
				c-3.35,3.47-7.47,8.11-7.47,11.7c0,2.12,1.23,2.88,2.76,2.88c2.88,0,7-2.53,7.88-3.82c-1-2.12-1.71-4.64-2.18-6.88
				C128.36,57.12,128.01,55.83,127.65,54.54z M141.71,49.24c-1.59-1.35-3.35-2.18-5.12-2.18h-0.35c-1.76,1.23-2.94,3.47-2.94,6.23
				c0,1.53,0.23,2.94,0.65,4.41l11.82-4.59C143.76,52.3,143.23,50.6,141.71,49.24z"/>
		</g>
		<g id="Centaur_00000111899924277226682680000012539427987250025886_" class="st2">
			<path class="st3" d="M113.96,51.27c-0.24-0.73-0.57-1.53-0.57-2.26c0-2.75,7.59-7.03,12.12-7.03c2.91,0,5.09,2.91,6.22,4.28
				c4.36-4.04,5.82-4.36,7.76-4.36c4.77,0,9.45,3.15,11.07,8.72c0.16,0.73,0.32,0.97,1.45,1.37v1.21
				c-3.72,0.48-14.62,2.42-19.63,4.04c-0.08,10.58,8.48,12.36,10.58,12.36c1.53,0,3.39-0.89,5.01-1.86
				c1.78-1.13,1.94-1.29,2.26-1.29c0.57,0,0.73,0.57,0.73,0.81c0,1.05-6.3,5.41-12.36,5.41c-4.69,0-7.67-3.07-8.97-5.49
				c-6.22,3.55-9.13,5.17-13.09,5.17c-3.55,0-4.93-2.1-4.93-5.33c0-1.62,0.4-3.55,1.29-5.33c3.07-1.37,7.43-3.31,14.7-4.36v-3.31
				c0-5.09-0.89-6.06-1.45-6.71c-1.13-1.37-3.07-2.26-4.44-2.26c-3.07,0-3.31,1.45-3.31,2.5c0,0.65,0.16,1.29,0.32,1.78
				L113.96,51.27z M128.91,65.73c-0.48-1.37-0.73-2.18-1.05-5.82c-0.81-0.08-1.62-0.08-2.34-0.08c-6.46,0-9.13,2.42-9.13,5.66
				c0,0.97,0.4,4.12,3.23,4.12c1.13,0,2.59-0.24,5.17-1.62L128.91,65.73z M145.06,52.56c0.48-0.08,1.05-0.4,1.05-0.89
				c0-1.37-2.5-7.35-8.24-7.35c-2.75,0-5.57,3.72-5.49,10.99L145.06,52.56z"/>
		</g>
		<g id="Garamond_00000139976967135835211630000008732191375434593666_" class="st1">
			<path class="st0" d="M132.26,47.39c0.9-0.97,2.16-1.85,3.79-2.66c1.62-0.81,3.14-1.21,4.55-1.21c2.79,0,5.12,0.95,7,2.83
				c1.88,1.89,2.83,4.25,2.85,7.09l-14.42-0.14c-1.11,0-2.11,0.06-3.01,0.17c-0.09,0.74-0.14,2.7-0.14,5.88
				c0,2.3,0.33,4.11,0.99,5.41c0.66,1.3,1.79,2.49,3.41,3.58c1.06,0.69,2.44,1.04,4.15,1.04c1.43,0,2.7-0.22,3.82-0.67
				c1.12-0.45,2.4-1.27,3.85-2.47l1.31-1.11c0.25,0.35,0.38,0.68,0.38,1c0,0.32-0.03,0.68-0.1,1.07c-1.01,1.11-2.18,2.14-3.49,3.11
				c-0.95,0.67-2.37,1.31-4.29,1.94c-1.22,0.39-2.74,0.59-4.56,0.59c-1.34,0-2.85-0.41-4.53-1.24c-1.68-0.83-3.32-2.33-4.91-4.49
				c-2.3,1.96-3.69,3.1-4.15,3.42c-1.15,0.81-2.34,1.43-3.56,1.87c-0.9,0.35-1.82,0.52-2.77,0.52c-1.2,0-2.21-0.39-3.04-1.18
				c-0.83-0.78-1.24-1.62-1.24-2.52c0-1.11,0.16-2.1,0.47-2.97c0.31-0.88,0.78-1.7,1.4-2.47c0.62-0.77,1.44-1.53,2.45-2.26
				c0.53-0.39,2.49-1.57,5.88-3.53c1.43-0.83,2.8-1.56,4.11-2.18l0.17-1.59v-3.08c0.02-1.75-0.5-3.24-1.56-4.46
				c-0.76-0.88-1.86-1.31-3.28-1.31c-1.13,0-2.16,0.43-3.08,1.28c-0.95,0.85-1.6,2.13-1.97,3.82c-0.37,1.69-0.74,2.83-1.11,3.41
				c-0.21,0.3-0.65,0.59-1.31,0.86l-1.66,0.62c-0.28,0-0.52-0.11-0.73-0.33c-0.21-0.22-0.31-0.5-0.31-0.85
				c0-0.55,0.4-1.67,1.21-3.35c0.81-1.68,1.76-3.04,2.85-4.08c1.09-1.04,2.25-1.83,3.46-2.37c1.21-0.54,2.4-0.81,3.58-0.81
				c1.66,0,3.06,0.3,4.2,0.9C130.07,45.05,131.18,46.03,132.26,47.39z M128.46,64.95c0.02-0.55,0.03-0.89,0.03-1l-0.03-3.18v-2.28
				c0-0.12-0.01-0.45-0.03-1c-1.22,0.46-2.83,1.34-4.84,2.63c-2.01,1.29-3.31,2.4-3.92,3.32c-0.61,0.92-0.92,1.88-0.92,2.87
				c0,0.92,0.33,1.72,0.99,2.39c0.66,0.67,1.42,1,2.3,1c0.58,0,1.26-0.22,2.06-0.67c0.8-0.45,1.83-1.24,3.09-2.37
				C127.71,66.16,128.14,65.6,128.46,64.95z M133.23,51.81c0.64,0.07,1.04,0.1,1.18,0.1l2.73-0.1c0.3,0,0.93,0.02,1.9,0.05
				c0.97,0.03,2.11,0.05,3.42,0.05c1.27,0,2.12-0.16,2.56-0.47c0.44-0.31,0.66-0.71,0.66-1.19c0-1.27-0.55-2.45-1.64-3.54
				c-1.09-1.09-2.37-1.64-3.82-1.64c-1.8,0-3.42,0.73-4.86,2.2c-1.44,1.46-2.16,2.9-2.16,4.3L133.23,51.81z"/>
		</g>
		<g id="Roboto_00000070805512419338717720000002169264764639083706_" class="st4">
			<path class="st0" d="M141.22,72.84c-2.51,0-4.66-0.49-6.45-1.47c-1.79-0.98-3.23-2.35-4.32-4.1c-0.4,0.65-0.93,1.31-1.6,1.97
				c-0.67,0.67-1.48,1.27-2.45,1.8c-0.96,0.53-2.07,0.96-3.31,1.3s-2.64,0.5-4.19,0.5c-1.55,0-2.92-0.2-4.11-0.6
				c-1.19-0.4-2.19-0.96-3-1.7c-0.81-0.74-1.43-1.63-1.85-2.68c-0.42-1.05-0.64-2.21-0.64-3.49c0-1.41,0.25-2.67,0.76-3.8
				c0.5-1.13,1.26-2.09,2.26-2.89c1-0.8,2.24-1.42,3.72-1.84c1.48-0.42,3.19-0.64,5.14-0.64h6.95v-2.38c0-2.38-0.57-4.24-1.72-5.57
				c-1.15-1.33-2.85-2-5.13-2c-1.24,0-2.36,0.17-3.35,0.5c-0.99,0.33-1.84,0.78-2.53,1.35c-0.69,0.57-1.22,1.24-1.58,2.02
				c-0.36,0.78-0.54,1.61-0.54,2.49l-3.22-0.35c0-1.26,0.27-2.43,0.8-3.5c0.53-1.07,1.29-2,2.27-2.77c0.98-0.78,2.16-1.38,3.54-1.83
				c1.38-0.44,2.92-0.66,4.61-0.66c2.25,0,4.18,0.48,5.78,1.45c1.6,0.96,2.76,2.4,3.48,4.32c1.08-1.8,2.48-3.21,4.18-4.23
				c1.7-1.02,3.6-1.53,5.7-1.53c1.82,0,3.44,0.29,4.87,0.88c1.42,0.59,2.62,1.42,3.6,2.5c0.97,1.08,1.71,2.4,2.22,3.95
				c0.5,1.55,0.76,3.29,0.76,5.22v2.71h-20.48v0.78c0,1.61,0.19,3.11,0.57,4.52c0.38,1.41,0.97,2.63,1.77,3.68
				c0.8,1.05,1.82,1.87,3.06,2.48c1.24,0.6,2.72,0.91,4.45,0.91c1.01,0,1.94-0.09,2.8-0.27c0.86-0.18,1.65-0.42,2.37-0.72
				c0.72-0.3,1.38-0.64,1.97-1.01c0.6-0.38,1.14-0.78,1.62-1.19l1.27,2.35c-0.4,0.36-0.88,0.75-1.46,1.18
				c-0.58,0.42-1.27,0.81-2.08,1.16c-0.81,0.35-1.75,0.65-2.83,0.88C143.81,72.72,142.59,72.84,141.22,72.84z M119.38,70.14
				c0.94,0,1.85-0.13,2.75-0.38c0.89-0.25,1.73-0.58,2.5-0.99c0.78-0.41,1.47-0.86,2.07-1.37c0.6-0.5,1.08-1,1.42-1.49V57.8h-6.9
				c-1.46,0-2.73,0.18-3.81,0.54c-1.08,0.36-1.98,0.85-2.71,1.46c-0.72,0.61-1.26,1.33-1.61,2.14c-0.35,0.81-0.53,1.66-0.53,2.54
				c0,0.85,0.14,1.62,0.43,2.31c0.29,0.69,0.72,1.29,1.29,1.79c0.57,0.5,1.28,0.88,2.12,1.15C117.25,70,118.25,70.14,119.38,70.14z
				 M140.4,45.24c-1.28,0-2.44,0.25-3.48,0.76c-1.04,0.51-1.93,1.19-2.69,2.07c-0.76,0.88-1.37,1.91-1.84,3.11
				c-0.47,1.2-0.78,2.5-0.95,3.91h17.18v-0.84c0-1.24-0.16-2.41-0.49-3.5c-0.32-1.09-0.83-2.05-1.5-2.87
				c-0.68-0.82-1.53-1.47-2.57-1.93C143.03,45.48,141.81,45.24,140.4,45.24z"/>
		</g>
		<g id="Bodoni_Book_00000117646036026154092570000017575301022979552394_" class="st5">
			<path class="st0" d="M152.69,64.01c-0.71,3.31-2.19,5.76-4.43,7.34c-2.25,1.58-4.93,2.38-8.05,2.38c-1.04,0-2.1-0.15-3.19-0.46
				c-1.09-0.31-2.13-0.73-3.12-1.28c-0.99-0.54-1.88-1.18-2.66-1.91c-0.78-0.73-1.38-1.5-1.81-2.3c-1.42,1.94-3.2,3.42-5.35,4.43
				c-2.15,1.02-4.15,1.52-5.99,1.52c-1.13,0-2.2-0.12-3.19-0.35c-0.99-0.24-1.87-0.63-2.62-1.17c-0.76-0.54-1.36-1.25-1.81-2.13
				c-0.45-0.87-0.67-1.97-0.67-3.3c0.09-3.31,1.73-5.85,4.89-7.62c3.17-1.77,7.47-2.66,12.91-2.66v-6.74c0-0.85-0.15-1.55-0.46-2.09
				c-0.31-0.54-0.7-0.98-1.17-1.31c-0.47-0.33-1.02-0.57-1.63-0.71c-0.61-0.14-1.23-0.21-1.84-0.21c-0.38,0-0.93,0.04-1.67,0.11
				c-0.73,0.07-1.47,0.2-2.2,0.39c-0.73,0.19-1.37,0.45-1.91,0.78c-0.54,0.33-0.82,0.76-0.82,1.28c0,0.14,0.11,0.28,0.32,0.43
				c0.21,0.14,0.46,0.32,0.74,0.53c0.28,0.21,0.53,0.51,0.74,0.89c0.21,0.38,0.32,0.85,0.32,1.42c0,0.9-0.26,1.62-0.78,2.16
				c-0.52,0.54-1.23,0.82-2.13,0.82c-0.95,0-1.68-0.32-2.2-0.96c-0.52-0.64-0.78-1.45-0.78-2.45c0-0.61,0.2-1.32,0.6-2.13
				c0.4-0.8,1.04-1.55,1.91-2.23c0.87-0.68,2.03-1.26,3.47-1.74c1.44-0.47,3.23-0.71,5.35-0.71c0.61,0,1.29,0.02,2.02,0.07
				c0.73,0.05,1.48,0.18,2.23,0.39c0.76,0.21,1.48,0.53,2.16,0.96c0.68,0.43,1.29,0.99,1.81,1.7c1.51-1.18,2.86-2.01,4.04-2.48
				c1.18-0.47,2.6-0.68,4.25-0.64c1.8,0,3.47,0.3,5.04,0.89c1.56,0.59,2.91,1.43,4.04,2.52c1.13,1.09,2.03,2.41,2.69,3.97
				c0.66,1.56,0.99,3.31,0.99,5.25h-19.78v2.91c0,1.75,0.07,3.4,0.21,4.96c0.14,1.56,0.5,2.92,1.06,4.08
				c0.57,1.16,1.41,2.07,2.52,2.73c1.11,0.66,2.63,0.99,4.57,0.99c0.99,0,2.02-0.21,3.08-0.64c1.06-0.43,2.04-1,2.94-1.74
				c0.9-0.73,1.69-1.61,2.38-2.62c0.68-1.02,1.15-2.12,1.38-3.3H152.69z M127.59,57.98c-1.13,0-2.42,0.08-3.86,0.25
				c-1.44,0.17-2.8,0.51-4.08,1.03c-1.28,0.52-2.35,1.27-3.23,2.23c-0.88,0.97-1.31,2.26-1.31,3.86c0,1.75,0.5,3.12,1.49,4.11
				c0.99,0.99,2.32,1.49,3.97,1.49c1.13,0,2.12-0.15,2.94-0.46c0.83-0.31,1.67-0.84,2.52-1.6c0.28-0.28,0.61-0.7,0.99-1.24
				c0.38-0.54,0.57-1.57,0.57-3.08V57.98z M146.31,54.58v-2.41c0-1.28-0.18-2.34-0.53-3.19c-0.35-0.85-0.83-1.55-1.42-2.09
				c-0.59-0.54-1.28-0.92-2.06-1.13c-0.78-0.21-1.62-0.32-2.52-0.32c-1.09,0-2,0.21-2.73,0.64c-0.73,0.43-1.34,0.91-1.81,1.45
				c-0.47,0.54-0.81,1.05-1.03,1.52c-0.21,0.47-0.34,0.76-0.39,0.85c-0.24,0.66-0.4,1.38-0.5,2.16c-0.1,0.78-0.17,1.62-0.21,2.52
				H146.31z"/>
		</g>
	</g>
	<path class="st0" d="M130.6,24.56c-18.2,0-33.01,14.81-33.01,33.01c0,18.2,14.81,33.01,33.01,33.01c18.2,0,33.01-14.81,33.01-33.01
		C163.61,39.37,148.8,24.56,130.6,24.56z M130.6,89.66c-17.7,0-32.09-14.4-32.09-32.09c0-17.69,14.39-32.09,32.09-32.09
		c17.69,0,32.09,14.4,32.09,32.09C162.69,75.27,148.29,89.66,130.6,89.66z"/>
</g>
<rect id="Trenner" x="82.17" y="24.54" class="st0" width="0.58" height="66.02"/>
<g id="Minerva" transform="translate(0 0) scale(1.4285714285714286) translate(0 0)">
	<path class="st0" d="M24.14,17.17c-12.76,0-23.11,10.35-23.11,23.11s10.35,23.11,23.11,23.11s23.11-10.35,23.11-23.11
		C47.23,27.53,36.9,17.19,24.14,17.17z M24.14,62.75c-12.41,0-22.47-10.06-22.47-22.47s10.06-22.47,22.47-22.47
		s22.47,10.06,22.47,22.47C46.6,52.69,36.54,62.74,24.14,62.75z"/>
	<path class="st0" d="M37.7,38.52c-0.31-0.68-0.11-1.12-0.2-1.61s-0.59-1.54-0.95-2.38c-0.15-0.37,0.84-0.29,0.09-1.67
		c0-0.04,1.03-0.44,0-1.21c-0.52-0.41-0.97-0.91-1.32-1.47c-0.07-0.08-0.07-0.2,0-0.29c0.59-0.53,0.62-1.28-0.02-1.65
		s-0.99,0-1.47,0.31c-0.15,0.11-0.24,0.18-0.42,0.11l-0.4-0.26c0.59-0.57,0.73-1.14,0.68-1.23s-1.01-0.29-2.24,0.22l-0.09-0.07
		c0.51-0.86,0.22-1.47,0.2-1.52h-0.02c0.8-1.08,1.71-2.06,2.73-2.93h0.02c0.04-0.07,0.07-0.13-0.04-0.2l-0.22-0.13
		c-9.82-5.45-22.2-1.9-27.65,7.93c-1.66,3-2.54,6.38-2.55,9.81c0,6.49,3.3,12.74,8.67,16.64c0.19,0.14,0.4,0.26,0.62,0.35
		c0.08,0.03,0.18,0.01,0.24-0.04l0.07-0.11c0.05-0.05,0.07-0.11,0.07-0.18c0-0.15-0.2-0.29-0.46-0.66
		c-0.66-0.98-1.02-2.14-1.03-3.32c-0.02-1.09,0.33-2.15,0.99-3.02c0.81,0.86,2.57,2.4,2.53,3.83c-0.04,1.43-1.52,1.5-1.19,2.68
		c0.2,0.75,0.75,0.44,0.86,1.01c0.15,0.97,1.47,1.61,2.05,1.52c0.15-0.02,0.26,0.09,0.53,0.37c0.26,0.29,1.36,0.35,1.8,0.26
		c0.44-0.09,0.9,0.31,1.76,0.2c0.86-0.11,1.34-0.2,1.8-0.2s4.95-0.07,7.92,0.4c0.53,0.09,0.68-0.15,0.46-0.55
		c-1.08-1.89-1.23-3.48-0.62-5.5c1.1,0.09,2.68,0.37,4.75-0.88c0.71-0.45,1.14-1.25,1.12-2.09c-0.02-0.46-0.22-1.03-0.11-1.47
		c0.11-0.44,0.29-0.59,0.46-0.7c0.79-0.57,0.22-1.01,0.09-1.06c0.34-0.22,0.45-0.66,0.24-1.01c-0.15-0.15-0.59-1.36-0.09-1.61
		c0.51-0.24,1.17-0.4,1.78-0.68c0.51-0.21,0.75-0.79,0.54-1.29c0-0.01-0.01-0.02-0.01-0.03C39.37,42.35,37.74,38.61,37.7,38.52z
		 M15.27,56.59c-0.15,0.04-0.64,0.07-0.53-0.59c0.11-0.66,0.51-0.57,0.73-0.35S15.31,56.26,15.27,56.59z M34.42,28.88
		c0.26-0.18,0.55-0.24,0.73-0.09c0.57,0.57-0.64,0.9-0.4,1.34c0.43,0.71,0.99,1.34,1.65,1.85c0.26,0.22,0.31,0.68-0.73,0.9
		c-1.03,0.22-5.19,1.3-7.39,3.63c-2.75,2.91-4.49,6.67-4.73,6.16c-0.24-0.51-0.79-0.62-0.7-0.77
		C26.78,35.13,32.96,29.79,34.42,28.88z M36.22,33.66c-0.22,0.64-2,1.21-1.91,0.77c0.09-0.44,0-0.48,0.13-0.51
		c0.13-0.02,0.77-0.24,1.65-0.46C36.18,33.44,36.29,33.48,36.22,33.66L36.22,33.66z M31.69,34.83c-0.04-0.26,1.87-0.9,1.94-0.73
		s-0.4,1.32-1.03,1.54c-0.64,0.22-1.03,0.2-1.01,0.09C31.67,35.44,31.71,35.13,31.69,34.83L31.69,34.83z M27.22,44.86
		c-0.88,0.55-1.36-0.48-1.5-0.68c-0.14-0.2-0.18-0.45-0.11-0.68c0.07-0.31,0.11-0.73-0.09-2.05c-0.09-0.59,1.1-2.02,1.39-2.29
		s0.68,0.13,0.7,0.57c0.07,0.79-0.4,1.23-0.86,1.58c-0.46,0.35-0.68,0.97-0.57,1.12c0.17,0.06,0.36-0.03,0.42-0.2
		c0.33-0.73,1.32-1.08,1.47-1.47s0.07-0.97,0.04-1.23c-0.02-0.26,0.2-0.26,0.35-0.24s0.31,0.31,0.4,0.59
		c0.64,1.65-0.95,2.64-1.21,3.04C27.4,43.32,27.9,44.44,27.22,44.86z M28.56,38.46c-0.48,0.33-1.17-0.11-1.03-0.31
		c0.69-0.96,1.55-1.78,2.53-2.42c0.75-0.46,0.84-0.51,0.88-0.24c0.03,0.6-0.17,1.2-0.57,1.65c-0.51,0.55-1.01,0.51-1.28,0.57
		C28.83,37.77,28.91,38.21,28.56,38.46L28.56,38.46z M24.31,44.09c-0.22-0.04-0.31-0.46-0.26-0.64c0.04-0.18,0.68-1.14,0.88-1.41
		c0.05-0.04,0.12-0.03,0.15,0.02c0.01,0.01,0.02,0.03,0.02,0.05C25.24,43.01,25.11,44.27,24.31,44.09z M31.4,27.78
		c0.52-0.24,1.08-0.36,1.65-0.35c0.18,0.02-0.42,1.06-1.45,1.5s-1.87,0.55-1.96,0.51C29.55,29.39,30.54,28.16,31.4,27.78z
		 M13.07,45.01c-0.33-0.37-0.62-0.57-0.64-0.55c-0.4,0.59-0.67,1.26-0.79,1.96c-1-1.9-1.57-4-1.65-6.14
		c-0.31-7.79,6.23-14.06,14.2-14.04c1.69,0,3.37,0.34,4.93,1.01c-0.33,0.45-0.6,0.94-0.81,1.45c0-0.42-0.11-0.75-0.09-1.01
		s-1.12,0.2-2.13,1.83c-0.22,0.36-0.38,0.76-0.48,1.17c-0.02-0.62-0.15-1.08-0.2-1.08c-0.85,0.37-1.53,1.07-1.87,1.94
		c-0.1,0.24-0.18,0.49-0.24,0.75c-0.04-0.42-0.15-0.7-0.2-0.7s-1.3,0.51-1.89,1.96c-0.13,0.32-0.21,0.66-0.24,1.01
		c-0.11-0.51-0.31-0.81-0.37-0.75c-0.42,0.53-1.25,0.77-1.67,2.11c-0.1,0.3-0.15,0.61-0.15,0.92c-0.18-0.44-0.44-0.7-0.51-0.7
		s-1.34,1.21-1.54,2.4c-0.06,0.42-0.05,0.86,0.04,1.28c-0.24-0.4-0.55-0.66-0.68-1.06c-0.2,0.11-1.25,1.1-1.28,2.35
		c-0.02,0.45,0.03,0.91,0.15,1.34c-0.35-0.64-0.84-0.92-0.9-0.9c-0.07,0.02-0.88,0.9-1.06,2.44C12.94,44.34,12.97,44.69,13.07,45.01
		z M29.38,27.47c0.62-0.75,1.67-1.34,1.8-1.28c0.13,0.07-0.18,1.23-0.86,1.89s-1.78,1.36-1.89,1.34S28.8,28.13,29.38,27.47z
		 M27.33,30.34c-0.5,0.38-0.92,0.86-1.23,1.41c-0.11,0.2-0.42-1.1,0.37-2.33c0.48-0.77,1.45-1.45,1.43-1.36
		C27.88,28.13,28.36,29.5,27.33,30.34z M25.11,31.99c-0.75,1.12-0.79,0.73-1.61,1.83c-0.04,0.04-0.04-1.43,0.24-2.07
		c0.46-1.03,1.25-1.63,1.36-1.65C25.22,30.07,25.52,31.37,25.11,31.99z M22.66,34.21c-0.37,0.66-0.73,0.51-1.36,1.47
		c-0.07,0.09-0.24-0.79,0.15-2c0.23-0.65,0.69-1.19,1.3-1.52C22.88,32.14,23.13,33.42,22.66,34.21z M20.4,36.56
		c-0.4,0.86-0.64,0.88-1.1,1.41c-0.07,0.09-0.4-0.81-0.09-1.94c0.31-1.12,0.88-1.23,1.17-1.54S20.82,35.66,20.4,36.56z M18.55,38.02
		c0,0.22-0.03,0.45-0.09,0.66c-0.29,0.95-0.86,1.36-1.17,1.78c-0.2-0.4-0.32-0.83-0.35-1.28c0.02-0.95,0.43-1.84,1.14-2.46
		C18.26,36.72,18.55,37.42,18.55,38.02z M16.68,40.83c-0.03,0.91-0.43,1.78-1.12,2.38c-0.29-0.51-0.45-1.09-0.48-1.67
		c-0.04-1.39,0.53-1.87,0.79-2.13C15.97,39.8,16.68,40.11,16.68,40.83z M14.01,42.22c0.4,0.2,0.86,0.75,0.9,1.8
		c0.04,1.06-0.7,1.91-1.01,2.07c-0.2-0.81-0.57-0.97-0.57-1.76C13.35,43.58,13.59,42.84,14.01,42.22z M15.62,44.97
		c1.01-0.44,2.11-0.37,2.16-0.33c0.04,0.04-0.33,1.3-1.3,1.8s-2.09,0.59-2.2,0.46C14.17,46.78,14.61,45.41,15.62,44.97z
		 M15.53,44.22c0.07-0.33,0.66-1.43,1.56-1.83l0,0c0.65-0.29,1.36-0.4,2.07-0.33c0.11,0.04-0.37,1.23-1.28,1.67
		S16.46,43.94,15.53,44.22z M17.05,41.63c0.04-0.09,0.77-1.41,1.63-1.8c0.61-0.27,1.29-0.38,1.96-0.31c0.07,0.02-0.4,1.19-1.36,1.67
		S17.01,41.74,17.05,41.63z M19.01,39.01c-0.07-0.04,0.97-1.41,1.85-1.83c0.58-0.24,1.22-0.32,1.85-0.22
		c0.07,0.07-0.42,1.21-1.43,1.65C20.56,38.91,19.79,39.04,19.01,39.01L19.01,39.01z M21.37,36.41c-0.04-0.04,0.75-1.39,1.63-1.74
		c0.88-0.35,1.69-0.02,1.96,0c0.26,0.02-0.29,0.99-1.45,1.41C22.33,36.5,21.52,36.48,21.37,36.41z M24.01,33.9
		c0.02-0.07,0.9-1.3,1.78-1.61c0.66-0.21,1.36-0.22,2.02-0.04c0.11,0.04-0.62,1.1-1.69,1.43C25.04,34.01,23.98,33.97,24.01,33.9z
		 M26.67,31.72c-0.11-0.07,0.95-1.25,1.8-1.58c0.58-0.22,1.21-0.29,1.83-0.22c0.07,0.04-0.55,1.08-1.56,1.47
		C27.73,31.79,26.8,31.81,26.67,31.72z M12.08,55.75c-4.75-3.79-7.61-9.51-7.61-15.47C4.45,29.43,13.23,20.62,24.09,20.6
		c3.19,0,6.34,0.77,9.16,2.25c0.05,0.02,0.07,0.07,0.05,0.11c-0.01,0.02-0.02,0.03-0.03,0.04c-0.81,0.78-1.56,1.62-2.24,2.51
		c-2.15-1.02-4.51-1.54-6.89-1.54c-9,0.02-16.28,7.31-16.31,16.31c-0.04,3.9,1.37,7.68,3.94,10.61c-0.28,0.65-0.43,1.36-0.42,2.07
		C11.35,53.94,11.6,54.9,12.08,55.75z M12.12,50.3H12.1c-2.37-2.8-3.65-6.35-3.61-10.01c0.01-8.64,7.01-15.64,15.65-15.65
		c2.25-0.01,4.47,0.47,6.51,1.41c-0.32,0.16-0.62,0.35-0.9,0.57c-1.77-0.76-3.68-1.14-5.61-1.12c-8.16,0.01-14.78,6.63-14.79,14.79
		c0,3.54,1.1,6.65,3.26,9.24C12.5,49.72,12.32,49.99,12.12,50.3z M12.89,49.06c-0.29-0.26-0.9-0.95-0.97-1.83v-0.13
		c0-0.95,0.42-1.89,0.53-1.98c0.11-0.09,1.17,0.73,1.19,1.91C13.64,47.78,13.37,48.5,12.89,49.06z M14.65,47.48
		c0.86-0.4,2.11-0.31,2.05-0.24s-0.4,1.28-1.36,1.76c-0.58,0.33-1.26,0.43-1.91,0.29C13.93,48.71,13.82,47.88,14.65,47.48z
		 M15.8,57.71c-0.13-0.59-0.09-1.39,0.11-1.61c0.2-0.22,1.08-0.26,1.1-0.02c0.02,0.24-0.24,1.19,0.07,2.24
		C17.01,58.48,16.06,58.42,15.8,57.71z M15.86,55.27c-0.07-0.44,0.35-0.86,0.35-1.8c0-0.95-1.45-2.77-2.44-3.81
		c0.6-0.02,1.19-0.16,1.74-0.42c1.45-0.68,1.74-2.22,1.78-2.29c-0.27-0.08-0.55-0.11-0.84-0.09l0.18-0.09
		c1.41-0.77,1.78-2.42,1.72-2.44c-0.29-0.06-0.59-0.08-0.88-0.07l0.44-0.15c1.5-0.59,1.91-2.27,1.87-2.33
		c-0.25-0.06-0.51-0.09-0.77-0.09l0.42-0.18c1.36-0.68,1.85-2.22,1.78-2.27c-0.24-0.07-0.48-0.1-0.73-0.09
		c0.34-0.08,0.67-0.19,0.99-0.33c1.47-0.64,1.96-2.05,1.89-2.11c-0.21-0.07-0.44-0.1-0.66-0.11c0.33-0.07,0.65-0.17,0.97-0.29
		c1.45-0.48,2.02-1.87,1.94-1.89l-0.81-0.18c0.5-0.03,0.98-0.12,1.45-0.29c1.56-0.53,2.11-1.47,2.16-1.89
		c-0.15-0.09-0.33-0.15-0.51-0.18c0.35-0.06,0.7-0.15,1.03-0.26c1.45-0.59,2.07-2.05,2.11-2.16c0.29-0.1,0.58-0.21,0.86-0.35
		l0.42-0.2l0.35,0.24c0.22,0.13,0.31,0.18,0.2,0.26c-5,4.25-8.74,9.64-10.37,12.24c-0.04,0.09-0.13,0.07-0.29,0.07
		c-1.74-0.13-2.73,1.96-1.96,3.92c-0.09,0.4-0.92,1.17-0.99,1.21c-0.07,0.04-0.22,0.31,0.07,0.29c0.29-0.02,0.92-0.7,1.19-0.99
		c0.09,0.13,0.48,0.44,0.29,0.62c-0.91,0.91-1.94,1.68-3.06,2.31c-0.57,0.26,0.92,0.46,3.46-1.83c0.15-0.13,0.33,0.53,0.55,0.81
		c-0.44,1.43,0.64,4.2,0.46,5.06c-0.01,0.33-0.28,0.59-0.62,0.59c-2.51,0.07-2.75-0.07-4.03,0.31c-0.59,0.18-0.44,0.57-0.02,0.46
		c0.42-0.11,1.01-0.33,3.72-0.15c0.68,0.02,1.43-0.13,1.43-1.25c0-1.12-0.79-4.05-0.53-4.47c0.22,0.17,0.49,0.28,0.77,0.31
		c-0.04,0.99,1.54,4.18,0.84,5.94c-0.26,0.66-1.41,0.59-3.39,0.4C17.03,54.94,15.93,55.67,15.86,55.27L15.86,55.27z M23.59,57.45
		c-1.3,0.44-1.83-1.08-1.61-1.41c0.22-0.33,0.97,0.22,1.61-0.2S24.36,57.19,23.59,57.45L23.59,57.45z M17.65,58.4
		c-0.18-0.81-0.24-2.2,0.09-2.53s1.08-0.2,1.06,0.04c-0.07,0.95-0.46,2.02,0.26,3.1C19.34,59.43,17.91,59.5,17.65,58.4L17.65,58.4z
		 M20.15,59.32c-0.35-0.09-1.32-1.63-0.53-3.48c0.07-0.18,1.28-0.07,1.5,0s-0.18,1.5,1.5,2.16C22.77,58.07,22.6,59.94,20.15,59.32
		L20.15,59.32z M30.54,54.19c-0.55,1.94-0.84,2.71,0,4.82c0.11,0.29,0.2,0.51-0.04,0.46c-1.69-0.31-2.07-0.57-7.42-0.13
		c-0.37,0.04,0.13-0.75,0.07-1.28c0.48-0.07,1.28-0.29,1.43-1.08s-0.46-1.67-0.4-1.8c0.77-1.47-0.04-3.1-0.68-5.85
		c-0.07-0.26,0.09-0.37,0.2-0.24c3.43,3.72,5.61,4.45,6.8,4.8C30.61,53.93,30.59,54.06,30.54,54.19L30.54,54.19z M39.32,44.05
		c-0.73,0.64-1.83,0.68-2.27,1.08c-0.44,0.4-0.33,0.55-0.09,1.14c0.24,0.59,0.24,0.37-0.24,0.51c-0.48,0.13-0.9,1.28-1.94,1.08
		c-0.4-0.07-0.11,0.18,0.04,0.2c0.57,0.07,0.81-0.11,1.01-0.31s0.48-0.53,0.79-0.64s0.64-0.11,0.66,0.13
		c0.02,0.24-0.42,0.46-0.59,0.55c0.22,0.11,0.86,0.42,0.31,0.79c-0.55,0.37-1.01-0.11-1.08-0.15c-0.07-0.04-0.37-0.04-0.29,0.07
		c0.09,0.11,1.14,0.29,0.99,0.48c-0.77,1.03-0.13,1.65-0.37,2.71s-1.69,1.65-2.82,1.85c-3.83,0.68-7.55-2.55-9.73-5.02
		c0.2-0.46,0.18-1.06-0.02-0.84c-0.2,0.22-0.15,0.53-0.62,0.64c-0.86,0.22-1.25-1.3-1.52-1.56c-1.06-1.03-1.47-2.51-0.86-3.81
		s1.98-1.03,2.51-0.24c0.53,0.79,0.37,1.54,0.75,1.83c0.37,0.29,1.06,0.04,1.19,0c0.13-0.04,0.37,0.95,1.76,0.9
		c1.39-0.04,1.3-2.35,1.52-2.55c1.89-1.85,0.92-3.5,0.57-3.87s0.22-0.79,0.33-0.81c0.93-0.19,1.7-0.82,2.07-1.69
		c0,0,1.85-0.04,2.51-1.36c0.18-0.35,0.73,0.33,1.96-0.64c0.06-0.08,0.17-0.09,0.25-0.03c0.03,0.02,0.05,0.06,0.06,0.09
		c0.81,1.96,1.14,2.49,1.08,3.48s1.91,4.73,2.07,5.08C39.48,43.47,39.5,43.87,39.32,44.05z"/>
	<path class="st0" d="M34.88,36.98c-1.08,0.04-2.33,1.36-2.73,1.54c-0.4,0.18-0.29,0.33-0.04,0.24c0.24-0.09,1.3-1.03,2.35-1.41
		c1.06-0.37,0.79,0.4,1.1,0.35C35.87,37.66,35.49,36.96,34.88,36.98z"/>
	<path class="st0" d="M35.12,38.04c-0.09,0.02,0.09,0.48-0.37,0.51c-1.01,0.07-1.83,1.03-2.44,1.32c-0.26,0.15-0.54,0.25-0.84,0.31
		c-0.04,0.01-0.06,0.04-0.06,0.08s0.04,0.06,0.08,0.06c2.57,0.35,3.57,0.24,3.59,0.15c0.02-0.09-0.13-0.26-0.09-0.37
		c0.11-0.4,0.11-0.81,0.02-1.21c-0.04-0.18,0.4-0.07,0.4-0.29S35.27,38.02,35.12,38.04z M34.72,40.09c-0.04,0.2-1.21,0.11-1.83,0.04
		c-0.15,0-0.4-0.02,0.07-0.31c0.46-0.29,0.9-0.62,1.58-0.75c0.08,0,0.16,0.05,0.18,0.13C34.78,39.5,34.78,39.79,34.72,40.09
		L34.72,40.09z"/>
	<path class="st0" d="M38.09,43.76c-0.2,0-0.99,0.35-1.3,0.55s-0.97,0.59-0.92-0.18c0.02-0.29,0.2-0.97,0.2-1.17
		c0-0.2-0.22-0.15-0.24,0c-0.02,0.39-0.07,0.78-0.15,1.17c-0.09,0.4,0.26,0.88,0.79,0.59c0.53-0.29,1.06-0.64,1.61-0.75
		C38.2,43.96,38.22,43.76,38.09,43.76z"/>
	<path class="st0" d="M23.15,46.58c-0.15-0.07-0.11,0.26-0.31,0.22c-0.2-0.04-0.04-0.29-0.4-0.66c-0.35-0.37-0.62-0.26-0.95-0.79
		c-0.33-0.53-0.07-2.64,0.68-2.38c0.75,0.26,0.35,1.1,0.22,1.76c-0.13,0.66,0.55,0.62,0.62,0.46c0.07-0.15-0.24-0.2-0.31-0.42
		s0.77-1.67-0.4-2.07c-0.84-0.29-1.41,0.79-1.3,1.96c0.03,0.7,0.47,1.31,1.12,1.56c0.51,0.18,0.13,0.88,0.81,0.88
		C23.26,47.11,23.32,46.64,23.15,46.58z"/>
	<path class="st0" d="M29.93,24.53c0.04,0.02,0.07,0,0.11-0.02l1.43-1.83c0.02-0.05,0-0.1-0.04-0.13l-0.24-0.09
		c-0.04-0.02-0.08-0.01-0.11,0.02l-1.43,1.83c-0.04,0.04-0.02,0.11,0.04,0.13L29.93,24.53z"/>
	<path class="st0" d="M27.26,23.78l0.24,0.07c0.05,0,0.09-0.02,0.11-0.07l0.84-2.07c0.02-0.04,0.01-0.1-0.03-0.12
		c-0.01-0.01-0.02-0.01-0.03-0.01l-0.26-0.04h-0.07l-0.86,2.11c-0.02,0.04-0.01,0.1,0.03,0.12C27.24,23.77,27.25,23.78,27.26,23.78z
		"/>
	<path class="st0" d="M24.31,23.49h0.24c0.04,0.02,0.09-0.02,0.09-0.07l0.22-2.2c0-0.05-0.04-0.1-0.09-0.11h-0.24
		c-0.07,0-0.09,0.04-0.11,0.09l-0.2,2.2C24.23,23.45,24.27,23.49,24.31,23.49L24.31,23.49z"/>
	<path class="st0" d="M21.45,23.71l0.24-0.04c0.04,0,0.09-0.04,0.07-0.09l-0.42-2.18c0-0.04-0.04-0.09-0.09-0.07h-0.26
		c-0.04,0.02-0.09,0.07-0.07,0.11l0.42,2.18C21.34,23.69,21.39,23.71,21.45,23.71z"/>
	<path class="st0" d="M18.5,24.39l0.11,0.04l0.24-0.09c0.05-0.01,0.08-0.05,0.08-0.1c0-0.01-0.01-0.02-0.01-0.03l-1.01-1.98
		c-0.02-0.04-0.07-0.06-0.11-0.04l-0.22,0.07c-0.05,0.01-0.08,0.05-0.08,0.1c0,0.01,0.01,0.02,0.01,0.03L18.5,24.39z"/>
	<path class="st0" d="M15.78,25.65c0.02,0.04,0.07,0.04,0.11,0.02l0.22-0.13c0.04-0.03,0.06-0.08,0.03-0.12c0,0-0.01-0.01-0.01-0.01
		l-1.47-1.69c-0.04-0.04-0.09-0.04-0.11-0.02l-0.22,0.13c-0.07,0.02-0.07,0.09-0.02,0.13L15.78,25.65z"/>
	<path class="st0" d="M13.22,27.45c0.04,0.02,0.09,0.02,0.11-0.02l0.2-0.15c0.04-0.04,0.04-0.11,0-0.15l-1.87-1.3h-0.11L11.35,26
		c-0.04,0.04-0.04,0.11,0,0.15L13.22,27.45z"/>
	<path class="st0" d="M11.02,29.74c0.04,0,0.07-0.01,0.09-0.04l0.18-0.2c0.04-0.04,0.02-0.11-0.04-0.13l-2.16-0.84
		C9.04,28.51,9,28.51,8.97,28.55l-0.15,0.2c-0.04,0.03-0.04,0.09-0.01,0.12c0.01,0.02,0.03,0.03,0.05,0.03L11.02,29.74z"/>
	<path class="st0" d="M6.93,32.1l2.31,0.33c0.04,0,0.09-0.02,0.09-0.07l0.13-0.22c0.02-0.04,0.01-0.1-0.03-0.12
		c-0.01-0.01-0.02-0.01-0.03-0.01l-2.31-0.33l-0.11,0.04c-0.03,0.08-0.06,0.17-0.11,0.24c-0.02,0.04-0.01,0.1,0.03,0.12
		C6.9,32.09,6.92,32.09,6.93,32.1z"/>
	<path class="st0" d="M5.67,35.6l2.35-0.22c0.04,0,0.07-0.03,0.07-0.07l0,0c0.04-0.08,0.06-0.16,0.09-0.24
		c0.02-0.04,0.01-0.1-0.03-0.12c-0.02-0.01-0.04-0.01-0.06-0.01l-2.38,0.22l-0.09,0.07l-0.07,0.26C5.56,35.55,5.61,35.62,5.67,35.6z
		"/>
	<path class="st0" d="M7.46,38.41c0-0.09,0.02-0.2,0.02-0.29c0-0.09-0.04-0.11-0.11-0.09l-2.29,0.79c-0.04,0.02-0.07,0.04-0.07,0.09
		s-0.02,0.18-0.02,0.26c-0.01,0.05,0.03,0.09,0.07,0.1c0.02,0,0.04,0,0.06-0.01l2.27-0.79C7.43,38.48,7.46,38.45,7.46,38.41
		L7.46,38.41z"/>
	<path class="st0" d="M7.39,41.56v-0.29c-0.01-0.06-0.06-0.1-0.12-0.1c-0.01,0-0.02,0-0.03,0.01l-2.07,1.39
		c-0.04,0-0.04,0.04-0.04,0.09s0.02,0.18,0.02,0.26c0.02,0.06,0.08,0.09,0.14,0.07c0.01,0,0.01,0,0.02-0.01l2.07-1.36
		C7.39,41.6,7.41,41.58,7.39,41.56z"/>
	<path class="st0" d="M7.92,44.68L7.85,44.4c-0.01-0.05-0.05-0.08-0.1-0.07c-0.02,0-0.04,0.01-0.05,0.03L6,46.23
		c-0.02,0.02-0.04,0.07-0.02,0.09s0.07,0.18,0.09,0.26c0.01,0.05,0.05,0.08,0.1,0.07c0.02,0,0.04-0.01,0.05-0.03l1.67-1.85
		C7.92,44.75,7.92,44.73,7.92,44.68z"/>
	<path class="st0" d="M8.78,47.48l-1.19,2.27c-0.02,0.02,0,0.07,0,0.09l0.15,0.26c0.03,0.04,0.08,0.05,0.12,0.02
		c0.01-0.01,0.03-0.02,0.03-0.04l1.19-2.24c0-0.02,0.02-0.04,0-0.09l-0.13-0.26c-0.04-0.05-0.11-0.06-0.15-0.02
		C8.79,47.46,8.78,47.47,8.78,47.48z"/>
	<path class="st0" d="M10.47,50.03c-0.04-0.07-0.15-0.04-0.15,0.02L9.68,52.7c-0.02,0.04,0,0.07,0,0.09L9.9,53
		c0.03,0.04,0.08,0.05,0.12,0.02c0.01-0.01,0.03-0.02,0.03-0.04l0.62-2.62c0.02-0.02,0-0.04,0-0.07L10.47,50.03z"/>
</g>
</svg>
