<?xml version="1.0" encoding="UTF-8"?>
<svg version="1.1" xmlns="http://www.w3.org/2000/svg" width="500" height="500">
<path d="M0 0 C165 0 330 0 500 0 C500 165 500 330 500 500 C335 500 170 500 0 500 C0 335 0 170 0 0 Z M28 28 C28 174.85 28 321.7 28 473 C174.85 473 321.7 473 473 473 C473 326.15 473 179.3 473 28 C326.15 28 179.3 28 28 28 Z " fill="#5AA362" transform="translate(0,0)"/>
<path d="M0 0 C28 0 28 0 34.9375 6.4375 C36.49609375 8.64477539 36.49609375 8.64477539 37.5 10.59765625 C40.0577866 15.22901824 43.15896275 19.23548618 46.4375 23.375 C47.52936152 24.80215372 48.61789281 26.23186125 49.703125 27.6640625 C53.02317286 32.03223486 56.35396102 36.39211788 59.6875 40.75 C60.22487793 41.4527002 60.76225586 42.15540039 61.31591797 42.87939453 C64.72736626 47.33939675 68.14167218 51.79718701 71.5625 56.25 C72.32691406 57.24515625 73.09132813 58.2403125 73.87890625 59.265625 C75.89409592 61.86347541 77.94610983 64.43263729 80 67 C80.33 44.89 80.66 22.78 81 0 C89.91 0 98.82 0 108 0 C108 36.3 108 72.6 108 110 C98.76 110 89.52 110 80 110 C71.20620438 101.20620438 71.20620438 101.20620438 69.01171875 97.13671875 C66.07903358 92.0100722 62.63933427 87.52670501 58.9375 82.9375 C57.77137998 81.44532775 56.60860111 79.95053825 55.44921875 78.453125 C54.87864746 77.71771484 54.30807617 76.98230469 53.72021484 76.22460938 C49.29353571 70.49995705 44.90950369 64.74255492 40.51953125 58.98974609 C38.10105711 55.82288165 35.67700548 52.66032935 33.25 49.5 C32.45078125 48.4584375 31.6515625 47.416875 30.828125 46.34375 C29.20533717 44.16444978 29.20533717 44.16444978 28 43 C27.67 65.11 27.34 87.22 27 110 C18.09 110 9.18 110 0 110 C0 73.7 0 37.4 0 0 Z " fill="#5AA362" transform="translate(110,105)"/>
<path d="M0 0 C1.25159912 0.00523682 2.50319824 0.01047363 3.79272461 0.01586914 C4.78942421 0.01799156 4.78942421 0.01799156 5.80625916 0.02015686 C7.93590735 0.02577021 10.06545175 0.03832485 12.19506836 0.05102539 C13.63582205 0.05603868 15.07657739 0.06060188 16.51733398 0.06469727 C20.05577938 0.07574394 23.59416375 0.09301747 27.13256836 0.11352539 C34.84237015 17.7651246 42.42345189 35.46657519 49.87084961 53.23046875 C53.52452622 61.94133477 57.20593104 70.63928468 60.92944336 79.32055664 C61.72279528 81.1735593 62.51609018 83.02658638 63.30932617 84.87963867 C64.46383138 87.57631826 65.62011156 90.27215811 66.78234863 92.96551514 C67.85171763 95.44384925 68.91461947 97.9248667 69.97631836 100.40649414 C70.29735535 101.14527298 70.61839233 101.88405182 70.94915771 102.6452179 C72.22050309 105.63066694 73.13256836 107.83312878 73.13256836 111.11352539 C63.56256836 111.11352539 53.99256836 111.11352539 44.13256836 111.11352539 C42.97756836 108.34977539 41.82256836 105.58602539 40.63256836 102.73852539 C40.26711914 101.86921387 39.90166992 100.99990234 39.52514648 100.10424805 C39.09878906 99.07630127 39.09878906 99.07630127 38.66381836 98.02758789 C38.37055664 97.32585449 38.07729492 96.62412109 37.77514648 95.90112305 C37.13256836 94.11352539 37.13256836 94.11352539 37.13256836 92.11352539 C20.63256836 92.44352539 4.13256836 92.77352539 -12.86743164 93.11352539 C-15.17743164 98.72352539 -17.48743164 104.33352539 -19.86743164 110.11352539 C-20.86743164 111.11352539 -20.86743164 111.11352539 -23.64306641 111.22705078 C-24.852771 111.22181396 -26.06247559 111.21657715 -27.30883789 111.21118164 C-28.61401367 111.20795898 -29.91918945 111.20473633 -31.26391602 111.20141602 C-32.65258854 111.1930594 -34.04126041 111.18459444 -35.42993164 111.17602539 C-36.8225082 111.17101205 -38.21508646 111.16644886 -39.60766602 111.16235352 C-43.02763034 111.15051973 -46.44751008 111.13403419 -49.86743164 111.11352539 C-47.73711476 104.2666719 -45.09031444 97.73447121 -42.21899414 91.16821289 C-41.76983643 90.13225983 -41.32067871 89.09630676 -40.85791016 88.02896118 C-39.90034693 85.82103754 -38.94117965 83.61380898 -37.98052979 81.40722656 C-35.47627091 75.65403563 -32.98453792 69.89542603 -30.49243164 64.13696289 C-30.00215485 63.00470276 -29.51187805 61.87244263 -29.00674438 60.70587158 C-25.11068433 51.69907088 -21.2719276 42.66980299 -17.49243164 33.61352539 C-16.98760254 32.40470703 -16.48277344 31.19588867 -15.96264648 29.95043945 C-14.59572769 26.67223327 -13.23123614 23.39302816 -11.86743164 20.11352539 C-10.28764681 16.32036499 -8.70396814 12.5288659 -7.11743164 8.73852539 C-6.79339355 7.95799805 -6.46935547 7.1774707 -6.13549805 6.37329102 C-3.52553114 0.13958042 -3.52553114 0.13958042 0 0 Z M11.13256836 29.11352539 C8.98979797 34.4677919 6.85373421 39.82466572 4.72387695 45.18408203 C3.99818292 47.00740859 3.27065251 48.83000537 2.54125977 50.65185547 C1.49395338 53.26869652 0.45325092 55.88807978 -0.58618164 58.50805664 C-0.91428833 59.3237764 -1.24239502 60.13949615 -1.58044434 60.97993469 C-2.03091125 62.12077766 -2.03091125 62.12077766 -2.49047852 63.28466797 C-2.7569519 63.95307205 -3.02342529 64.62147614 -3.29797363 65.31013489 C-4.01798922 67.27512535 -4.01798922 67.27512535 -3.86743164 70.11352539 C6.69256836 70.11352539 17.25256836 70.11352539 28.13256836 70.11352539 C26.26771065 64.51895225 24.39118315 58.98764323 22.28491211 53.48852539 C22.02754776 52.8155542 21.77018341 52.14258301 21.50502014 51.44921875 C20.96756967 50.04732126 20.42894327 48.64587404 19.88916016 47.24487305 C19.06211655 45.0928341 18.24485336 42.93722535 17.42749023 40.78149414 C16.90139563 39.41277452 16.37472433 38.04427638 15.84741211 36.67602539 C15.48328468 35.70898682 15.48328468 35.70898682 15.11180115 34.72241211 C13.92445238 31.25095178 13.92445238 31.25095178 11.13256836 29.11352539 Z " fill="#5AA362" transform="translate(316.867431640625,285.886474609375)"/>
<path d="M0 0 C8.91 0 17.82 0 27 0 C27 28.38 27 56.76 27 86 C46.14 86 65.28 86 85 86 C85 93.92 85 101.84 85 110 C56.95 110 28.9 110 0 110 C0 73.7 0 37.4 0 0 Z " fill="#5AA362" transform="translate(286,105)"/>
</svg>
