<?xml version="1.0" encoding="UTF-8"?>
<svg width="92px" height="32px" viewBox="0 0 92 32" version="1.1" xmlns="http://www.w3.org/2000/svg" xmlns:xlink="http://www.w3.org/1999/xlink">
    <!-- Generator: Sketch 52.5 (67469) - http://www.bohemiancoding.com/sketch -->
    <title>LOGO/Skapia/Original</title>
    <desc>Created with Sketch.</desc>
    <g id="LOGO/Skapia/Original" stroke="none" stroke-width="1" fill="none" fill-rule="evenodd">
        <g id="skapia_farger-rgb">
            <g id="Group" fill="#853376">
                <path d="M12.7755882,22.2473143 C12.8267647,22.4731429 12.8629412,22.6980571 12.885,22.9220571 C12.9070588,23.1451429 12.9141176,23.3673143 12.9070588,23.5867429 C12.9008824,23.8061714 12.8805882,24.0228571 12.8470588,24.2368 C12.8144118,24.4507429 12.7685294,24.6610286 12.7102941,24.8676571 C12.6529412,25.0742857 12.5832353,25.2763429 12.5020588,25.4738286 C12.4217647,25.6713143 12.33,25.8642286 12.2276471,26.0507429 C12.1252941,26.2372571 12.0132353,26.4182857 11.8923529,26.5929143 C11.7705882,26.7675429 11.64,26.9357714 11.5005882,27.0966857 C11.3611765,27.2576 11.2138235,27.4112 11.0585294,27.5565714 C10.9032353,27.7019429 10.74,27.8390857 10.5705882,27.9670857 C10.4011765,28.0950857 10.2247059,28.2148571 10.0420588,28.3236571 C9.85941176,28.4324571 9.67147059,28.5330286 9.47823529,28.6217143 C9.285,28.7104 9.08735294,28.7890286 8.88441176,28.8566857 C8.68235294,28.9234286 8.47588235,28.9792 8.26588235,29.0230857 C8.05588235,29.0660571 7.84323529,29.0980571 7.62794118,29.1154286 C7.41264706,29.1337143 7.19470588,29.1382857 6.97588235,29.1300571 C6.77029412,29.1218286 6.56823529,29.1053714 6.37058824,29.0806857 C6.17294118,29.056 5.97970588,29.0221714 5.79088235,28.9810286 C5.60205882,28.9389714 5.41764706,28.8896 5.23764706,28.8310857 C5.05764706,28.7725714 4.88205882,28.7058286 4.71176471,28.6317714 C4.54147059,28.5568 4.37470588,28.4736 4.21323529,28.3821714 C4.05176471,28.2907429 3.89558824,28.1910857 3.74382353,28.0832 C3.59205882,27.9753143 3.44558824,27.8592 3.30352941,27.7348571 C3.16147059,27.6105143 3.02470588,27.4779429 2.89235294,27.3380571 C2.76,27.1981714 2.63382353,27.0491429 2.51205882,26.8918857 C2.39029412,26.7346286 2.27382353,26.5700571 2.16264706,26.3972571 C2.05147059,26.2244571 1.94558824,26.0434286 1.84588235,25.8541714 C1.74529412,25.6649143 1.65088235,25.4674286 1.56176471,25.2626286 C1.47264706,25.0578286 1.38882353,24.8438857 1.31029412,24.6226286 C1.23176471,24.4013714 1.15941176,24.1718857 1.09323529,23.9341714 C1.02617647,23.6964571 0.965294118,23.4514286 0.910588235,23.1981714 C0.855882353,22.9449143 0.806470588,22.6834286 0.763235294,22.4146286 C0.700588235,22.6157714 0.648529412,22.8251429 0.607058824,23.0418286 C0.565588235,23.2585143 0.533823529,23.4816 0.513529412,23.7110857 C0.493235294,23.9405714 0.482647059,24.1737143 0.484411765,24.4105143 C0.486176471,24.6473143 0.497647059,24.8877714 0.520588235,25.1291429 C0.543529412,25.3705143 0.577941176,25.6137143 0.624705882,25.8569143 C0.670588235,26.0992 0.727941176,26.3414857 0.797647059,26.5819429 C0.867352941,26.8224 0.948529412,27.0601143 1.04117647,27.2932571 C1.13470588,27.5273143 1.23970588,27.7568 1.35705882,27.9798857 C1.47441176,28.2029714 1.605,28.4214857 1.74705882,28.6317714 C1.89,28.8420571 2.04529412,29.0441143 2.21294118,29.2370286 C2.38147059,29.4299429 2.56235294,29.6128 2.75647059,29.7846857 C2.95058824,29.9565714 3.15882353,30.1165714 3.37941176,30.2637714 C3.6,30.4109714 3.83470588,30.5444571 4.08352941,30.6633143 C4.33235294,30.7821714 4.59441176,30.8854857 4.87058824,30.9723429 C5.14676471,31.0592 5.43705882,31.1286857 5.74147059,31.1798857 C6.04588235,31.2310857 6.36529412,31.2630857 6.69882353,31.2749714 C7.09323529,31.2886857 7.47,31.2758857 7.82823529,31.2393143 C8.18647059,31.2027429 8.52705882,31.1424 8.84911765,31.0601143 C9.17205882,30.9778286 9.47647059,30.8745143 9.76411765,30.7529143 C10.0517647,30.6313143 10.3217647,30.4905143 10.575,30.3332571 C10.8282353,30.1769143 11.0638235,30.0032 11.2826471,29.8176 C11.5014706,29.6310857 11.7035294,29.4317714 11.8897059,29.2205714 C12.075,29.0093714 12.2444118,28.7881143 12.3970588,28.5586286 C12.5497059,28.3291429 12.6864706,28.0905143 12.8064706,27.8464 C12.9273529,27.6022857 13.0314706,27.3536 13.1205882,27.1003429 C13.2097059,26.848 13.2820588,26.592 13.3402941,26.3369143 C13.3985294,26.0818286 13.44,25.8249143 13.4673529,25.5707429 C13.4947059,25.3165714 13.5061765,25.0651429 13.5035294,24.8173714 C13.5008824,24.5705143 13.4832353,24.3282286 13.4505882,24.0932571 C13.4179412,23.8582857 13.3711765,23.6306286 13.3102941,23.4139429 C13.2494118,23.1963429 13.1735294,22.9888 13.0835294,22.7940571 C12.9961765,22.5965714 12.8929412,22.4137143 12.7755882,22.2473143 Z" id="Path"></path>
                <path d="M1.55294118,9.02948571 C1.50176471,8.80365714 1.46558824,8.57874286 1.44352941,8.35565714 C1.42235294,8.13165714 1.41529412,7.90948571 1.42147059,7.69005714 C1.42764706,7.47062857 1.44794118,7.25394286 1.48147059,7.04 C1.51411765,6.82605714 1.56,6.61577143 1.61823529,6.40914286 C1.67558824,6.20251429 1.74529412,6.00045714 1.82647059,5.80297143 C1.90676471,5.6064 1.99852941,5.41348571 2.1,5.22697143 C2.20147059,5.04045714 2.31441176,4.85942857 2.43529412,4.6848 C2.55705882,4.51017143 2.68764706,4.34194286 2.82705882,4.18102857 C2.96647059,4.02011429 3.11470588,3.86651429 3.27,3.72114286 C3.42529412,3.57577143 3.58852941,3.43862857 3.75794118,3.31062857 C3.92735294,3.18262857 4.10382353,3.06285714 4.28647059,2.95405714 C4.46911765,2.84434286 4.65705882,2.74468571 4.85029412,2.656 C5.04264706,2.5664 5.24117647,2.48868571 5.44323529,2.42102857 C5.64529412,2.35428571 5.85176471,2.29851429 6.06176471,2.25554286 C6.27176471,2.21257143 6.48441176,2.18057143 6.69970588,2.1632 C6.915,2.14491429 7.13294118,2.14034286 7.35176471,2.14857143 C7.55735294,2.1568 7.75941176,2.17325714 7.95705882,2.19794286 C8.15470588,2.22262857 8.34705882,2.25645714 8.53588235,2.2976 C8.72470588,2.33965714 8.90911765,2.38902857 9.08911765,2.44754286 C9.26911765,2.50605714 9.44470588,2.5728 9.615,2.64685714 C9.78529412,2.72182857 9.95205882,2.80502857 10.1135294,2.89645714 C10.275,2.98788571 10.4311765,3.08754286 10.5829412,3.19542857 C10.7347059,3.30331429 10.8811765,3.41942857 11.0232353,3.54377143 C11.1652941,3.66811429 11.3020588,3.80068571 11.4344118,3.94057143 C11.5658824,4.08137143 11.6929412,4.22948571 11.8147059,4.38674286 C11.9364706,4.544 12.0529412,4.70857143 12.1641176,4.88137143 C12.2752941,5.05417143 12.3811765,5.2352 12.4808824,5.42445714 C12.5814706,5.61371429 12.6758824,5.8112 12.765,6.016 C12.8541176,6.2208 12.9379412,6.43474286 13.0164706,6.656 C13.095,6.87725714 13.1673529,7.10674286 13.2335294,7.34445714 C13.3005882,7.58217143 13.3614706,7.8272 13.4161765,8.08045714 C13.4708824,8.33371429 13.5202941,8.5952 13.5635294,8.864 C13.6191176,8.65462857 13.6658824,8.43702857 13.7029412,8.21394286 C13.74,7.99085714 13.7673529,7.76137143 13.7841176,7.52822857 C13.8008824,7.29508571 13.8079412,7.05737143 13.8052941,6.81691429 C13.8017647,6.57645714 13.7885294,6.33417143 13.7638235,6.09097143 C13.7391176,5.84777143 13.7038235,5.60365714 13.6579412,5.36045714 C13.6120588,5.11725714 13.5547059,4.87497143 13.4858824,4.63634286 C13.4170588,4.3968 13.3367647,4.16 13.245,3.92868571 C13.1532353,3.69645714 13.0491176,3.4688 12.9326471,3.24754286 C12.8161765,3.02628571 12.6882353,2.81051429 12.5479412,2.60297143 C12.4067647,2.39542857 12.2541176,2.19611429 12.0873529,2.00594286 C11.9205882,1.81577143 11.7423529,1.63565714 11.55,1.46742857 C11.3576471,1.2992 11.1520588,1.14102857 10.9332353,0.996571429 C10.7144118,0.852114286 10.4814706,0.721371429 10.2344118,0.604342857 C9.98735294,0.488228571 9.72705882,0.386742857 9.45264706,0.301714286 C9.17735294,0.216685714 8.88882353,0.148114286 8.58441176,0.0987428571 C8.28088235,0.0484571429 7.96235294,0.0164571429 7.62882353,0.00548571429 C7.23441176,-0.00822857143 6.85764706,0.00457142857 6.49941176,0.0411428571 C6.14117647,0.0777142857 5.80058824,0.138057143 5.47852941,0.220342857 C5.15647059,0.302628571 4.84941176,0.405028571 4.56176471,0.527542857 C4.27411765,0.650057143 4.00411765,0.789942857 3.75088235,0.946285714 C3.49764706,1.10262857 3.26205882,1.27634286 3.04323529,1.46285714 C2.82441176,1.64937143 2.62235294,1.84868571 2.43617647,2.05988571 C2.25088235,2.27108571 2.08147059,2.49234286 1.92882353,2.72182857 C1.77617647,2.95131429 1.63941176,3.18994286 1.51941176,3.43405714 C1.39941176,3.67817143 1.29441176,3.92685714 1.20529412,4.1792 C1.11617647,4.43154286 1.04294118,4.68754286 0.985588235,4.94354286 C0.928235294,5.19954286 0.885882353,5.45554286 0.858529412,5.70971429 C0.831176471,5.96388571 0.819705882,6.21531429 0.822352941,6.46308571 C0.825,6.70994286 0.842647059,6.95222857 0.875294118,7.1872 C0.907941176,7.42217143 0.954705882,7.64982857 1.01558824,7.86651429 C1.07647059,8.08411429 1.15235294,8.29165714 1.24235294,8.4864 C1.33235294,8.68114286 1.43558824,8.86308571 1.55294118,9.02948571 Z" id="Path"></path>
                <path d="M13.7488235,19.0336 C13.7214706,18.9924571 13.6914706,18.9485714 13.6605882,18.9001143 C13.6288235,18.8516571 13.5952941,18.8004571 13.5582353,18.7446857 C13.5211765,18.6898286 13.4805882,18.6313143 13.4364706,18.5691429 C13.3923529,18.5078857 13.3447059,18.4429714 13.2917647,18.3753143 C13.2388235,18.3076571 13.1823529,18.2372571 13.1197059,18.1641143 C13.0570588,18.0909714 12.9891176,18.0150857 12.915,17.9364571 C12.8408824,17.8578286 12.7605882,17.7773714 12.6732353,17.6941714 C12.5858824,17.6109714 12.4923529,17.5259429 12.3908824,17.4390857 C12.2894118,17.3522286 12.18,17.2626286 12.0626471,17.1721143 C11.9452941,17.0816 11.8191176,16.9892571 11.6832353,16.8950857 C11.5482353,16.8009143 11.4035294,16.7058286 11.2491176,16.6089143 C11.0947059,16.512 10.9305882,16.4141714 10.755,16.3154286 C10.5802941,16.2166857 10.3941176,16.1170286 10.1973529,16.0164571 C10.0005882,15.9158857 9.79147059,15.8144 9.57088235,15.7129143 C9.35029412,15.6114286 9.11735294,15.5081143 8.87117647,15.4057143 C8.625,15.3033143 8.36647059,15.2 8.09382353,15.0966857 C8.06117647,15.0848 8.00470588,15.0646857 7.92705882,15.0381714 C7.84941176,15.0116571 7.75058824,14.9778286 7.63411765,14.9366857 C7.51764706,14.8955429 7.38176471,14.8470857 7.23176471,14.7904 C7.08176471,14.7337143 6.91588235,14.6706286 6.73764706,14.5993143 C6.55941176,14.528 6.36882353,14.4493714 6.16852941,14.3625143 C5.96823529,14.2756571 5.75911765,14.1814857 5.54294118,14.0790857 C5.32676471,13.9766857 5.10441176,13.8669714 4.87852941,13.7490286 C4.65264706,13.6310857 4.42235294,13.5049143 4.19205882,13.3705143 C3.96176471,13.2361143 3.73058824,13.0944 3.50117647,12.9435429 C3.27176471,12.7926857 3.045,12.6345143 2.82352941,12.4681143 C2.60205882,12.3017143 2.385,12.1261714 2.17676471,11.9424 C1.96852941,11.7586286 1.76823529,11.5666286 1.57852941,11.3664 C1.38882353,11.1661714 1.21058824,10.9568 1.04647059,10.7392 C0.882352941,10.5216 0.731470588,10.2948571 0.597352941,10.0598857 C0.463235294,9.82491429 0.346764706,9.5808 0.248823529,9.32754286 C0.15,9.07428571 0.0723529412,8.8128 0.0176470588,8.54125714 C0.00970588235,8.64182857 0.00441176471,8.7424 0.00176470588,8.84388571 C-0.000882352941,8.94537143 -2.71050543e-20,9.04777143 0.00352941176,9.15017143 C0.00705882353,9.25257143 0.0132352941,9.35497143 0.0229411765,9.45828571 C0.0326470588,9.5616 0.0441176471,9.66491429 0.0591176471,9.76822857 C0.0741176471,9.87154286 0.0917647059,9.97485714 0.112941176,10.0790857 C0.134117647,10.1824 0.157058824,10.2866286 0.183529412,10.3899429 C0.21,10.4932571 0.239117647,10.5974857 0.270882353,10.7008 C0.302647059,10.8041143 0.337941176,10.9083429 0.375,11.0116571 C0.412941176,11.1149714 0.452647059,11.2182857 0.495882353,11.3216 C0.539117647,11.4249143 0.585,11.5273143 0.633529412,11.6297143 C0.682058824,11.7321143 0.733235294,11.8336 0.787058824,11.9350857 C0.840882353,12.0365714 0.897352941,12.1371429 0.956470588,12.2377143 C1.01558824,12.3382857 1.07735294,12.4379429 1.14176471,12.5376 C1.20617647,12.6363429 1.27323529,12.7350857 1.34294118,12.8329143 C1.41264706,12.9307429 1.485,13.0276571 1.56,13.1236571 C1.635,13.2196571 1.71264706,13.3147429 1.79205882,13.4098286 C1.87764706,13.5104 1.96411765,13.6073143 2.05235294,13.7014857 C2.14058824,13.7956571 2.22970588,13.8861714 2.32058824,13.9739429 C2.41147059,14.0617143 2.50323529,14.1467429 2.59676471,14.2281143 C2.69029412,14.3094857 2.78470588,14.3890286 2.88088235,14.4658286 C2.97705882,14.5426286 3.07411765,14.6166857 3.17205882,14.688 C3.27,14.7593143 3.36970588,14.8288 3.46941176,14.8955429 C3.56911765,14.9622857 3.67058824,15.0272 3.77294118,15.0893714 C3.87529412,15.1515429 3.97852941,15.2128 4.08264706,15.2713143 C4.18676471,15.3298286 4.29176471,15.3874286 4.39764706,15.4422857 C4.50352941,15.4980571 4.60941176,15.5510857 4.71705882,15.6032 C4.82470588,15.6553143 4.93235294,15.7065143 5.04088235,15.7558857 C5.14941176,15.8052571 5.25882353,15.8537143 5.36823529,15.9012571 C5.47764706,15.9488 5.58882353,15.9945143 5.69911765,16.0402286 C5.80941176,16.0859429 5.92147059,16.1298286 6.03352941,16.1746286 C6.14558824,16.2185143 6.25764706,16.2614857 6.37058824,16.3044571 C6.48352941,16.3474286 6.59647059,16.3894857 6.70941176,16.4315429 C6.90264706,16.5037714 7.10029412,16.5787429 7.30058824,16.6564571 C7.50088235,16.7350857 7.70470588,16.8164571 7.90941176,16.9005714 C8.115,16.9856 8.32235294,17.0733714 8.52970588,17.1657143 C8.73794118,17.2571429 8.94617647,17.3531429 9.15441176,17.4518857 C9.36264706,17.5506286 9.57088235,17.6539429 9.77735294,17.7609143 C9.98382353,17.8678857 10.1885294,17.9785143 10.3905882,18.0937143 C10.5926471,18.2089143 10.7920588,18.3277714 10.9870588,18.4512 C11.1829412,18.5746286 11.3744118,18.7026286 11.5605882,18.8342857 C11.7467647,18.9668571 11.9285294,19.1030857 12.1041176,19.2438857 C12.2797059,19.3856 12.4482353,19.5309714 12.6105882,19.6818286 C12.7720588,19.8326857 12.9264706,19.9881143 13.0729412,20.1490286 C13.2194118,20.3099429 13.3561765,20.4754286 13.4841176,20.6464 C13.6120588,20.8173714 13.7302941,20.9938286 13.8379412,21.1748571 C13.9455882,21.3558857 14.0417647,21.5433143 14.1264706,21.7362286 C14.2111765,21.9291429 14.2835294,22.1266286 14.3435294,22.3305143 C14.4035294,22.5344 14.4494118,22.7437714 14.4820588,22.9595429 L14.4847059,22.976 L14.4873529,22.9924571 L14.49,23.0089143 L14.4926471,23.0253714 L14.4952941,23.0418286 L14.4979412,23.0582857 L14.5005882,23.0747429 L14.5032353,23.0912 L14.5058824,23.1076571 L14.5085294,23.1241143 L14.5111765,23.1405714 L14.5138235,23.1570286 L14.5164706,23.1734857 L14.5191176,23.1899429 L14.5217647,23.2064 L14.5244118,23.2228571 C14.5341176,23.1661714 14.5438235,23.1076571 14.5535294,23.0454857 C14.5632353,22.9842286 14.5738235,22.9202286 14.5835294,22.8544 C14.5932353,22.7885714 14.6029412,22.72 14.6108824,22.6496 C14.6197059,22.5792 14.6276471,22.5060571 14.6347059,22.4310857 C14.6417647,22.3561143 14.6470588,22.2793143 14.6514706,22.2006857 C14.6558824,22.1220571 14.6585294,22.0406857 14.6594118,21.9584 C14.6602941,21.8761143 14.6594118,21.7910857 14.6567647,21.7051429 C14.6532353,21.6192 14.6479412,21.5305143 14.64,21.4409143 C14.6320588,21.3513143 14.6214706,21.2598857 14.6082353,21.1666286 C14.595,21.0733714 14.5782353,20.9792 14.5579412,20.8832 C14.5376471,20.7872 14.5147059,20.6902857 14.4873529,20.5915429 C14.46,20.4928 14.4291176,20.3931429 14.3947059,20.2916571 C14.3594118,20.1901714 14.3205882,20.0886857 14.2773529,19.9853714 C14.2341176,19.8820571 14.1855882,19.7778286 14.1326471,19.6717714 C14.0797059,19.5657143 14.0214706,19.4596571 13.9579412,19.3526857 C13.8944118,19.2457143 13.8229412,19.1424 13.7488235,19.0336 Z" id="Path"></path>
                <path d="M3.49058824,8.48 C3.49411765,8.55314286 3.50029412,8.62628571 3.50911765,8.70034286 C3.51794118,8.7744 3.53029412,8.84845714 3.54529412,8.92342857 C3.56029412,8.9984 3.57794118,9.07245714 3.59735294,9.14742857 C3.61764706,9.2224 3.63970588,9.29737143 3.66441176,9.37142857 C3.68911765,9.4464 3.71647059,9.52045714 3.74558824,9.59451429 C3.77470588,9.66857143 3.80647059,9.74262857 3.83911765,9.81577143 C3.87176471,9.88891429 3.90794118,9.96114286 3.94411765,10.0333714 C3.98117647,10.1046857 4.02,10.176 4.05970588,10.2464 C4.10029412,10.3168 4.14176471,10.3853714 4.185,10.4530286 C4.22823529,10.5206857 4.27235294,10.5874286 4.31823529,10.6532571 C4.36411765,10.7190857 4.41,10.7830857 4.45764706,10.8452571 C4.50529412,10.9074286 4.55382353,10.9686857 4.60323529,11.0281143 C4.65264706,11.0875429 4.70294118,11.1451429 4.75323529,11.2 C4.80352941,11.2557714 4.85470588,11.3088 4.90676471,11.3609143 C4.95794118,11.4121143 5.01,11.4614857 5.06205882,11.5090286 C5.11411765,11.5565714 5.16617647,11.6004571 5.21823529,11.6425143 C5.23588235,11.6571429 5.25882353,11.6745143 5.28529412,11.6937143 C5.31176471,11.7129143 5.34264706,11.7348571 5.37705882,11.7577143 C5.41147059,11.7805714 5.44852941,11.8061714 5.48823529,11.8317714 C5.52794118,11.8573714 5.57029412,11.8838857 5.61352941,11.9113143 C5.65676471,11.9387429 5.70264706,11.9661714 5.74764706,11.9926857 C5.79352941,12.0201143 5.84029412,12.0466286 5.88617647,12.0731429 C5.93205882,12.0996571 5.97882353,12.1243429 6.02382353,12.1481143 C6.06882353,12.1718857 6.11294118,12.1938286 6.15529412,12.2139429 C6.19764706,12.2340571 6.23823529,12.2523429 6.27529412,12.2678857 C6.31235294,12.2834286 6.34764706,12.2962286 6.37941176,12.3053714 C6.41117647,12.3145143 6.43852941,12.3209143 6.46147059,12.3227429 C6.48441176,12.3245714 6.50382353,12.3227429 6.51705882,12.3163429 C6.53029412,12.3099429 6.53911765,12.2989714 6.54176471,12.2825143 C6.54441176,12.2660571 6.54,12.2450286 6.52941176,12.2176 C6.51882353,12.1901714 6.50117647,12.1572571 6.47558824,12.1179429 C6.45,12.0786286 6.41647059,12.0329143 6.37411765,11.9798857 C6.34323529,11.9414857 6.31235294,11.9030857 6.28147059,11.8656 C6.25058824,11.8281143 6.21882353,11.7897143 6.18794118,11.7531429 C6.15705882,11.7156571 6.12529412,11.6790857 6.09441176,11.6416 C6.06352941,11.6050286 6.03264706,11.5684571 6.00176471,11.5318857 C5.97088235,11.4953143 5.94,11.4587429 5.90911765,11.4230857 C5.87823529,11.3865143 5.84823529,11.3508571 5.81823529,11.3142857 C5.78823529,11.2777143 5.75823529,11.2420571 5.72911765,11.2054857 C5.7,11.1689143 5.67088235,11.1332571 5.64176471,11.0966857 C5.61264706,11.0601143 5.58529412,11.0235429 5.55705882,10.9869714 C5.52882353,10.9504 5.50235294,10.9129143 5.47588235,10.8763429 C5.44941176,10.8388571 5.42382353,10.8013714 5.39823529,10.7638857 C5.37264706,10.7264 5.34794118,10.688 5.32411765,10.6496 C5.30029412,10.6112 5.27735294,10.5718857 5.25441176,10.5325714 C5.23147059,10.4932571 5.21029412,10.4539429 5.19,10.4137143 C5.16970588,10.3734857 5.14941176,10.3323429 5.13088235,10.2912 C5.11235294,10.2500571 5.09470588,10.208 5.07794118,10.1659429 C5.05852941,10.1165714 5.04,10.0672 5.02147059,10.016 C5.00294118,9.9648 4.98529412,9.9136 4.96764706,9.86057143 C4.95,9.80845714 4.93323529,9.75451429 4.91647059,9.70148571 C4.90058824,9.64754286 4.88470588,9.5936 4.86970588,9.53782857 C4.85470588,9.48297143 4.84058824,9.4272 4.82735294,9.37142857 C4.81411765,9.31565714 4.80176471,9.25897143 4.79029412,9.20228571 C4.77882353,9.1456 4.76823529,9.08891429 4.75852941,9.03131429 C4.74882353,8.97462857 4.74088235,8.91702857 4.73294118,8.85942857 C4.72852941,8.80091429 4.72235294,8.74331429 4.71705882,8.68571429 C4.71176471,8.62811429 4.70823529,8.57051429 4.70558824,8.51382857 C4.70382353,8.45622857 4.70205882,8.39954286 4.70294118,8.34285714 C4.70294118,8.28617143 4.70470588,8.22948571 4.70823529,8.17371429 C4.71176471,8.11794286 4.71617647,8.06217143 4.72323529,8.0064 C4.72941176,7.95062857 4.73735294,7.89668571 4.74794118,7.84182857 C4.75852941,7.78697143 4.76911765,7.73394286 4.78235294,7.68091429 C4.79558824,7.62788571 4.81058824,7.57577143 4.82823529,7.52457143 C4.85470588,7.44411429 4.88558824,7.3664 4.92,7.29234286 C4.95441176,7.21828571 4.99147059,7.14697143 5.03294118,7.07931429 C5.07352941,7.01165714 5.11764706,6.94674286 5.16529412,6.88548571 C5.21205882,6.82422857 5.26235294,6.76571429 5.31441176,6.71085714 C5.36735294,6.656 5.42205882,6.60388571 5.47941176,6.55542857 C5.53676471,6.50697143 5.59676471,6.46125714 5.65852941,6.41828571 C5.72029412,6.37531429 5.78382353,6.336 5.84911765,6.29942857 C5.91441176,6.26285714 5.98147059,6.22902857 6.05029412,6.19794286 C6.11911765,6.16685714 6.18882353,6.13942857 6.26029412,6.11474286 C6.33,6.08914286 6.40235294,6.0672 6.47558824,6.048 C6.54882353,6.0288 6.62205882,6.01234286 6.69617647,5.99954286 C6.77029412,5.98582857 6.84529412,5.97577143 6.92029412,5.96754286 C6.99529412,5.95931429 7.07029412,5.95474286 7.14529412,5.952 C7.22029412,5.94925714 7.29529412,5.95017143 7.37029412,5.95291429 C7.44529412,5.95565714 7.51941176,5.96114286 7.59264706,5.96937143 C7.66588235,5.9776 7.73911765,5.98857143 7.81058824,6.00228571 C7.89176471,6.01782857 7.97117647,6.03611429 8.04882353,6.05988571 C8.12647059,6.08365714 8.20235294,6.10834286 8.27647059,6.13851429 C8.35058824,6.16868571 8.42294118,6.20251429 8.49264706,6.24 C8.56235294,6.27748571 8.63117647,6.31771429 8.69647059,6.3616 C8.76176471,6.40548571 8.82529412,6.45211429 8.88617647,6.5024 C8.94705882,6.55268571 9.00529412,6.6048 9.06088235,6.66057143 C9.11647059,6.71634286 9.16941176,6.77394286 9.21882353,6.8352 C9.26823529,6.89554286 9.31588235,6.95862857 9.35911765,7.02445714 C9.40235294,7.09028571 9.44294118,7.15702857 9.48,7.22651429 C9.51705882,7.296 9.55058824,7.36731429 9.58058824,7.44045714 C9.61058824,7.5136 9.63705882,7.58857143 9.66,7.66537143 C9.68294118,7.74217143 9.70147059,7.81988571 9.71647059,7.89942857 C9.73147059,7.97897143 9.74205882,8.05942857 9.74823529,8.1408 C9.75441176,8.22217143 9.75705882,8.30537143 9.75529412,8.38857143 C9.75352941,8.47177143 9.74647059,8.5568 9.735,8.64091429 C9.72352941,8.72594286 9.70764706,8.81097143 9.68647059,8.89691429 C9.675,8.94537143 9.66264706,8.99291429 9.65029412,9.04045714 C9.63794118,9.088 9.62470588,9.13462857 9.61147059,9.18125714 C9.59823529,9.22788571 9.585,9.2736 9.57088235,9.32022857 C9.55676471,9.36594286 9.54264706,9.41165714 9.52852941,9.45645714 C9.51352941,9.50125714 9.49941176,9.54605714 9.48352941,9.58994286 C9.46764706,9.63382857 9.45264706,9.67771429 9.43676471,9.7216 C9.42088235,9.76548571 9.405,9.80845714 9.38823529,9.85142857 C9.37147059,9.8944 9.35470588,9.93737143 9.33794118,9.97942857 C9.32117647,10.0214857 9.30352941,10.0644571 9.28588235,10.1056 C9.26823529,10.1467429 9.24970588,10.1897143 9.23205882,10.2308571 C9.21352941,10.272 9.195,10.3140571 9.17647059,10.3552 C9.15794118,10.3963429 9.13852941,10.4374857 9.11911765,10.4777143 C9.09970588,10.5179429 9.08029412,10.5590857 9.06,10.6002286 C9.03970588,10.6404571 9.01941176,10.6816 8.99911765,10.7218286 C8.97882353,10.7620571 8.95764706,10.8022857 8.93647059,10.8425143 C8.91529412,10.8827429 8.89411765,10.9229714 8.87294118,10.9632 C8.85617647,10.9942857 8.83852941,11.0262857 8.81911765,11.0592 C8.79970588,11.0921143 8.77941176,11.1268571 8.75823529,11.1625143 C8.73705882,11.1981714 8.715,11.2338286 8.69205882,11.2713143 C8.66911765,11.3078857 8.64529412,11.3462857 8.62147059,11.3846857 C8.59764706,11.4230857 8.57294118,11.4614857 8.54823529,11.5008 C8.52352941,11.5401143 8.49882353,11.5794286 8.47411765,11.6187429 C8.44941176,11.6580571 8.42470588,11.6982857 8.4,11.7376 C8.37529412,11.7769143 8.35147059,11.8171429 8.32852941,11.8564571 C8.30558824,11.8957714 8.28264706,11.9350857 8.26058824,11.9744 C8.23852941,12.0128 8.21735294,12.0512 8.19794118,12.0896 C8.17764706,12.1270857 8.15911765,12.1645714 8.14147059,12.2011429 C8.12382353,12.2377143 8.10794118,12.2733714 8.09382353,12.3072 C8.07970588,12.3410286 8.06647059,12.3748571 8.05588235,12.4077714 C8.04529412,12.4397714 8.03647059,12.4708571 8.02941176,12.5010286 C8.02235294,12.5302857 8.01794118,12.5586286 8.01617647,12.5851429 C8.01441176,12.6116571 8.01441176,12.6363429 8.01705882,12.6601143 C8.02235294,12.704 8.03029412,12.7451429 8.03911765,12.7844571 C8.04882353,12.8237714 8.05941176,12.8603429 8.07264706,12.8941714 C8.08588235,12.928 8.1,12.96 8.11676471,12.9892571 C8.13264706,13.0185143 8.15029412,13.0459429 8.16970588,13.0706286 C8.18823529,13.0953143 8.20852941,13.1172571 8.22970588,13.1373714 C8.25088235,13.1574857 8.27294118,13.1748571 8.29676471,13.1894857 C8.31970588,13.2041143 8.34441176,13.2169143 8.36911765,13.2269714 C8.39382353,13.2370286 8.41941176,13.2452571 8.445,13.2507429 C8.47058824,13.2562286 8.49705882,13.2589714 8.52441176,13.2598857 C8.55088235,13.2608 8.57823529,13.2589714 8.60558824,13.2544 C8.63294118,13.2498286 8.66029412,13.2434286 8.68676471,13.2342857 C8.71411765,13.2251429 8.74058824,13.2141714 8.76705882,13.2004571 C8.79352941,13.1867429 8.82,13.1702857 8.84558824,13.152 C8.87117647,13.1337143 8.89676471,13.1126857 8.92147059,13.0898286 C8.94617647,13.0669714 8.97,13.0413714 8.99294118,13.0130286 C9.01588235,12.9846857 9.03794118,12.9545143 9.05911765,12.9216 C9.09,12.8740571 9.12088235,12.8256 9.15176471,12.7762286 C9.18264706,12.7277714 9.21352941,12.6784 9.24441176,12.6281143 C9.27529412,12.5778286 9.30617647,12.5284571 9.33705882,12.4781714 C9.36794118,12.4278857 9.39882353,12.3766857 9.42970588,12.3254857 C9.46058824,12.2742857 9.49147059,12.2230857 9.52147059,12.1709714 C9.55235294,12.1188571 9.58235294,12.0667429 9.61323529,12.0146286 C9.64323529,11.9625143 9.67411765,11.9094857 9.70411765,11.8573714 C9.73411765,11.8043429 9.76411765,11.7522286 9.79411765,11.6992 C9.82411765,11.6461714 9.85411765,11.5931429 9.88323529,11.5401143 C9.91235294,11.4870857 9.94235294,11.4340571 9.97147059,11.3801143 C10.0005882,11.3270857 10.0297059,11.2731429 10.0579412,11.2201143 C10.0861765,11.1670857 10.1152941,11.1140571 10.1426471,11.0601143 C10.1708824,11.0070857 10.1982353,10.9540571 10.2255882,10.9010286 C10.2529412,10.848 10.2802941,10.7949714 10.3067647,10.7428571 C10.3332353,10.6898286 10.3597059,10.6377143 10.3861765,10.5856 C10.4126471,10.5334857 10.4382353,10.4813714 10.4629412,10.4292571 C10.5097059,10.3332571 10.5547059,10.2363429 10.5961765,10.1376 C10.6376471,10.0397714 10.6764706,9.94102857 10.7126471,9.84228571 C10.7488235,9.74354286 10.7814706,9.64297143 10.8114706,9.54331429 C10.8414706,9.44274286 10.8679412,9.34217143 10.8917647,9.2416 C10.9155882,9.14102857 10.9358824,9.03954286 10.9526471,8.93897143 C10.9694118,8.83748571 10.9835294,8.73691429 10.9941176,8.63542857 C11.0047059,8.53394286 11.0108824,8.43337143 11.0144118,8.3328 C11.0179412,8.23222857 11.0170588,8.13165714 11.0135294,8.03108571 C11.0091176,7.93051429 11.0020588,7.83085714 10.9897059,7.73211429 C10.9764706,7.63337143 10.9605882,7.53462857 10.9411765,7.4368 C10.9217647,7.33897143 10.8979412,7.24205714 10.8705882,7.14605714 C10.8432353,7.05005714 10.8105882,6.95497143 10.7744118,6.8608 C10.7382353,6.76662857 10.6976471,6.67337143 10.6526471,6.58194286 C10.6076471,6.4896 10.5582353,6.39908571 10.5044118,6.3104 C10.4505882,6.22171429 10.3923529,6.13302857 10.3288235,6.04708571 C10.2652941,5.96114286 10.1982353,5.87611429 10.125,5.79291429 C9.97852941,5.6256 9.82235294,5.47382857 9.65911765,5.33851429 C9.49588235,5.2032 9.32558824,5.08342857 9.14911765,4.98011429 C8.97264706,4.8768 8.79176471,4.78811429 8.60647059,4.71497143 C8.42117647,4.64182857 8.23235294,4.58331429 8.04176471,4.53942857 C7.85117647,4.49554286 7.65794118,4.46628571 7.46558824,4.45165714 C7.27411765,4.4352 7.08088235,4.43428571 6.88941176,4.44708571 C6.69794118,4.45988571 6.50911765,4.4864 6.32382353,4.52571429 C6.13852941,4.56502857 5.955,4.61897143 5.77852941,4.6848 C5.60117647,4.75062857 5.43,4.82925714 5.265,4.91977143 C5.1,5.01028571 4.94382353,5.1136 4.79558824,5.2288 C4.64735294,5.344 4.50794118,5.47017143 4.38,5.60914286 C4.25117647,5.7472 4.13382353,5.89622857 4.02882353,6.05714286 C3.92382353,6.21805714 3.83117647,6.38902857 3.75352941,6.57097143 C3.67588235,6.75291429 3.61235294,6.94582857 3.56470588,7.14788571 C3.51705882,7.35085714 3.48617647,7.56297143 3.47382353,7.78514286 C3.46058824,8.00731429 3.46588235,8.23954286 3.49058824,8.48 Z" id="Path"></path>
                <path d="M10.6941176,22.7282286 C10.6905882,22.6550857 10.6844118,22.5819429 10.6755882,22.5078857 C10.6667647,22.4338286 10.6544118,22.3597714 10.6394118,22.2848 C10.6244118,22.2098286 10.6067647,22.1357714 10.5873529,22.0608 C10.5679412,21.9858286 10.545,21.9108571 10.5202941,21.8368 C10.4955882,21.7627429 10.4682353,21.6877714 10.4391176,21.6137143 C10.41,21.5396571 10.3782353,21.4656 10.3455882,21.3924571 C10.3120588,21.3193143 10.2767647,21.2470857 10.2405882,21.1748571 C10.2035294,21.1035429 10.1647059,21.0322286 10.125,20.9618286 C10.0844118,20.8914286 10.0429412,20.8228571 9.99970588,20.7552 C9.95647059,20.6875429 9.91235294,20.6208 9.86647059,20.5549714 C9.82058824,20.4891429 9.77470588,20.4251429 9.72705882,20.3629714 C9.67941176,20.3008 9.63088235,20.2395429 9.58147059,20.1801143 C9.53205882,20.1206857 9.48176471,20.0630857 9.43147059,20.0082286 C9.38117647,19.9533714 9.33,19.8994286 9.27794118,19.8473143 C9.22588235,19.7952 9.17470588,19.7467429 9.12264706,19.6992 C9.07058824,19.6525714 9.01852941,19.6077714 8.96647059,19.5657143 C8.94882353,19.5510857 8.92588235,19.5337143 8.89941176,19.5145143 C8.87294118,19.4953143 8.84205882,19.4733714 8.80764706,19.4505143 C8.77323529,19.4276571 8.73617647,19.4020571 8.69647059,19.3764571 C8.65676471,19.3508571 8.61441176,19.3243429 8.57117647,19.2969143 C8.52794118,19.2694857 8.48205882,19.2420571 8.43705882,19.2155429 C8.39117647,19.1881143 8.34441176,19.1616 8.29852941,19.1350857 C8.25264706,19.1085714 8.20588235,19.0838857 8.16088235,19.0601143 C8.11588235,19.0363429 8.07176471,19.0144 8.02941176,18.9942857 C7.98705882,18.9741714 7.94647059,18.9558857 7.90941176,18.9403429 C7.87147059,18.9248 7.83705882,18.912 7.80529412,18.9028571 C7.77352941,18.8937143 7.74617647,18.8873143 7.72323529,18.8854857 C7.70029412,18.8836571 7.68088235,18.8854857 7.66764706,18.8918857 C7.65441176,18.8982857 7.64558824,18.9092571 7.64294118,18.9257143 C7.64029412,18.9421714 7.64470588,18.9632 7.65529412,18.9906286 C7.66588235,19.0180571 7.68352941,19.0509714 7.70911765,19.0902857 C7.73470588,19.1296 7.76823529,19.1753143 7.81058824,19.2283429 C7.84147059,19.2667429 7.87235294,19.3051429 7.90323529,19.3426286 C7.93411765,19.3801143 7.96588235,19.4185143 7.99676471,19.4550857 C8.02764706,19.4916571 8.05941176,19.5291429 8.09029412,19.5666286 C8.12117647,19.6032 8.15205882,19.6397714 8.18294118,19.6763429 C8.21382353,19.7129143 8.24470588,19.7494857 8.27558824,19.7851429 C8.30647059,19.8217143 8.33647059,19.8573714 8.36647059,19.8939429 C8.39647059,19.9305143 8.42647059,19.9661714 8.45558824,20.0027429 C8.48470588,20.0393143 8.51382353,20.0749714 8.54294118,20.1115429 C8.57117647,20.1481143 8.59941176,20.1846857 8.62764706,20.2212571 C8.655,20.2578286 8.68235294,20.2953143 8.70882353,20.3318857 C8.73529412,20.3693714 8.76088235,20.4068571 8.78647059,20.4443429 C8.81205882,20.4818286 8.83676471,20.5202286 8.86058824,20.5586286 C8.88441176,20.5970286 8.90735294,20.6363429 8.93029412,20.6756571 C8.95235294,20.7149714 8.97441176,20.7542857 8.99470588,20.7945143 C9.015,20.8347429 9.03529412,20.8758857 9.05382353,20.9170286 C9.07235294,20.9581714 9.09,21.0002286 9.10676471,21.0422857 C9.12617647,21.0916571 9.14470588,21.1410286 9.16323529,21.1922286 C9.18176471,21.2434286 9.19941176,21.2946286 9.21705882,21.3476571 C9.23470588,21.3997714 9.25147059,21.4537143 9.26823529,21.5067429 C9.28411765,21.5606857 9.3,21.6146286 9.315,21.6704 C9.33,21.7252571 9.34411765,21.7810286 9.35735294,21.8368 C9.37058824,21.8925714 9.38294118,21.9492571 9.39441176,22.0059429 C9.40588235,22.0626286 9.41647059,22.1193143 9.42617647,22.1769143 C9.43588235,22.2336 9.44382353,22.2912 9.45176471,22.3488 C9.45882353,22.4064 9.465,22.464 9.47029412,22.5206857 C9.47558824,22.5773714 9.47911765,22.6358857 9.48176471,22.6925714 C9.48441176,22.7501714 9.48529412,22.8068571 9.48529412,22.8635429 C9.48529412,22.9202286 9.48352941,22.9769143 9.48,23.0326857 C9.47647059,23.0884571 9.47205882,23.1442286 9.465,23.2 C9.45882353,23.2557714 9.45088235,23.3097143 9.44029412,23.3645714 C9.43058824,23.4185143 9.41911765,23.4724571 9.40588235,23.5254857 C9.39264706,23.5785143 9.37764706,23.6306286 9.36,23.6818286 C9.33352941,23.7622857 9.30264706,23.84 9.26823529,23.9140571 C9.23382353,23.9881143 9.19676471,24.0594286 9.15529412,24.1270857 C9.11470588,24.1947429 9.07058824,24.2596571 9.02294118,24.3209143 C8.97617647,24.3821714 8.92588235,24.4406857 8.87382353,24.4955429 C8.82088235,24.5504 8.76617647,24.6025143 8.70882353,24.6509714 C8.65147059,24.6994286 8.59147059,24.7451429 8.52970588,24.7881143 C8.46794118,24.8310857 8.40441176,24.8704 8.33911765,24.9069714 C8.27382353,24.9435429 8.20676471,24.9773714 8.13794118,25.0084571 C8.06911765,25.0395429 7.99941176,25.0669714 7.92794118,25.0916571 C7.85647059,25.1163429 7.785,25.1382857 7.71176471,25.1574857 C7.63852941,25.1766857 7.56529412,25.1931429 7.49117647,25.2059429 C7.41705882,25.2196571 7.34205882,25.2297143 7.26705882,25.2379429 C7.19205882,25.2461714 7.11705882,25.2507429 7.04205882,25.2534857 C6.96705882,25.2562286 6.89205882,25.2553143 6.81705882,25.2525714 C6.74205882,25.2498286 6.66794118,25.2443429 6.59470588,25.2361143 C6.52147059,25.2278857 6.44823529,25.2169143 6.37676471,25.2032 C6.29558824,25.1876571 6.21617647,25.1693714 6.13852941,25.1456 C6.06088235,25.1218286 5.985,25.0962286 5.91088235,25.0651429 C5.83676471,25.0349714 5.76441176,25.0011429 5.69470588,24.9636571 C5.625,24.9261714 5.55617647,24.8859429 5.49088235,24.8420571 C5.42558824,24.7981714 5.36205882,24.7515429 5.30117647,24.7012571 C5.24029412,24.6509714 5.18205882,24.5988571 5.12647059,24.5430857 C5.07088235,24.4873143 5.01794118,24.4297143 4.96852941,24.3684571 C4.91911765,24.3081143 4.87147059,24.2450286 4.82823529,24.1792 C4.78411765,24.1142857 4.74441176,24.0466286 4.70735294,23.9771429 C4.67029412,23.9076571 4.63676471,23.8363429 4.60676471,23.7632 C4.57676471,23.6900571 4.55029412,23.6150857 4.52735294,23.5382857 C4.50441176,23.4614857 4.48588235,23.3837714 4.47088235,23.3042286 C4.45588235,23.2246857 4.44529412,23.1442286 4.43911765,23.0628571 C4.43294118,22.9814857 4.43029412,22.8982857 4.43205882,22.8150857 C4.43382353,22.7318857 4.44088235,22.6468571 4.45235294,22.5627429 C4.46382353,22.4777143 4.47970588,22.3926857 4.50088235,22.3067429 C4.51235294,22.2582857 4.52470588,22.2107429 4.53705882,22.1632 C4.54941176,22.1156571 4.56264706,22.0690286 4.57588235,22.0224 C4.58911765,21.9757714 4.60235294,21.9300571 4.61647059,21.8834286 C4.63058824,21.8368 4.64470588,21.792 4.65882353,21.7472 C4.67382353,21.7024 4.68794118,21.6576 4.70382353,21.6137143 C4.71882353,21.5698286 4.73470588,21.5259429 4.75058824,21.4820571 C4.76647059,21.4381714 4.78235294,21.3952 4.79911765,21.3522286 C4.81588235,21.3092571 4.83264706,21.2662857 4.84941176,21.2242286 C4.86617647,21.1821714 4.88382353,21.1392 4.90147059,21.0980571 C4.91911765,21.0569143 4.93764706,21.0139429 4.95529412,20.9728 C4.97382353,20.9316571 4.99235294,20.8896 5.01088235,20.8484571 C5.02941176,20.8073143 5.04882353,20.7661714 5.06823529,20.7259429 C5.08764706,20.6848 5.10705882,20.6445714 5.12735294,20.6034286 C5.14764706,20.5632 5.16794118,20.5220571 5.18823529,20.4818286 C5.20852941,20.4416 5.22970588,20.4013714 5.25088235,20.3611429 C5.27205882,20.3209143 5.29323529,20.2806857 5.31441176,20.2404571 C5.33117647,20.2093714 5.34882353,20.1773714 5.36823529,20.1444571 C5.38764706,20.1115429 5.40794118,20.0768 5.42911765,20.0411429 C5.45029412,20.0054857 5.47235294,19.9698286 5.49529412,19.9323429 C5.51823529,19.8957714 5.54205882,19.8573714 5.56588235,19.8189714 C5.58970588,19.7805714 5.61441176,19.7421714 5.63911765,19.7028571 C5.66382353,19.6635429 5.68852941,19.6242286 5.71323529,19.5849143 C5.73794118,19.5456 5.76264706,19.5053714 5.78735294,19.4660571 C5.81205882,19.4267429 5.83588235,19.3865143 5.85882353,19.3472 C5.88176471,19.3078857 5.90470588,19.2685714 5.92676471,19.2292571 C5.94882353,19.1908571 5.97,19.1524571 5.98941176,19.1140571 C6.00970588,19.0765714 6.02823529,19.0390857 6.04588235,19.0025143 C6.06352941,18.9659429 6.07941176,18.9302857 6.09352941,18.8964571 C6.10764706,18.8617143 6.12088235,18.8288 6.13147059,18.7958857 C6.14205882,18.7638857 6.15088235,18.7328 6.15794118,18.7026286 C6.165,18.6733714 6.16941176,18.6450286 6.17117647,18.6185143 C6.17382353,18.592 6.17294118,18.5673143 6.17029412,18.5435429 C6.165,18.4996571 6.15705882,18.4585143 6.14823529,18.4192 C6.13852941,18.3798857 6.12794118,18.3433143 6.11470588,18.3094857 C6.10147059,18.2756571 6.08735294,18.2436571 6.07058824,18.2144 C6.05470588,18.1851429 6.03705882,18.1577143 6.01764706,18.1330286 C5.99823529,18.1083429 5.97882353,18.0864 5.95764706,18.0662857 C5.93647059,18.0461714 5.91441176,18.0288 5.89058824,18.0141714 C5.86764706,17.9995429 5.84294118,17.9867429 5.81823529,17.9766857 C5.79352941,17.9666286 5.76794118,17.9584 5.74235294,17.9529143 C5.71676471,17.9474286 5.69029412,17.9446857 5.66294118,17.9437714 C5.63558824,17.9428571 5.60911765,17.9446857 5.58176471,17.9492571 C5.55441176,17.9538286 5.52705882,17.9602286 5.50058824,17.9693714 C5.47323529,17.9785143 5.44676471,17.9894857 5.42029412,18.0032 C5.39382353,18.0169143 5.36735294,18.0333714 5.34176471,18.0516571 C5.31617647,18.0699429 5.29058824,18.0909714 5.26588235,18.1138286 C5.24117647,18.1366857 5.21735294,18.1622857 5.19441176,18.1906286 C5.17058824,18.2235429 5.14852941,18.2537143 5.12735294,18.2857143 C5.09647059,18.3332571 5.06558824,18.3817143 5.03470588,18.4310857 C5.00382353,18.4804571 4.97294118,18.5289143 4.94205882,18.5792 C4.91117647,18.6285714 4.88029412,18.6788571 4.84941176,18.7291429 C4.81852941,18.7794286 4.78764706,18.8306286 4.75676471,18.8818286 C4.72588235,18.9330286 4.695,18.9842286 4.665,19.0363429 C4.635,19.0884571 4.60411765,19.1405714 4.57323529,19.1926857 C4.54323529,19.2448 4.51235294,19.2978286 4.48235294,19.3499429 C4.45235294,19.4029714 4.42235294,19.4550857 4.39235294,19.5081143 C4.36235294,19.5611429 4.33235294,19.6141714 4.30323529,19.6672 C4.27411765,19.7202286 4.24411765,19.7732571 4.215,19.8272 C4.18588235,19.8802286 4.15676471,19.9341714 4.12852941,19.9872 C4.10029412,20.0402286 4.07117647,20.0932571 4.04382353,20.1472 C4.01558824,20.2002286 3.98823529,20.2532571 3.96088235,20.3062857 C3.93352941,20.3593143 3.90617647,20.4123429 3.87970588,20.4644571 C3.85323529,20.5174857 3.82676471,20.5696 3.80029412,20.6217143 C3.77382353,20.6738286 3.74823529,20.7259429 3.72352941,20.7780571 C3.67676471,20.8740571 3.63176471,20.9709714 3.59029412,21.0697143 C3.54882353,21.1675429 3.51,21.2662857 3.47382353,21.3650286 C3.43764706,21.4637714 3.405,21.5643429 3.375,21.664 C3.345,21.7645714 3.31852941,21.8651429 3.29470588,21.9657143 C3.27088235,22.0662857 3.25058824,22.1677714 3.23382353,22.2683429 C3.21705882,22.3689143 3.20294118,22.4704 3.19235294,22.5718857 C3.18176471,22.6733714 3.17558824,22.7739429 3.17205882,22.8745143 C3.16852941,22.9750857 3.16941176,23.0756571 3.17294118,23.1762286 C3.17735294,23.2768 3.18441176,23.3764571 3.19676471,23.4752 C3.20823529,23.5748571 3.22411765,23.6736 3.24352941,23.7714286 C3.26294118,23.8692571 3.28676471,23.9661714 3.31411765,24.0621714 C3.34147059,24.1581714 3.37411765,24.2532571 3.41029412,24.3474286 C3.44647059,24.4416 3.48705882,24.5348571 3.53205882,24.6262857 C3.57705882,24.7186286 3.62647059,24.8091429 3.68029412,24.8978286 C3.73411765,24.9874286 3.79235294,25.0752 3.85588235,25.1611429 C3.91941176,25.2470857 3.98647059,25.3339429 4.05882353,25.4171429 C4.20529412,25.5844571 4.36147059,25.7362286 4.52470588,25.8715429 C4.68794118,26.0068571 4.85823529,26.1266286 5.03470588,26.2299429 C5.21029412,26.3341714 5.39205882,26.4219429 5.57735294,26.4950857 C5.76264706,26.5682286 5.95147059,26.6267429 6.14205882,26.6706286 C6.33264706,26.7145143 6.52588235,26.7437714 6.71823529,26.7584 C6.91058824,26.7730286 7.10382353,26.7739429 7.29529412,26.7611429 C7.48676471,26.7483429 7.67558824,26.7218286 7.86176471,26.6816 C8.04794118,26.6422857 8.22970588,26.5892571 8.40705882,26.5234286 C8.58441176,26.4576 8.75558824,26.3789714 8.91970588,26.2884571 C9.08382353,26.1979429 9.24088235,26.0946286 9.38911765,25.9794286 C9.53735294,25.8642286 9.67676471,25.7380571 9.80470588,25.5990857 C9.93352941,25.4610286 10.0508824,25.3110857 10.1558824,25.1501714 C10.2608824,24.9892571 10.3535294,24.8182857 10.4311765,24.6363429 C10.5088235,24.4544 10.5723529,24.2614857 10.62,24.0594286 C10.6676471,23.8564571 10.6985294,23.6443429 10.7108824,23.4221714 C10.7232353,23.2 10.7197059,22.9686857 10.6941176,22.7282286 Z" id="Path"></path>
            </g>
            <g id="Group" transform="translate(22.000000, 8.000000)" fill="#4A4F55">
                <path d="M0.357272727,9.8653125 L1.47,9.8653125 L2.58272727,9.8653125 C2.64,10.2553125 2.75636364,10.6040625 2.93181818,10.9115625 C3.10727273,11.2190625 3.34272727,11.4853125 3.63727273,11.7103125 C3.93181818,11.9353125 4.26909091,12.1040625 4.65,12.2165625 C5.03090909,12.3290625 5.45545455,12.3853125 5.92363636,12.3853125 C6.30727273,12.3853125 6.64909091,12.3459375 6.95,12.26625 C7.25090909,12.1865625 7.51090909,12.0675 7.73,11.9090625 C7.94909091,11.750625 8.11272727,11.5621875 8.22272727,11.34375 C8.33181818,11.12625 8.38727273,10.87875 8.38727273,10.6021875 C8.38727273,10.1709375 8.23272727,9.8203125 7.92454545,9.5503125 C7.61545455,9.2803125 7.15272727,9.09 6.53545455,8.979375 L5.49545455,8.775 L4.45454545,8.570625 C3.26454545,8.3390625 2.37181818,7.914375 1.77636364,7.2965625 C1.18090909,6.67875 0.883636364,5.8678125 0.883636364,4.8628125 C0.883636364,4.254375 0.991818182,3.7040625 1.20818182,3.2128125 C1.42454545,2.7215625 1.74909091,2.289375 2.18090909,1.91625 C2.61363636,1.543125 3.11454545,1.26375 3.68454545,1.0771875 C4.25454545,0.890625 4.89363636,0.796875 5.60090909,0.796875 C5.83636364,0.796875 6.06727273,0.8071875 6.29363636,0.82875 C6.52090909,0.849375 6.74363636,0.88125 6.96181818,0.9234375 C7.18,0.965625 7.39909091,1.0228125 7.61727273,1.0940625 C7.83545455,1.16625 8.05454545,1.2525 8.27363636,1.35375 C8.49181818,1.455 8.69727273,1.569375 8.89,1.696875 C9.08272727,1.824375 9.26090909,1.9640625 9.42727273,2.116875 C9.59272727,2.2696875 9.74636364,2.445 9.88727273,2.6428125 C10.0281818,2.840625 10.1563636,3.06 10.2727273,3.301875 C10.3890909,3.54375 10.4836364,3.8015625 10.5563636,4.0734375 C10.6290909,4.34625 10.6809091,4.633125 10.7109091,4.9359375 L9.57090909,4.9359375 L8.43090909,4.9359375 C8.37818182,4.595625 8.28363636,4.2928125 8.14636364,4.0275 C8.01,3.7621875 7.83090909,3.534375 7.61,3.3440625 C7.38909091,3.15375 7.12363636,3.01125 6.81272727,2.915625 C6.50181818,2.82 6.14636364,2.773125 5.74545455,2.773125 C5.35909091,2.773125 5.01272727,2.8153125 4.70636364,2.89875 C4.4,2.9821875 4.13363636,3.1078125 3.90636364,3.2746875 C3.68,3.4415625 3.51,3.64125 3.39636364,3.8728125 C3.28272727,4.104375 3.22636364,4.36875 3.22636364,4.665 C3.22636364,4.895625 3.26909091,5.101875 3.35545455,5.281875 C3.44181818,5.461875 3.57,5.6175 3.74272727,5.74875 C3.91454545,5.8790625 4.13090909,5.994375 4.39,6.09375 C4.65,6.193125 4.95272727,6.2775 5.3,6.346875 L6.09909091,6.5109375 L6.89818182,6.675 C7.52454545,6.8090625 8.07272727,6.9815625 8.54272727,7.1915625 C9.01272727,7.4015625 9.40363636,7.65 9.71727273,7.9359375 C10.03,8.221875 10.2654545,8.565 10.4218182,8.9653125 C10.5781818,9.365625 10.6563636,9.8221875 10.6563636,10.336875 C10.6563636,10.9434375 10.5454545,11.491875 10.3227273,11.9821875 C10.1,12.4725 9.76727273,12.90375 9.32181818,13.2778125 C8.87727273,13.6509375 8.36090909,13.93125 7.77181818,14.1178125 C7.18363636,14.304375 6.52272727,14.398125 5.79,14.398125 C5.01272727,14.398125 4.30727273,14.296875 3.67454545,14.0934375 C3.04181818,13.8909375 2.48090909,13.58625 1.99272727,13.1803125 C1.50454545,12.774375 1.12363636,12.2953125 0.850909091,11.7421875 C0.58,11.19 0.414545455,10.5646875 0.357272727,9.8653125 Z" id="Path"></path>
                <polygon id="Path" points="13.0509091 14.1271875 13.0509091 7.603125 13.0509091 1.0790625 14.1636364 1.0790625 15.2763636 1.0790625 15.2763636 4.5028125 15.2763636 7.9265625 18.31 4.5028125 21.3436364 1.0790625 22.6836364 1.0790625 24.0236364 1.0790625 21.4845455 3.9778125 18.9454545 6.8765625 21.7609091 10.501875 24.5763636 14.1271875 23.1818182 14.1271875 21.7872727 14.1271875 19.6118182 11.364375 17.4363636 8.6015625 16.3554545 9.838125 15.2745455 11.0746875 15.2745455 12.601875 15.2745455 14.1290625 14.1636364 14.1290625 13.0509091 14.1290625"></polygon>
                <path d="M25.6372727,14.1271875 L28.4163636,7.565625 L31.1954545,1.0040625 L32.24,1.0040625 L33.2845455,1.0040625 L36.0454545,7.565625 L38.8063636,14.1271875 L37.6254545,14.1271875 L36.4454545,14.1271875 L35.8509091,12.6796875 L35.2563636,11.2321875 L32.2318182,11.2321875 L29.2072727,11.2321875 L28.6218182,12.6796875 L28.0363636,14.1271875 L26.8372727,14.1271875 L25.6372727,14.1271875 Z M30.0781818,9.0965625 L32.24,9.0965625 L34.4018182,9.0965625 L33.3209091,6.45 L32.24,3.8034375 L31.1590909,6.45 L30.0781818,9.0965625 Z" id="Shape" fill-rule="nonzero"></path>
                <path d="M40.8190909,14.1271875 L40.8190909,7.603125 L40.8190909,1.0790625 L43.2009091,1.0790625 L45.5827273,1.0790625 C46.3372727,1.0790625 47.0172727,1.1821875 47.6236364,1.389375 C48.23,1.5965625 48.7618182,1.906875 49.2190909,2.3203125 C49.6763636,2.73375 50.02,3.21375 50.2481818,3.759375 C50.4772727,4.305 50.5909091,4.91625 50.5909091,5.5940625 C50.5909091,6.3075 50.4690909,6.950625 50.2245455,7.5234375 C49.9809091,8.09625 49.6145455,8.5996875 49.1263636,9.03375 C48.6381818,9.466875 48.0727273,9.7921875 47.4281818,10.00875 C46.7836364,10.2253125 46.0618182,10.3340625 45.2618182,10.3340625 L44.1518182,10.3340625 L43.0418182,10.3340625 L43.0418182,12.230625 L43.0418182,14.1271875 L41.9290909,14.1271875 L40.8190909,14.1271875 Z M43.0445455,8.1975 L44.2754545,8.1975 L45.5063636,8.1975 C45.9336364,8.1975 46.3190909,8.1384375 46.6645455,8.019375 C47.01,7.9003125 47.3136364,7.723125 47.5772727,7.4859375 C47.8409091,7.24875 48.0381818,6.9721875 48.17,6.6571875 C48.3018182,6.3421875 48.3672727,5.9878125 48.3672727,5.5940625 C48.3672727,5.2378125 48.3018182,4.91625 48.17,4.629375 C48.0381818,4.3425 47.8409091,4.089375 47.5772727,3.8709375 C47.3136364,3.6525 47.01,3.4884375 46.6645455,3.3796875 C46.3190909,3.27 45.9336364,3.215625 45.5063636,3.215625 L44.2754545,3.215625 L43.0445455,3.215625 L43.0445455,5.7075 L43.0445455,8.1975 Z" id="Shape" fill-rule="nonzero"></path>
                <polygon id="Path" points="52.4145455 14.1271875 52.4145455 7.603125 52.4145455 1.0790625 53.5272727 1.0790625 54.64 1.0790625 54.64 7.603125 54.64 14.1271875 53.5272727 14.1271875"></polygon>
                <path d="M56.5963636,14.1271875 L59.3754545,7.565625 L62.1545455,1.0040625 L63.1990909,1.0040625 L64.2436364,1.0040625 L67.0045455,7.565625 L69.7654545,14.1271875 L68.5845455,14.1271875 L67.4036364,14.1271875 L66.8090909,12.6796875 L66.2145455,11.2321875 L63.19,11.2321875 L60.1654545,11.2321875 L59.58,12.6796875 L58.9945455,14.1271875 L57.7954545,14.1271875 L56.5963636,14.1271875 Z M61.0372727,9.0965625 L63.1990909,9.0965625 L65.3609091,9.0965625 L64.28,6.45 L63.1990909,3.8034375 L62.1181818,6.45 L61.0372727,9.0965625 Z" id="Shape" fill-rule="nonzero"></path>
            </g>
        </g>
    </g>
</svg>