<?xml version="1.0" encoding="UTF-8"?>
<svg id="Layer_1" data-name="Layer 1" xmlns="http://www.w3.org/2000/svg" viewBox="0 0 1190.55 841.89">
  <defs>
    <style>
      .cls-1 {
        fill: #fff;
      }
    </style>
  </defs>
  <path class="cls-1" d="M631.11,391.79v142.08h30.19v-113.37h50.32v113.37h30.19v-113.37h50.32v113.37h30.19v-142.08h-191.21ZM555.34,533.87h30.19v-142.08h-30.19v142.08ZM570.43,369.88c11.25,0,20.72-9.47,20.72-20.72s-9.47-20.72-20.72-20.72-20.72,9.47-20.72,20.72,9.47,20.72,20.72,20.72M466.24,533.87h30.19v-114.26h29.9v-27.82h-29.9v-55.35h-30.19v55.35h-25.75v27.82h25.75v114.26h0ZM379.22,533.87h30.19v-230.29h-30.19v230.29ZM276.51,537.42c17.76,0,33.15-6.51,43.81-17.17,9.77-9.77,15.69-22.79,15.69-43.22v-85.25h-30.19v84.06c0,13.02-2.66,19.24-7.4,23.98-5.62,5.62-13.02,8.58-21.9,8.58s-16.28-2.96-21.9-8.58c-4.74-4.74-7.4-10.95-7.4-23.98v-84.06h-30.19v85.25c0,20.42,5.92,33.45,15.69,43.22,10.64,10.66,26.03,17.17,43.79,17.17M856.66,488.58c0-28.42,22.2-48.54,53.58-48.54h1.78v26.94c-14.21,0-24.27,8.88-24.27,21.61s10.06,21.9,24.27,21.9c8.88,0,16.58-3.26,22.2-8.88,5.33-5.33,8.58-13.32,8.58-26.34v-54.47h-73.41v-29.01h103.6v142.08h-28.71v-14.21c-.89,1.48-2.37,3.26-3.55,4.44-7.99,7.99-19.24,13.32-31.97,13.32-30.49,0-52.1-20.72-52.1-48.84Z"/>
</svg>