<svg width="122" height="24" viewBox="0 0 122 24" fill="none" xmlns="http://www.w3.org/2000/svg">
<path d="M108.185 4.39421V10.8339C108.185 11.007 108.489 11.3007 108.773 11.0165C108.863 10.9268 111.505 7.45052 113.171 5.25676C115.472 6.5692 117.044 9.0544 117.044 11.861C117.044 16.0006 113.627 19.385 109.487 19.385C105.346 19.385 101.962 16.0006 101.962 11.861C101.962 9.46897 103.096 7.31498 104.85 5.91823V0.939229C100.619 2.73974 97.6897 6.9405 97.6897 11.861C97.6897 18.4321 102.915 23.6564 109.487 23.6564C116.059 23.6564 121.316 18.4321 121.316 11.861C121.316 5.28985 116.059 0 109.487 0C109.046 0 108.612 0.02768 108.185 0.0738143V4.39421Z" fill="white"/>
<path d="M37.2082 11.1875C38.9498 11.1875 40.4619 9.67616 40.4619 7.83652C40.4619 6.09519 38.9498 4.64944 37.2082 4.64944H31.8518V11.1875H37.2082ZM27.5474 1.33127C27.5474 1.00229 27.8103 0.707031 28.1721 0.707031H37.5697C41.5133 0.707031 44.7332 3.86102 44.7332 7.77034C44.7332 10.7936 42.7288 13.2571 39.8704 14.4076L44.3717 22.7528C44.6018 23.1798 44.3717 23.7057 43.8133 23.7057H40.3629C40.0673 23.7057 39.9028 23.5412 39.8373 23.4105L35.467 14.7029H31.8194V23.0815C31.8194 23.4105 31.5234 23.7057 31.1947 23.7057H28.1721C27.8103 23.7057 27.5474 23.4105 27.5474 23.0815V1.33127Z" fill="white"/>
<path d="M60.7052 15.8534L57.4194 8.62499H57.3207L54.1005 15.8534H60.7052ZM46.5093 22.8515L56.7295 0.740174C56.8278 0.542593 56.9924 0.378418 57.288 0.378418H57.6164C57.9454 0.378418 58.0765 0.542593 58.1755 0.740174L68.2957 22.8515C68.4927 23.2791 68.2302 23.7058 67.7373 23.7058H64.8782C64.3853 23.7058 64.1552 23.5088 63.9252 23.0491L62.3153 19.5006H52.4897L50.8799 23.0491C50.7485 23.3774 50.4529 23.7058 49.9269 23.7058H47.0684C46.5755 23.7058 46.3123 23.2791 46.5093 22.8515Z" fill="white"/>
<path d="M74.9694 0.378312C75.2157 0.373221 75.3958 0.513851 75.5275 0.706979L82.7569 16.2148C82.8231 16.2148 82.8231 16.2148 82.8559 16.2148L90.0849 0.706979C90.3229 0.294634 90.7602 0.378312 91.1687 0.378312C91.5309 0.378312 91.7278 0.608347 91.7609 0.870835L95.6383 22.9497C95.7369 23.4104 95.4738 23.7057 95.0467 23.7057H92.0569C91.7609 23.7057 91.4978 23.4429 91.4319 23.2128L89.4927 10.7604C89.4609 10.7604 89.395 10.7604 89.395 10.7604L83.645 23.6729C83.5196 23.9106 83.6148 23.783 83.2969 24H82.2885C81.9782 23.7808 82.0801 23.9045 81.9359 23.6729L76.1194 10.7604C76.1194 10.7604 76.0535 10.7604 76.0204 10.7604L74.1144 23.2128C74.0813 23.4429 73.8194 23.7057 73.5235 23.7057H70.566C70.139 23.7057 69.8761 23.4104 69.942 22.9497L73.8515 0.870835C73.8843 0.608347 74.0813 0.378312 74.4434 0.378312H74.9694Z" fill="white"/>
<path d="M11.7629 0.394287C16.7743 0.524417 20.5613 3.03444 22.686 7.554H17.7057C16.1586 5.65264 14.1682 4.8079 11.7629 4.666C8.50729 4.729 5.55369 6.80885 4.57711 9.95839C4.29708 10.8613 4.13034 11.9972 4.2764 12.9574C4.8915 17.0042 7.67486 19.5365 11.7629 19.7465C14.5692 19.7465 17.0547 18.1741 18.3673 15.8734C16.1739 14.2085 12.6971 11.5667 12.6071 11.4767C12.3226 11.1919 12.6163 10.8887 12.7901 10.8887H23.5509C24.0559 15.6199 21.6455 20.3306 17.4263 22.5982C15.5413 23.6113 13.52 24.0001 11.4103 24.0001C6.4224 23.8604 1.95157 20.5164 0.491315 15.722C-0.0044536 14.0942 1.3886e-06 13.0882 1.3886e-06 11.5012C0.168015 7.46937 2.56667 3.71436 6.11437 1.80663C7.95202 0.818723 8.51748 0.86263 10.5473 0.45474L11.7629 0.394287Z" fill="white"/>
</svg>
