<svg width="42" height="42" viewBox="0 0 42 42" xmlns="http://www.w3.org/2000/svg">
    <path
      d="M37.3809 15.1058L26.896 4.63421C25.4309 3.16524 23.6903 1.99976 21.7741 1.20455C19.8578 0.409332 17.8035 0 15.7288 0C13.6541 0 11.5998 0.409332 9.68354 1.20455C7.76729 1.99976 6.02676 3.16524 4.56166 4.63421C-1.52055 10.8132 -1.52055 20.7649 4.56166 26.8376L15.0447 37.3073C16.5098 38.7763 18.2503 39.9418 20.1665 40.737C22.0828 41.5322 24.1372 41.9416 26.2118 41.9416C28.2865 41.9416 30.3409 41.5322 32.2572 40.737C34.1734 39.9418 35.9139 38.7763 37.379 37.3073C43.4613 31.1284 43.4613 21.1805 37.3809 15.1058ZM26.896 26.8357C24.8753 28.8535 22.3477 30.2888 19.5796 30.9902C16.8114 31.6916 13.9053 31.6331 11.1676 30.8209C10.3221 28.0966 10.2364 25.1933 10.9196 22.424C11.6028 19.6546 13.0291 17.1243 15.0447 15.1058C17.0657 13.0887 19.5934 11.6539 22.3614 10.9526C25.1294 10.2512 28.0353 10.3092 30.773 11.1206C31.6188 13.8448 31.7046 16.7482 31.0214 19.5177C30.3381 22.2871 28.9117 24.8174 26.896 26.8357Z"
      fill="#231F20"
    />
  </svg>