<svg viewBox="0 0 24 24" fill="none" xmlns="http://www.w3.org/2000/svg">
  <path d="M12 2a10 10 0 00-3.16 19.48c.5.09.68-.22.68-.48v-1.68c-2.78.6-3.37-1.34-3.37-1.34-.45-1.16-1.1-1.48-1.1-1.48-.9-.62.07-.6.07-.6 1 .07 1.53 1.04 1.53 1.04.88 1.5 2.32 1.07 2.88.82.09-.64.35-1.07.64-1.32-2.22-.25-4.55-1.11-4.55-4.93 0-1.09.39-1.98 1.02-2.68-.1-.25-.44-1.28.1-2.66 0 0 .84-.27 2.75 1.02A9.58 9.58 0 0112 7.8c.86.004 1.73.117 2.54.34 1.9-1.29 2.74-1.02 2.74-1.02.55 1.38.21 2.41.1 2.66.64.7 1.02 1.59 1.02 2.68 0 3.84-2.34 4.68-4.57 4.93.36.31.68.92.68 1.86V21c0 .27.18.58.69.48A10 10 0 0012 2z" fill="#363644"/>
</svg>
