<?xml version="1.0" encoding="UTF-8"?>
<svg id="Layer_1" data-name="Layer 1" xmlns="http://www.w3.org/2000/svg" width="192.12654mm" height="47.94445mm" xmlns:xlink="http://www.w3.org/1999/xlink" viewBox="0 0 544.61067 135.90554">
  <defs>
    <style>
      .cls-1 {
        fill: #d1002c;
        stroke-width: 0px;
      }
    </style>
    <symbol id="uia_symbol_positiv_2" data-name="uia symbol positiv 2" viewBox="0 0 134.75421 166.0553">
      <g>
        <path class="cls-1" d="m62.34589,58.6156h12.58527c-2.44305-13.1485.7403-18.53766,11.69684-18.53766h48.12622v-13.2674h-48.42236c-18.97626,0-28.32556,11.1217-23.98596,31.80505Z"/>
        <rect class="cls-1" x="120.69421" y="77.94763" width="14.06" height="88.10767"/>
        <rect class="cls-1" x="91.90033" y="77.94763" width="14.05994" height="88.10767"/>
        <rect class="cls-1" x="91.08911" y="51.77966" width="43.66504" height="13.41113"/>
        <path class="cls-1" d="m58.87115,153.13666c-14.03931-.51263-23.35449-8.61475-23.11462-20.40125.216-10.61285,7.48761-19.45367,18.10315-19.45367,6.40643,0,12.40082,1.36462,16.71771,6.54016v-13.96246c-4.60974-3.73169-10.97516-5.33356-16.4632-5.33356-16.46356,0-31.02051,12.79694-31.02051,31.0708,0,8.24329,3.85219,15.66644,8.14393,20.41113-11.88208-5.89973-19.03663-16.4175-19.03663-32.45111,0-18.59247,15.13251-32.78143,33.72498-32.78143,3.16125,0,6.09644.27112,9.30261,1.12695v-13.95667c-2.46967-.55994-6.09918-.83881-8.76685-.83881C20.84277,73.10675,0,93.94946,0,119.56842c0,28.89618,21.33289,46.45129,45.5448,46.45129l31.5838.03558v-12.79022s-10.73883-.06592-18.26471-.11963l.00726-.00879Z"/>
        <path class="cls-1" d="m1.00684,0l-.00195,79.75989c3.64008-3.88617,7.12286-7.0459,11.99207-9.75293l.0014-57.93042h121.75586V0H1.00684Z"/>
      </g>
    </symbol>
  </defs>
  <g>
    <g>
      <path class="cls-1" d="m167.65903,31.98065v45.31942c0,15.69975,8.28093,20.19203,16.98005,20.19203,10.05826,0,16.67387-5.13949,16.67387-20.19203V31.98065h14.25017v44.60667c0,25.46345-14.63517,32.2251-31.14309,32.2251-16.66226,0-31.04435-7.145-31.04435-31.7762V31.98065h14.28336Z"/>
      <path class="cls-1" d="m230.07964,31.93972h13.62453v13.32085h-13.62453v-13.32085Zm0,23.82468h13.62453v52.01745h-13.62453v-52.01745Z"/>
      <path class="cls-1" d="m274.13534,88.48016l-6.68117,19.3017h-14.0195l26.17122-75.80121h17.77164l27.29968,75.80121h-14.99611l-6.97739-19.3017h-28.56837Zm25.36636-11.78083c-6.01322-17.34266-9.62928-27.68801-11.39416-34.14598h-.10953c-1.86362,7.11513-5.87382,19.32328-10.70381,34.14598h22.20749Z"/>
    </g>
    <use width="134.75421" height="166.0553" transform="scale(.81844)" xlink:href="#uia_symbol_positiv_2"/>
  </g>
  <g>
    <path class="cls-1" d="m346.83137,31.85179v19.32617c0,7.33203,3.97949,9.3457,7.97656,9.3457,4.66211,0,7.89258-2.20703,7.89258-9.3457v-19.32617h4.7998v19.08203c0,10.54492-5.89941,13.50586-12.78516,13.50586-6.81445,0-12.70996-3.17969-12.70996-13.23633v-19.35156h4.82617Z"/>
    <path class="cls-1" d="m374.00715,46.38499c0-2.03809,0-4.13086-.04688-5.94238h4.41797c.11328.67871.18066,2.99512.17676,3.70703.91406-1.9209,2.83398-4.2627,7.31152-4.2627,4.48047,0,7.86621,2.80078,7.86621,9.00391v15.13574h-4.54785v-14.5752c0-3.38672-1.29297-5.69434-4.75488-5.69434-4.12305,0-5.875,3.02832-5.875,7.65723v12.6123h-4.54785v-17.6416Z"/>
    <path class="cls-1" d="m400.44465,30.05296h4.54785v5.23047h-4.54785v-5.23047Zm0,10.38965h4.54785v23.58398h-4.54785v-23.58398Z"/>
    <path class="cls-1" d="m413.94075,40.44261c2.99414,9.3252,5.23047,16.48828,5.90039,19.41113h.04688c.59375-2.87207,3.06152-9.94336,6.3125-19.41113h4.60352l-8.6084,23.58398h-4.94824l-8.18262-23.58398h4.87598Z"/>
    <path class="cls-1" d="m437.43196,53.10276c.02441,4.43848,2.25684,7.74512,6.11523,7.74512,3.5332,0,4.65723-1.76074,5.38574-3.42871h4.57422c-.91016,2.99414-3.44922,7.16406-10.09473,7.16406-7.4834,0-10.5752-5.98438-10.5752-12.0791,0-7.08691,3.58398-12.61719,10.83203-12.61719,7.70215,0,10.24609,6.05664,10.24609,11.25293,0,.73242,0,1.31836-.06738,1.96289h-16.41602Zm11.88477-3.09082c-.0459-3.66016-1.83203-6.62109-5.69824-6.62109-3.9502,0-5.66406,2.74609-6.04785,6.62109h11.74609Z"/>
    <path class="cls-1" d="m459.02278,46.84886c0-3.1123-.02539-5.01172-.04688-6.40625h4.45996c.06738.63672.13477,2.58203.13477,4.68359,1.19629-3.0957,3.9502-5.1377,7.87109-5.23926v4.48047c-4.81738.09277-7.87109,2.37598-7.87109,8.43555v11.22363h-4.54785v-17.17773Z"/>
    <path class="cls-1" d="m478.33528,57.21311c.63965,2.44238,2.47559,3.87012,5.52539,3.87012,3.25977,0,4.52734-1.37305,4.52734-3.37793,0-2.07227-1.07031-3.01074-5.35352-4.05078-6.92285-1.68945-8.2998-3.81152-8.2998-7.03809,0-3.36426,2.4502-6.72949,8.71776-6.72949,6.28712,0,8.76759,3.59668,9.05373,6.86523h-4.37988c-.31152-1.39844-1.35547-3.42871-4.87207-3.42871-3.08301,0-4.00977,1.46582-4.00977,2.91895,0,1.64648.92285,2.45898,5.15039,3.46582,7.29004,1.72266,8.65918,4.16895,8.65918,7.66504,0,4.08887-3.21777,7.20996-9.3457,7.20996-6.3125,0-9.29785-3.15918-9.88379-7.37012h4.51074Z"/>
    <path class="cls-1" d="m498.10286,30.05296h4.54785v5.23047h-4.54785v-5.23047Zm0,10.38965h4.54785v23.58398h-4.54785v-23.58398Z"/>
    <path class="cls-1" d="m506.70539,40.44261h3.99316v-6.84766h4.54785v6.84766h5.09082v3.63086h-5.09082v13.39258c0,2.19434.55566,3.27637,2.65332,3.27637.52637,0,1.33008-.02539,1.94531-.17285v3.34375c-1.06152.3877-2.53125.4375-3.69336.4375-3.84863,0-5.45312-2.00879-5.45312-5.9668v-14.31055h-3.99316v-3.63086Z"/>
    <path class="cls-1" d="m527.77766,40.44261c3.54199,10.68066,5.64355,17.13672,6.2207,19.49121h.0459c.7168-2.61523,2.33789-7.98926,5.98926-19.49121h4.57715l-8.37207,24.59082c-2.37109,6.87695-4.16504,8.67969-9.15527,8.67969-.70801,0-1.68457-.0459-2.63672-.16016v-3.87402c.56836.07129,1.25977.11816,1.89551.11816,2.87207,0,4.02246-1.22168,5.31543-4.89844l-8.78516-24.45605h4.90527Z"/>
    <path class="cls-1" d="m362.12629,95.92893c0,6.86035-3.9668,12.39453-11.22656,12.39453-6.86523,0-10.98828-5.22656-10.98828-12.30566,0-7.02441,4.08105-12.38965,11.26172-12.38965,6.62402,0,10.95312,4.90137,10.95312,12.30078Zm-17.54884.04688c0,5.0498,2.45997,8.6123,6.48634,8.6123,4.09766,0,6.39746-3.40723,6.39746-8.5918,0-5.23438-2.2959-8.63379-6.49023-8.63379-4.14453,0-6.39357,3.30664-6.39357,8.61328Z"/>
    <path class="cls-1" d="m368.19465,107.7678v-19.9541h-3.73145v-3.62988h3.73145v-2.67871c0-4.43848,1.80664-8.1748,6.99512-8.1748.90527,0,2.11426.11816,2.69043.30371v3.78125c-.52539-.12207-1.32227-.19336-1.93262-.19336-2.33301,0-3.20508,1.31348-3.20508,4.58594v2.37598h4.60742v3.62988h-4.60742v19.9541h-4.54785Z"/>
    <path class="cls-1" d="m398.05598,98.53538l-3.28125,9.23242h-4.73633l11.35742-32.17578h5.91211l11.84766,32.17578h-5.07031l-3.39453-9.23242h-12.63477Zm11.46387-4.04199c-2.91895-8.1416-4.56152-12.60547-5.27246-15.14062h-.04688c-.78711,2.81348-2.61914,8.17871-4.96973,15.14062h10.28906Z"/>
    <path class="cls-1" d="m443.47981,105.49729c0,7.55957-3.05859,11.95605-10.99609,11.95605-7.43359,0-9.53516-4.16016-9.92188-7.25977h4.63574c.64453,2.39648,2.54785,3.71484,5.4834,3.71484,5.13867,0,6.36426-3.23926,6.36426-8.51172v-1.75684c-1.25098,2.52734-3.37402,3.98047-7.23145,3.98047-5.88281,0-9.75781-4.80078-9.75781-11.60254,0-7.63574,4.46875-12.38965,10.20898-12.38965,4.40918,0,6.2793,2.07617,6.78027,3.5498.0459-.98535.15527-2.52246.20215-2.99414h4.30371c-.02148,1.50781-.07129,4.53516-.07129,6.80078v14.5127Zm-16.71582-9.67773c0,4.79688,2.47656,7.98145,6.14453,7.98145,4.86426,0,6.2666-3.27734,6.2666-8.26758,0-5.04102-1.2627-8.10742-6.12695-8.10742-4.06445,0-6.28418,3.36523-6.28418,8.39355Z"/>
    <path class="cls-1" d="m470.29231,73.79417v27.34473c0,2.20215,0,4.375.0459,6.62891h-4.37109c-.11426-.64062-.20215-2.33301-.22363-3.17578-1.1582,2.3418-3.47852,3.73145-7.27734,3.73145-6.04297,0-9.7832-4.88965-9.7832-12.1123,0-7.25977,4.02246-12.58301,10.5752-12.58301,4.02246,0,5.875,1.5918,6.48535,2.86328v-12.69727h4.54883Zm-16.90039,22.28223c0,5.4834,2.53027,8.44824,6.13574,8.44824,5.31543,0,6.39355-4.00488,6.39355-8.83105,0-5.00781-.99414-8.26758-6.10352-8.26758-4.01758,0-6.42578,3.17578-6.42578,8.65039Z"/>
    <path class="cls-1" d="m479.97786,96.843c.02441,4.43945,2.25684,7.74512,6.11523,7.74512,3.5332,0,4.65723-1.76074,5.38574-3.42773h4.57324c-.90918,2.99414-3.44922,7.16309-10.09375,7.16309-7.48438,0-10.5752-5.98438-10.5752-12.07812,0-7.08789,3.58398-12.61719,10.83105-12.61719,7.70312,0,10.24609,6.05566,10.24609,11.25195,0,.7334,0,1.31836-.06641,1.96289h-16.41602Zm11.88477-3.09082c-.04688-3.66016-1.83203-6.62109-5.69824-6.62109-3.9502,0-5.66504,2.74609-6.04785,6.62109h11.74609Z"/>
    <path class="cls-1" d="m501.56868,90.58909c0-3.1123-.02539-5.01172-.04688-6.40527h4.45996c.06738.63574.13477,2.58105.13477,4.68262,1.19531-3.09473,3.9502-5.1377,7.87109-5.23828v4.48047c-4.81836.09277-7.87109,2.375-7.87109,8.43555v11.22363h-4.54785v-17.17871Z"/>
  </g>
</svg>