<?xml version="1.0" encoding="utf-8"?>
<!-- Generator: Adobe Illustrator 28.0.0, SVG Export Plug-In . SVG Version: 6.00 Build 0)  -->
<svg version="1.1" id="Layer_1" xmlns="http://www.w3.org/2000/svg" xmlns:xlink="http://www.w3.org/1999/xlink" x="0px" y="0px"
	 viewBox="0 0 493.1 141.7" style="enable-background:new 0 0 493.1 141.7;" xml:space="preserve">
<style type="text/css">
	.st0{fill:#00B6C9;}
	.st1{fill:#003146;}
</style>
<g>
	<g>
		<polygon class="st0" points="21.6,0 0,0 36,62.4 46.8,43.7 		"/>
		<polygon class="st0" points="107.2,0 64.4,74.1 53.6,92.8 81.8,141.7 163.7,0 		"/>
	</g>
	<g>
		<path class="st1" d="M214.9,24.8c-1.8,6.8-3.7,13.7-5.5,20.5h-4.9L199.3,19h4.3c1.2,6.7,2.4,13.2,3.6,19.9l5-19.9h5.4l5,20l4.3-20
			h4.3l-5.8,26.3h-4.9L214.9,24.8z"/>
		<path class="st1" d="M246.2,38.7c1.2,0.3,2.5,0.7,3.7,1.1c-0.9,2.7-3.4,5.9-8.6,5.9c-5.2,0-8.9-4-8.9-9.8c0-5.8,3.4-9.8,8.7-9.8
			c5.2,0,8.5,3.5,8.5,9.2c0,0.6,0,1.2-0.1,1.8h-13c0.1,2.8,2,5.2,4.7,5.2C243.3,42.3,245.2,41.4,246.2,38.7z M245.3,34
			c-0.1-2.8-1.5-4.6-4.2-4.6c-2.7,0-4.2,2.2-4.3,4.6H245.3z"/>
		<path class="st1" d="M252.9,39.8c1.3-0.3,2.7-0.5,4-0.7c0.3,1.5,1.2,3.3,4.2,3.3c0.7,0,4-0.3,4-2.7c0-4.5-11.6,0.1-11.6-8
			c0-3.2,3.2-5.6,7.3-5.6c4,0,7.5,1.7,8,5.9c-1.3,0.2-2.7,0.5-4,0.7c-0.3-2.4-1.7-3.2-4-3.2c-2,0-3.3,1-3.3,2.2
			c0,1.5,1.4,1.9,3.7,2.2c4.3,0.4,7.9,1.4,7.9,5.8c0,4-3.5,6.1-8,6.1C256.2,45.7,253.5,43.2,252.9,39.8z"/>
		<path class="st1" d="M271.7,29.5v-3.1h3.3V21h4v5.5h3.9v3.1H279v10.7c0,1.5,0.4,1.9,1.8,1.9c0.6,0,1.2-0.1,1.8-0.1v3.3l-2.4,0.1
			c-0.1,0-0.3,0-0.5,0c-3.6,0-4.7-1.9-4.7-5.5V29.5H271.7z"/>
		<path class="st1" d="M299.9,38.7c1.2,0.3,2.5,0.7,3.7,1.1c-0.9,2.7-3.4,5.9-8.6,5.9c-5.2,0-8.9-4-8.9-9.8c0-5.8,3.4-9.8,8.7-9.8
			c5.2,0,8.5,3.5,8.5,9.2c0,0.6,0,1.2-0.1,1.8h-13c0.1,2.8,2,5.2,4.7,5.2C297,42.3,298.9,41.4,299.9,38.7z M299,34
			c-0.1-2.8-1.5-4.6-4.2-4.6c-2.7,0-4.2,2.2-4.3,4.6H299z"/>
		<path class="st1" d="M318.6,26.1v3.5h-2.1c-2.8,0-4,1.8-4,5.6v10.1h-4V26.4h3.7l0.4,2.1c0.7-1.1,2-2.4,4.4-2.4
			C317.3,26,318,26.1,318.6,26.1z"/>
		<path class="st1" d="M334.7,35c0-3.9-1.3-5.6-4.3-5.6c-2.8,0-4.2,1.8-4.2,5.6v10.3h-4V26.4h3.7l0.4,2.1c0.6-1.2,2.7-2.4,5-2.4
			c5.4,0,7.5,3,7.5,9v10.3h-4V35z"/>
		<path class="st1" d="M352.6,19h4.1l12.1,19V19h4.2v26.3h-4.1l-12.1-19v19h-4.2V19z"/>
		<path class="st1" d="M385.9,45.7c-5.5,0-8.8-4-8.8-9.8c0-5.8,3.3-9.8,8.8-9.8c5.4,0,8.7,4,8.7,9.8
			C394.6,41.7,391.3,45.7,385.9,45.7z M385.9,29.5c-2.9,0-4.8,2.3-4.8,6.4c0,4.1,1.9,6.4,4.8,6.4c2.9,0,4.8-2.3,4.8-6.4
			C390.6,31.8,388.7,29.5,385.9,29.5z"/>
		<path class="st1" d="M409.3,26.1v3.5h-2.1c-2.8,0-4,1.8-4,5.6v10.1h-4V26.4h3.7l0.4,2.1c0.7-1.1,2-2.4,4.4-2.4
			C408.1,26,408.8,26.1,409.3,26.1z"/>
		<path class="st1" d="M424.4,31.4l-4.3,13.9h-4.6l-4.3-18.9h4.2L418,40l4.1-13.6h4.4l4.4,13.6l2.8-13.6h4.2l-4.5,18.9h-4.6
			L424.4,31.4z"/>
		<path class="st1" d="M445.1,32.9c-1.3-0.2-2.7-0.5-4-0.7c0.4-4.2,3.8-6.1,7.8-6.1c5.3,0,8.1,2.6,8.1,7.8v6.6c0,1.1,0.2,1.8,1,1.8
			c0.3,0,0.8-0.1,1-0.1v3.3c-1.2,0.3-1.9,0.3-2.4,0.3c-1.9,0-3-1.2-3.3-2.7c-0.7,0.9-2.7,2.7-5.9,2.8c-4.4,0-7-2.4-7-6
			c0-3,2.7-5.6,7.7-5.6h4.9v-1.1c0-1.5-0.6-3.4-4.1-3.4C446.6,29.5,445.2,30.6,445.1,32.9z M453,38v-0.9h-4.4c-3.3,0-4,1.7-4,2.6
			c0,1.3,0.9,2.6,3.3,2.6C451.2,42.3,453,40.1,453,38z"/>
		<path class="st1" d="M473.4,26.4h4.2c-2.1,5.8-4.3,11.5-6.5,17.3l-3.3,9h-3.9l2.7-7.4l-7-18.9h4.2c1.6,4.7,3.2,9.3,4.9,14
			L473.4,26.4z"/>
		<path class="st1" d="M221,57.2v17.5c0,5.9-4.4,9.2-9.9,9.2c-5.4,0-9.9-3.3-9.9-9.2V57.2h4.2v17.5c0,3.4,2.5,5.7,5.8,5.7
			c3.2,0,5.7-2.3,5.7-5.7V57.2H221z"/>
		<path class="st1" d="M239,73.3c0-3.9-1.3-5.6-4.3-5.6c-2.8,0-4.2,1.8-4.2,5.6v10.3h-4V64.6h3.7l0.4,2.1c0.6-1.2,2.7-2.4,5-2.4
			c5.4,0,7.5,3,7.5,9v10.3h-4V73.3z"/>
		<path class="st1" d="M248.1,57.2h4.6v4.5h-4.6V57.2z M252.4,64.6v18.9h-4V64.6H252.4z"/>
		<path class="st1" d="M269.4,64.6h4.2l-7,18.9h-4l-7.1-18.9h4.2l4.8,14L269.4,64.6z"/>
		<path class="st1" d="M289.1,77c1.2,0.3,2.5,0.7,3.7,1.1c-0.9,2.7-3.4,5.9-8.6,5.9c-5.2,0-8.9-4-8.9-9.8s3.4-9.8,8.7-9.8
			c5.2,0,8.5,3.5,8.5,9.2c0,0.6,0,1.2-0.1,1.8h-13c0.1,2.8,2,5.2,4.7,5.2C286.2,80.5,288.1,79.6,289.1,77z M288.2,72.3
			c-0.1-2.8-1.5-4.6-4.2-4.6c-2.7,0-4.2,2.2-4.3,4.6H288.2z"/>
		<path class="st1" d="M307.5,64.4v3.5h-2.1c-2.8,0-4,1.8-4,5.6v10.1h-4V64.6h3.7l0.4,2.1c0.7-1.1,2-2.4,4.4-2.4
			C306.3,64.3,307,64.3,307.5,64.4z"/>
		<path class="st1" d="M309.4,78c1.3-0.3,2.7-0.5,4-0.7c0.3,1.5,1.2,3.3,4.2,3.3c0.7,0,4-0.3,4-2.7c0-4.5-11.6,0.2-11.6-8
			c0-3.2,3.2-5.6,7.3-5.6c4,0,7.5,1.7,8,5.9c-1.3,0.2-2.7,0.5-4,0.7c-0.3-2.4-1.7-3.2-4-3.2c-2,0-3.3,1-3.3,2.2
			c0,1.5,1.4,1.9,3.7,2.2c4.3,0.4,7.9,1.4,7.9,5.8c0,4-3.5,6.1-8,6.1C312.7,83.9,310,81.4,309.4,78z"/>
		<path class="st1" d="M330.3,57.2h4.6v4.5h-4.6V57.2z M334.6,64.6v18.9h-4V64.6H334.6z"/>
		<path class="st1" d="M338.8,67.7v-3.1h3.3v-5.5h4v5.5h3.9v3.1h-3.9v10.7c0,1.5,0.4,1.9,1.8,1.9c0.6,0,1.2-0.1,1.8-0.1v3.3
			l-2.4,0.1c-0.1,0-0.3,0-0.5,0c-3.6,0-4.7-1.9-4.7-5.5V67.7H338.8z"/>
		<path class="st1" d="M366.4,64.6h4.2c-2.1,5.8-4.3,11.6-6.5,17.3l-3.3,9h-3.9l2.7-7.4l-7-18.9h4.2c1.6,4.7,3.2,9.3,4.9,14
			L366.4,64.6z"/>
		<path class="st1" d="M388.6,83.9c-5.5,0-8.8-4-8.8-9.8s3.3-9.8,8.8-9.8c5.4,0,8.7,4,8.7,9.8C397.4,79.9,394.1,83.9,388.6,83.9z
			 M388.6,67.7c-2.9,0-4.8,2.3-4.8,6.4c0,4.1,1.9,6.4,4.8,6.4c2.9,0,4.8-2.3,4.8-6.4C393.4,70,391.5,67.7,388.6,67.7z"/>
		<path class="st1" d="M403,64.6v-2.3c0-3.1,1.4-5.1,5.2-5.1h2.8v3.4h-2.3c-1.1,0-1.6,0.7-1.6,1.9v2.1h3.6v3.1h-3.6v15.8h-4V67.7
			h-3.3v-3.1H403z"/>
		<path class="st1" d="M216.1,116.4h-10.7l-1.9,5.3h-4.3l9.5-26.3h4l9.5,26.3h-4.3L216.1,116.4z M206.6,112.9h8.3l-4.1-11.8
			L206.6,112.9z"/>
		<path class="st1" d="M225.8,102.9h3.7l0.4,2.4c0.7-1,2.8-2.8,5.5-2.8c4.7,0,8.1,4,8.1,9.8c0,5.8-3,9.8-8.1,9.8
			c-2.5,0-4.7-1.5-5.5-2.7v9.7h-4.1V102.9z M234.5,105.9c-3,0-4.7,2.3-4.7,6.4c0,4.1,1.7,6.4,4.7,6.4c2.9,0,4.8-2.3,4.8-6.4
			C239.3,108.2,237.4,105.9,234.5,105.9z"/>
		<path class="st1" d="M247.9,102.9h3.7l0.4,2.4c0.7-1,2.8-2.8,5.5-2.8c4.7,0,8.1,4,8.1,9.8c0,5.8-3,9.8-8.1,9.8
			c-2.5,0-4.7-1.5-5.5-2.7v9.7h-4.1V102.9z M256.7,105.9c-3,0-4.7,2.3-4.7,6.4c0,4.1,1.7,6.4,4.7,6.4c2.9,0,4.8-2.3,4.8-6.4
			C261.5,108.2,259.6,105.9,256.7,105.9z"/>
		<path class="st1" d="M274.1,95.5v26.3h-4V95.5H274.1z"/>
		<path class="st1" d="M279.4,95.5h4.6v4.5h-4.6V95.5z M283.7,102.9v18.9h-4v-18.9H283.7z"/>
		<path class="st1" d="M302.1,115.2c1.2,0.3,2.5,0.7,3.7,1.1c-0.9,2.7-3.4,5.9-8.6,5.9c-5.2,0-8.9-4-8.9-9.8c0-5.8,3.4-9.8,8.7-9.8
			c5.2,0,8.5,3.5,8.5,9.2c0,0.6,0,1.2-0.1,1.8h-13c0.1,2.8,2,5.2,4.7,5.2C299.2,118.7,301.1,117.8,302.1,115.2z M301.3,110.5
			c-0.1-2.8-1.5-4.6-4.2-4.6c-2.7,0-4.2,2.2-4.3,4.6H301.3z"/>
		<path class="st1" d="M327,121.8h-3.7l-0.4-2.4c-0.7,1-2.8,2.7-5.5,2.7c-4.7,0-8.2-4-8.2-9.8c0-5.8,3.1-9.8,8.2-9.8
			c2.5,0,4.7,1.6,5.5,2.7v-9.7h4.1V121.8z M318.2,118.7c2.9,0,4.7-2.3,4.7-6.4c0-4.1-1.8-6.4-4.7-6.4c-2.9,0-4.9,2.3-4.9,6.4
			C313.4,116.5,315.3,118.7,318.2,118.7z"/>
		<path class="st1" d="M343.9,112.8c0,2.5,1.8,5.9,6.3,5.9c3.1,0,5.8-1.5,5.8-4.4c0-3.3-3-4-5.8-4.2c-4.3-0.4-9.7-1.8-9.7-7.3
			c0-5.4,5.1-7.6,9.5-7.6c4.7,0,9.4,2.8,9.6,7.7l-4,0.7c-0.3-3.4-3-4.8-5.6-4.8c-2.6,0-5.4,1.1-5.4,4.1c0,1.8,1.5,3.3,5.8,3.8
			c4.3,0.5,9.8,1.5,9.8,7.7c0,4.7-4.1,7.9-10,7.9c-7.4,0-10.3-4.7-10.5-8.6L343.9,112.8z"/>
		<path class="st1" d="M376.6,115.1c1.3,0.2,2.7,0.5,4,0.7c-0.6,3.1-3.3,6.3-8.3,6.3c-5.5,0-8.9-4-8.9-9.8c0-5.8,3.5-9.8,8.9-9.8
			c5,0,7.4,3.1,8.2,6.3c-1.3,0.3-2.7,0.5-4,0.7c-0.6-2.4-2.2-3.6-4.1-3.6c-3.2,0-4.9,2.6-4.9,6.4c0,3.8,1.7,6.4,4.9,6.4
			C374.4,118.7,376,117.5,376.6,115.1z"/>
		<path class="st1" d="M384.7,95.5h4.6v4.5h-4.6V95.5z M389,102.9v18.9h-4v-18.9H389z"/>
		<path class="st1" d="M407.4,115.2c1.2,0.3,2.5,0.7,3.7,1.1c-0.9,2.7-3.4,5.9-8.6,5.9c-5.2,0-8.9-4-8.9-9.8c0-5.8,3.4-9.8,8.7-9.8
			c5.2,0,8.5,3.5,8.5,9.2c0,0.6,0,1.2-0.1,1.8h-13c0.1,2.8,2,5.2,4.7,5.2C404.5,118.7,406.5,117.8,407.4,115.2z M406.6,110.5
			c-0.1-2.8-1.5-4.6-4.2-4.6c-2.7,0-4.2,2.2-4.3,4.6H406.6z"/>
		<path class="st1" d="M428.2,111.5c0-3.9-1.3-5.6-4.3-5.6c-2.8,0-4.2,1.8-4.2,5.6v10.3h-4v-18.9h3.7l0.4,2.1c0.6-1.2,2.7-2.4,5-2.4
			c5.4,0,7.5,3,7.5,9v10.3h-4V111.5z"/>
		<path class="st1" d="M449.4,115.1c1.3,0.2,2.7,0.5,4,0.7c-0.6,3.1-3.3,6.3-8.3,6.3c-5.5,0-8.9-4-8.9-9.8c0-5.8,3.5-9.8,8.9-9.8
			c5,0,7.4,3.1,8.2,6.3c-1.3,0.3-2.7,0.5-4,0.7c-0.6-2.4-2.2-3.6-4.1-3.6c-3.2,0-4.9,2.6-4.9,6.4c0,3.8,1.7,6.4,4.9,6.4
			C447.2,118.7,448.8,117.5,449.4,115.1z"/>
		<path class="st1" d="M470.4,115.2c1.2,0.3,2.5,0.7,3.7,1.1c-0.9,2.7-3.4,5.9-8.6,5.9c-5.2,0-8.9-4-8.9-9.8c0-5.8,3.4-9.8,8.7-9.8
			c5.2,0,8.5,3.5,8.5,9.2c0,0.6,0,1.2-0.1,1.8h-13c0.1,2.8,2,5.2,4.7,5.2C467.5,118.7,469.4,117.8,470.4,115.2z M469.5,110.5
			c-0.1-2.8-1.5-4.6-4.2-4.6c-2.7,0-4.2,2.2-4.3,4.6H469.5z"/>
		<path class="st1" d="M476.9,116.2c1.3-0.3,2.7-0.5,4-0.7c0.3,1.5,1.2,3.3,4.2,3.3c0.7,0,4-0.3,4-2.7c0-4.5-11.6,0.2-11.6-8
			c0-3.2,3.2-5.6,7.3-5.6c4,0,7.5,1.7,8,5.9c-1.3,0.2-2.7,0.5-4,0.7c-0.3-2.4-1.7-3.2-4-3.2c-2,0-3.3,1-3.3,2.2
			c0,1.5,1.4,1.9,3.7,2.2c4.3,0.4,7.9,1.4,7.9,5.8c0,4-3.5,6.1-8,6.1C480.2,122.1,477.5,119.6,476.9,116.2z"/>
	</g>
</g>
</svg>
