<svg xmlns="http://www.w3.org/2000/svg" viewBox="-4 0 108 225" aria-hidden="true">
  <path class="norway-outline-land" d="M 9.4 218.7 L 6.9 216.4 L 3.5 210.9 L 2.4 198.5 L 2.0 179.5 L 1.3 167.1 L 3.3 148.9 L 10.0 129.0 L 19.6 110.8 L 28.5 89.3 L 36.7 65.3 L 44.4 46.3 L 53.5 25.6 L 66.7 6.6 L 78.9 1.7 L 88.9 9.9 L 97.4 29.8 L 92.6 44.7 L 83.3 56.2 L 72.2 77.7 L 64.8 102.6 L 59.3 127.4 L 53.7 152.2 L 50.0 177.0 L 48.1 193.5 L 42.6 205.1 L 33.3 215.0 L 25.9 210.1 L 23.3 200.2 L 16.7 203.5 L 9.4 218.7 Z"/>
</svg>
